<?xml version="1.0" standalone="no"?>
<!DOCTYPE svg PUBLIC "-//W3C//DTD SVG 1.1//EN" "http://www.w3.org/Graphics/SVG/1.1/DTD/svg11.dtd" >
<svg>
<metadata>
Created by FontForge 20120731 at Mon Mar 23 16:43:57 2015
 By curtis,,,
Copyright (c) 2012 by Mans Greba:ck. All rights reserved.
</metadata>
<defs>
<font id="SverigeScriptDemo" horiz-adv-x="1095" >
  <font-face 
    font-family="Sverige Script Demo"
    font-weight="400"
    font-style="italic"
    font-stretch="normal"
    units-per-em="1000"
    panose-1="2 0 0 0 0 0 0 0 0 0"
    ascent="750"
    descent="-250"
    x-height="513.125"
    cap-height="864"
    bbox="-819.25 -705.5 2011.75 1404.76"
    underline-thickness="50"
    underline-position="-50"
    slope="-22"
    unicode-range="U+0020-FB02"
  />
<missing-glyph horiz-adv-x="500" 
 />
    <glyph glyph-name="E_d" unicode="Ed" horiz-adv-x="1289" 
d="M679 362l-2 -5q0 -1 -0.5 -2t-0.5 -2l-3 -9q-2 -5 -2.5 -9.5t-1.5 -9.5t-1.5 -9t-0.5 -9v-8.5t1 -8.5q1 -4 1.5 -8t2.5 -7q4 -9 9 -13q4 -6 12 -9q8 -4 15 -4q4.79999 -0.899994 9.87 -0.899994q11.83 0 25.13 4.89999q19 5 34 17q8 5 15 11.5t14 13.5l6 8l6 8q3 4 5.5 8
t4.5 9q1 2 6 4l6 14q18 36 39 69l23 34q7 8 14 15.5t15 14.5q5 3 9 6.5t9 5.5q5 3 9.5 6t9.5 5t11 3.5t12 3.5q13 2 24 -1q8 -2 11 -4q1 0 1 -0.5t1 -0.5h1l1 -1q1 -1 2 -1l5 -4q5 -3 8 -8l6 -10q6 -9 9 -19q4 -11 5 -20q2 -5 2.5 -9.5t1.5 -9.5q0 -5 0.5 -10t0.5 -10
q1 -9 1 -17.75t-1 -17.25q5 11 9.5 23t9.5 24q20 50 40.5 99t42.5 98l43 98l43 97q11 25 20.5 49.5t20.5 48.5q11 25 20.5 49t18.5 49l9 25l9 25q4 12 7.5 24.5t6.5 24.5q2 6 3 12.5t2 12.5t1 12v11q-2 13 -5 19q-4 4 -7 5l-4 2h-3l-1 1h-1q-10 0 -8 10q0 6 8 8h8q4 0 8 -2
q10 -2 16 -9q4 -3 6.5 -6.5t4.5 -7.5t3 -7.5t2 -8.5q2 -10 2 -15q1 -5 1 -14q0 -8 -0.5 -14.5t-1.5 -14.5q-3 -27 -9 -54l-6 -27l-8 -26q-14 -50 -33 -103q-9 -26 -18.5 -50.5t-20.5 -49.5l-40 -99l-42 -99q-21 -49 -42 -97.5t-41 -98.5q-11 -24 -20.5 -48.5t-19.5 -49.5
q-9 -25 -18 -49.5t-17 -49.5q-5 -12 -8.5 -24.5t-6.5 -24.5q-8 -28 -11 -50l-4 -24q-1 -6 -1.5 -12t-0.5 -11v-10t2 -9q3 -10 10 -13l9 -3h10l11 3l10 6l11 7l9 8l19 18q17 21 32 41q8 11 15 22t15 22q14 22 27.5 45t26.5 46q7 11 13 23l12 24q7 11 12 23l12 24q4 9 13 5
t5 -13l-24 -48q-6 -12 -12.5 -24t-13.5 -24q-13 -23 -26.5 -46t-27.5 -46q-8 -11 -15.5 -22t-15.5 -22t-17 -21.5t-18 -20.5q-5 -5 -9.5 -10t-9.5 -10t-10.5 -9.5t-10.5 -8.5q-13 -10 -28 -14q-2 0 -4 -0.5t-4 -0.5q-1 -1 -2 -1h-6h-8t-9 2q-5 1 -8.5 3t-8.5 4q-4 3 -7.5 6
t-5.5 7q-5 6 -9 16q-2 4 -3 7.5t-3 7.5q-2 8 -2.5 15.5t-1.5 15.5q0 8 0.5 15t1.5 14q2 14 4.5 27.5t5.5 27.5q0 4 1 6l-12 -21q-10 -17 -20.5 -33t-22.5 -31l-24 -31q-4 -3 -7 -7l-7 -7q-3 -4 -6.5 -7t-7.5 -6q-7 -7 -16 -13q-8 -7 -17 -11q-18 -10 -38 -17q-2 0 -3 -0.5
t-3 -0.5h-1l-2 -1h-3h-6.5t-7.5 1q-8 1 -15 6q-6 5 -11 11q-8 9 -13 23q-5 13 -5 23q-1 5 -1.5 11t0.5 11v10.5t1 10.5q1 11 2 20.5t3 19.5q4 20 9 39t11 39q5 15 10 29.5t11 29.5l-11 -9q-20 -15 -39 -23q-5 -2 -10.5 -3.5t-11.5 -2.5q-6 -2 -12 -2h-12q-6 1 -12.5 2
t-12.5 3q-12 4 -22 13q-11 10 -17 21q-3 5 -5.5 11t-4.5 12t-2.5 12t-1.5 12t-1 11.5v11.5t0.5 11.5t0.5 11.5q0 3 1 5l-3 -2q-7 -5 -13 -11l-11 -11q-12 -12 -23 -24t-22 -25l-21 -26q-5 -7 -10 -13.5t-10 -13.5l-38 -54l-18 -28l-18 -29q-4 -7 -7.5 -13.5t-8.5 -12.5
q-19 -43 -39 -80l-30 -52l35 -21l61 -36q16 -9 31 -17t31 -16q17 -8 33 -13.5t33 -10.5q33 -8 67 -9q34 0 67 9q31 7 63 23q15 8 29.5 16.5t28.5 18.5q9 7 20.5 5t18.5 -11q7 -10 5 -21t-12 -18l-5 -3q-35 -15 -69 -27q-18 -5 -36 -9.5t-37 -6.5t-37.5 -2.5
q-3.70001 -0.100006 -7.38 -0.100006q-14.72 0 -29.12 1.60001q-19 2 -37 6t-35 9q-17 6 -33.5 13.5t-32.5 15.5q-17 8 -32 17t-31 18l-61 36q-9 5 -18 9.5t-18 9.5q-10 -14 -19.5 -28.5t-20.5 -28.5q-6 -8 -12 -15t-13 -14q-14 -15 -27 -26q-14 -12 -32 -23
q-17 -11 -36 -18q-10 -3 -19.5 -5.5t-20.5 -3.5h-20l-20 3q-9 2 -18.5 5t-18.5 7l-18 9q-5 3 -9 6t-8 7q-8 7 -13 16q-6 9 -9 19q-4.08333 12.25 -4.08333 24.1597q0 8.50694 2.08333 16.8403q3 20 14 37q11 18 24 29q14 14 31 23t34 14q20 7 37 8q5 1 9 1h9q3 1 10 1h4
l5 -1q18 0 36 -2.5t36 -7.5q24 -6 47 -16l30 54q16 31 30 63l28 64l48 120l-9 5q-6 3 -11.5 6.5t-11.5 7.5q-23 14 -43 31q-41 33 -71 77q-8 11 -14 22t-12 23q-11 22 -19 49q-7 23 -10 51q-2 14 -2.5 26.5t0.5 26.5q3 52 24 100q9 25 23 46t31 41q36 41 78 67q21 14 44 25
t47 19q50 17 100 21q13 1 25.5 1.5t25.5 -0.5q25 0 51 -3t51 -7.5t50 -9.5q13 -3 25 -6t24 -7t24 -7.5t24 -8.5q29 -11 53.5 -21.5t48 -19.5t48.5 -16t55 -11q11 -1 23 -1h24q24 1 48 6q25 5 47 12q9 3 13 -6q3 -8 -6 -12q-23 -11 -48 -18q-12 -3 -24.5 -6t-25.5 -5
q-26 -5 -52 -6q-13.3334 -0.666687 -24.6666 -0.666687q-5.66663 0 -10.8334 0.166687q-15.5 0.5 -30.5 2.5t-30.5 5.5t-33.5 9.5q-12 4 -24.5 7.5t-23.5 8.5l-47 19q-11 5 -22.5 10.5t-22.5 11.5l-44 22q-11 5 -22.5 10t-22.5 10q-11 4 -23 7.5t-23 5.5q-24 6 -49 6
q-12 1 -24 0.5t-25 -1.5q-12 -2 -24 -3.5t-24 -3.5q-12 -3 -23.5 -6t-23.5 -7q-48 -17 -87 -43q-41 -28 -72 -64q-15 -18 -28 -39q-13 -22 -21 -43q-5 -11 -8 -23t-5 -23q-2 -12 -3.5 -24t-1.5 -24q-0.571442 -6.57141 -0.571442 -13.2245q0 -16.6326 3.57144 -33.7755
q3 -22 11 -46q4 -11 9 -21.5t10 -21.5q6 -11 12.5 -20.5t13.5 -18.5q30 -38 68 -65q18 -12 40 -25l21 -10q4 -2 5 -2l38 97q25 66 54 132q7 17 14 33t15 32q8 17 16 33t18 32q10 17 19 31q6 8 12 15t13 14q3 4 6.5 7t7.5 7q8 7 17 11q9 6 19 9q6 2 10 2q2 0 3 0.5t3 0.5h5
q8 -2 8 -10q0 -5 -5 -7q-1 0 -1 -1h-1l-1 -1q-2 -2 -3 -2q-4 -4 -6 -5l-10 -11q-5 -6 -9.5 -12.5t-9.5 -13.5q-8 -14 -16 -29l-16 -30t-15 -30.5t-14 -31.5q-8 -17 -14.5 -32.5t-12.5 -32.5q-14 -32 -26 -65t-25 -66l-51 -133l-31 -77l30 43q5 7 10 13.5t10 13.5l21 27
q11 13 22 25.5t22 25.5l25 23l13 11l8 6l3 2l2 2q2 0 3 1h1q6 5 17 3q10 -2 16 -9.5t4 -18.5q0 -1 -0.5 -2t-0.5 -2zM1033 290q5 18 8.5 36t5.5 37q2 9 2 18.5v18.5q0 18 -3 36l-5 18q-2 4 -3.5 7.5t-3.5 7.5l-5 7q-3 2 -5 5q-1 0 -1.5 0.5t-1.5 0.5l-1 1h-1l-1 1
q-2 0 -3.5 0.5t-3.5 0.5q-1.16669 0.0833435 -2.32642 0.0833435q-12.757 0 -24.6736 -10.0833q-10 -9 -22 -26l-10 -14t-10 -15t-9.5 -15.5t-8.5 -15.5q-9 -16 -17 -33l-16 -34l-14 -34l-7 -18l-7 -17q-7 -18 -13 -35.5t-12 -35.5q-5 -17 -10 -35l-10 -36q-2 -8 -3.5 -17
t-2.5 -18q-1 -5 -1.5 -8.5t-0.5 -8.5q-1 -5 -1 -8.5v-7.5q0 -5 -0.5 -8.5t-0.5 -7.5q0 -8 1 -12q0 -3 1 -4q0 -2 2 -4l4 -3l1 -1h2q1 0 2 -0.5t2 -0.5q5 -1 9 -0.5t9 1.5q2 0 8 2t8 4q5 2 8.5 4.5t7.5 4.5t7.5 5t7.5 6l14 12l6 7l3.5 3.5l3.5 3.5q6 8 12 15t11 15
q11 15 20.5 31.5t18.5 33.5l16 34l7 18l4 8t4 9q7 18 13.5 35.5t11.5 35.5zM257 -17q-33 9 -68 9h-17q-6 0 -16 -2q-9 -1 -17 -3l-16 -4q-8 -3 -15.5 -6t-14.5 -8q-8 -4 -14.5 -9t-12.5 -10q-11 -11 -20 -26q-4 -7 -6.5 -14t-3.5 -15q-0.666668 -5.33334 -0.666668 -10.2222
q0 -10.2222 3.66667 -18.7778q4 -13 16 -23l13 -8q7 -4 14 -5q15 -3 31 -3q11 0 16 1h8q2 0 3.5 0.5t3.5 0.5q8 2 15 3.5t14 4.5q14 6 26.5 15.5t24.5 20.5l12 11l11 12l21 26q8 11 16 23t16 25z" />
    <glyph glyph-name="E_f" unicode="Ef" horiz-adv-x="1346" 
d="M816 365l-4 -4q0 -1 -0.5 -2t-0.5 -2l-6 -8q-3 -5 -4.5 -9.5t-3.5 -8.5q-1 -5 -2.5 -8t-1.5 -8q0 -4 0.5 -7.5t2.5 -8.5q1 -3 2.5 -7t4.5 -7t7 -6.5t10 -5.5q9 -4 23 -7q6 -2 14.5 -3t15.5 -1q9.71429 -1.14285 19.5919 -1.14285q7.40814 0 14.9081 0.642853
q17.5 1.5 34.5 4.5q17 2 34 5.5t32 9.5q45 13 80 38q3 1 8 5.5t10.5 9.5t9.5 11t6 10v1q36 100 71.5 199.5t73.5 199.5l24 64l13 32l13 31q14 32 28 63t30 61l17 31l18 29q17 28 41 57l24 26q7 6 14 11.5t15 10.5q7 5 16 10l17 7q5 2 9 2.5t9 1.5h10q1 1 4 1q1 0 1.5 -0.5
t1.5 -0.5h2q8 0 8 -9q0 -6 -8 -8q-16 -1 -29.5 -7.5t-25.5 -16.5q-6 -5 -12 -10.5t-11 -11.5t-10 -12.5t-10 -13.5q-17 -24 -33 -56q-5 -7 -8.5 -14l-7.5 -15q-3 -8 -6.5 -15l-7.5 -15l-13 -31q-6 -13 -13 -31l-25 -62q-2 -8 -5 -16l-6 -16l-12 -31l-23 -64l-22 -64l-22 -64
l-21 -64l-22 -64l-16 -45l-6 -24t-5 -25q-9 -37 -15 -73q-3 -19 -5.5 -37t-3.5 -37q-1 -9 -1.5 -18.5t-0.5 -18.5l2 -18t3 -17q1 -9 6 -15q3 -7 10 -9q0 -1 1 -1h2h11q5 1 15 5q8 4 15 9t14 11q12 11 24 26q23 31 41 62q4 8 8 16.5t9 16.5l7 17l4 8l4 9q4 10 13 5
q8 -3 5 -13q-2 -6 -4 -9l-4 -8q-3 -8 -8 -17t-9 -17.5t-9 -16.5q-9 -17 -19.5 -33t-22.5 -31q-13 -17 -27 -29q-8 -6 -16 -11.5t-17 -10.5q-11 -5 -21 -6q-2 0 -5 -0.5t-6 0.5h-6l-6 2q-6 3 -10 7q-4 2 -8 9q-5 8 -7 20q-2 5 -2.5 9.5t-1.5 9.5q0 5 -0.5 10t-0.5 10
q0 10 0.5 19.5t1.5 18.5q2 20 4.5 38.5t5.5 37.5q0 3 2 9q-10 -26 -19 -51t-19 -50q-24 -63 -51 -126q-7 -16 -13.5 -31.5t-14.5 -31.5l-28 -62q-15 -31 -30.5 -61.5t-32.5 -60.5t-35 -59t-38 -57q-20 -29 -41.5 -55.5t-45.5 -52.5q-11 -13 -23.5 -25t-25.5 -24
q-13 -11 -26.5 -22t-27.5 -21q-14 -11 -28.5 -20t-29.5 -17q-16 -8 -31.5 -15.5t-31.5 -13.5q-8 -2 -16.5 -5t-17.5 -5l-33 -7q-9 -2 -17.5 -2.5t-17.5 -1.5q-8 -1 -17 -1h-17q-6 0 -6 6t6 6q35 0 66 7l16 4l16 4t16 5l16 6q62 26 113 69q25 21 48 45q23 25 44 50
q11 13 20.5 26t18.5 27l37 56q17 29 33 58t32 59q15 30 29.5 60t28.5 61q16 32 27 61q7 16 13.5 31t12.5 31q13 32 25 63t24 63l18 47q-30 -17 -65 -29q-17 -6 -36.5 -11.5t-39.5 -10.5q-10 -1 -21 -2.5t-22 -2.5q-12 -2 -23.5 -2h-23.5q-11 1 -24 2t-25 3q-11 2 -22.5 5
t-19.5 7q-20 8 -33 19q-14 10 -19 21q-6 11 -8 22q-2 6 -2.5 10.5t-0.5 10.5q0 4 1 8t2 9l-4 -2q-8 -5 -16 -11t-15 -11q-16 -11 -30 -23t-28 -25l-27 -25l-26 -27q-13 -13 -24.5 -26t-24.5 -27q-6 -7 -12 -13.5t-11 -13.5l-24 -29l-44 -55l-41 -57l-21 -30l-11 -16
q8 -5 16.5 -10t16.5 -10l61 -36q16 -9 31 -17t31 -16q17 -8 33 -13.5t33 -10.5q33 -8 67 -9q34 0 67 9q31 7 63 23q15 8 29.5 16.5t28.5 18.5q9 7 20.5 5t18.5 -11q7 -10 5 -21t-12 -18l-5 -3q-35 -15 -69 -27q-18 -5 -36 -9.5t-37 -6.5t-37.5 -2.5
q-3.70001 -0.100006 -7.38 -0.100006q-14.72 0 -29.12 1.60001q-19 2 -37 6t-35 9q-17 6 -33.5 13.5t-32.5 15.5q-17 8 -32 17t-31 18l-61 36l-35 19q-1 -3 -4 -4q-9 -14 -18 -27t-19 -26q-6 -8 -12 -15t-13 -14q-14 -15 -27 -26q-14 -12 -32 -23q-17 -11 -36 -18
q-10 -3 -19.5 -5.5t-20.5 -3.5h-20l-20 3q-9 2 -18.5 5t-18.5 7l-18 9q-5 3 -9 6t-8 7q-8 7 -13 16q-6 9 -9 19q-4.08333 12.25 -4.08333 24.1597q0 8.50694 2.08333 16.8403q3 20 14 37q11 18 24 29q14 14 31 23t34 14q20 7 37 8q5 1 9 1h9q3 1 10 1h4l5 -1q18 0 36 -2.5
t36 -7.5q24 -6 47 -16l30 54q16 31 30 63l28 64l48 120l-9 5q-6 3 -11.5 6.5t-11.5 7.5q-23 14 -43 31q-41 33 -71 77q-8 11 -14 22t-12 23q-11 22 -19 49q-7 23 -10 51q-2 14 -2.5 26.5t0.5 26.5q3 52 24 100q9 25 23 46t31 41q36 41 78 67q21 14 44 25t47 19q50 17 100 21
q13 1 25.5 1.5t25.5 -0.5q25 0 51 -3t51 -7.5t50 -9.5q13 -3 25 -6t24 -7t24 -7.5t24 -8.5q47 -17 91.5 -34t91.5 -28q11 -2 23 -3.5t24 -3.5q11 -1 23 -1h24q24 1 48 6q25 5 47 12q9 3 13 -6q3 -8 -6 -12q-23 -11 -48 -18q-12 -3 -24.5 -6t-25.5 -5q-26 -5 -52 -6
q-13 -2 -26 -1.5t-26 1.5q-54 3 -103 18q-12 4 -24.5 7.5t-23.5 8.5l-47 19q-11 5 -22.5 10.5t-22.5 11.5l-44 22q-11 5 -22.5 10t-22.5 10q-11 4 -23 7.5t-23 5.5q-24 6 -49 6q-12 1 -24 0.5t-25 -1.5q-12 -2 -24 -3.5t-24 -3.5q-12 -3 -23.5 -6t-23.5 -7q-48 -17 -87 -43
q-41 -28 -72 -64q-15 -18 -28 -39q-13 -22 -21 -43q-5 -11 -8 -23t-5 -23q-2 -12 -3.5 -24t-1.5 -24q-0.571442 -6.57141 -0.571442 -13.2245q0 -16.6326 3.57144 -33.7755q3 -22 11 -46q4 -11 9 -21.5t10 -21.5q6 -11 12.5 -20.5t13.5 -18.5q30 -38 68 -65q18 -12 40 -25
l21 -10q4 -2 5 -2l38 97q25 66 54 132q7 17 14 33t15 32q8 17 16 33t18 32q10 17 19 31q6 8 12 15t13 14q3 4 6.5 7t7.5 7q8 7 17 11q9 6 19 9q6 2 10 2q2 0 3 0.5t3 0.5h5q8 -2 8 -10q0 -5 -5 -7q-1 0 -1 -1h-1l-1 -1q-2 -2 -3 -2q-4 -4 -6 -5l-10 -11q-5 -6 -9.5 -12.5
t-9.5 -13.5q-8 -14 -16 -29l-16 -30t-15 -30.5t-14 -31.5q-8 -17 -14.5 -32.5t-12.5 -32.5q-14 -32 -26 -65t-25 -66l-51 -133q-13 -33 -26.5 -66t-28.5 -65q-7 -16 -14 -31.5t-15 -31.5q20 26 41.5 51.5t43.5 51.5l50 54l26 27l27 26q14 13 28.5 25t28.5 25l16 12t16 11
l17 10l11 6l3 2q3 1 3 2q12.1875 10.5625 36.918 10.5625q5.70703 0 12.082 -0.5625q19 -2 30.5 -9t8.5 -16q0 -1 -1.5 -2t-1.5 -2zM257 -17q-33 9 -68 9h-17q-6 0 -16 -2q-9 -1 -17 -3l-16 -4q-8 -3 -15.5 -6t-14.5 -8q-8 -4 -14.5 -9t-12.5 -10q-11 -11 -20 -26
q-4 -7 -6.5 -14t-3.5 -15q-0.666668 -5.33334 -0.666668 -10.2222q0 -10.2222 3.66667 -18.7778q4 -13 16 -23l13 -8q7 -4 14 -5q15 -3 31 -3q11 0 16 1h8q2 0 3.5 0.5t3.5 0.5q8 2 15 3.5t14 4.5q14 6 26.5 15.5t24.5 20.5l12 11l11 12l21 26q8 11 16 23t16 25z" />
    <glyph glyph-name="E_i" unicode="Ei" 
d="M679 362l-2 -5q0 -1 -0.5 -2t-0.5 -2l-3 -9q-2 -5 -2.5 -9.5t-1.5 -9.5t-1.5 -9t-0.5 -9v-8.5t1 -8.5q1 -4 1.5 -8t2.5 -7q4 -9 9 -13q4 -6 12 -9q8 -4 15 -4q4.79999 -0.899994 9.87 -0.899994q11.83 0 25.13 4.89999q19 5 34 17q8 5 15 11.5t14 13.5l6 8l6 8q3 4 5.5 8
t4.5 9l3 3q5 12 10 23.5t10 22.5q6 14 12 27t13 27q7 16 13 28q2 3 3.5 6.5t3.5 6.5q3 8 7 13q5 10 15.5 13t19.5 -2t12.5 -14.5t-0.5 -18.5h-1l-11 -27l-12 -27l-23 -55l-22 -54t-21 -55l-5 -14q-4 -7 -5 -13q-2 -8 -5 -14.5t-5 -13.5q-5 -14 -8.5 -27.5t-7.5 -27.5l-3 -14
l-3 -14q-2 -7 -3 -13.5t-2 -13.5q-2 -7 -2.5 -13.5t-1.5 -13.5v-12t2 -12q2 -5 5 -9t8 -6q2 -2 5 -2l6 -2h12q14 3 25 10q4 2 12 8q4 2 12 8l21 20l20 22q10 11 19 22.5t18 23.5q9 11 17.5 23t17.5 25l32 49l31 51l29 52q4 8 11 3q8 -4 3 -11q-7 -14 -14 -26.5t-15 -25.5
l-32 -51q-14 -24 -32 -50l-35 -49q-18 -23 -38 -47q-20 -23 -43 -43l-12 -9l-13 -9q-4 -2 -7 -4t-7 -4l-8 -3l-8 -3l-8 -2h-18q-6 2 -9 2l-9 4l-9 6q-4 3 -7 6.5t-6 7.5q-2 5 -4 8.5t-4 8.5q-4 9 -5 17q-2 8 -3 16.5t-1 16.5v16t2 16q0 5 2 15l3 16q2 15 5.5 30t8.5 30l9 29
l4 14l5 15l-16 -13q-20 -15 -39 -23q-5 -2 -10.5 -3.5t-11.5 -2.5q-6 -2 -12 -2h-12q-6 1 -12.5 2t-12.5 3q-12 4 -22 13q-11 10 -17 21q-3 5 -5.5 11t-4.5 12t-2.5 12t-1.5 12t-1 11.5v11.5t0.5 11.5t0.5 11.5q0 3 1 5l-3 -2q-7 -5 -13 -11l-11 -11q-12 -12 -23 -24
t-22 -25l-21 -26q-5 -7 -10 -13.5t-10 -13.5l-38 -54l-18 -28l-18 -29q-4 -7 -7.5 -13.5t-8.5 -12.5q-19 -43 -39 -80l-30 -52l35 -21l61 -36q16 -9 31 -17t31 -16q17 -8 33 -13.5t33 -10.5q33 -8 67 -9q34 0 67 9q31 7 63 23q15 8 29.5 16.5t28.5 18.5q9 7 20.5 5t18.5 -11
q7 -10 5 -21t-12 -18l-5 -3q-35 -15 -69 -27q-18 -5 -36 -9.5t-37 -6.5t-37.5 -2.5q-3.70001 -0.100006 -7.38 -0.100006q-14.72 0 -29.12 1.60001q-19 2 -37 6t-35 9q-17 6 -33.5 13.5t-32.5 15.5q-17 8 -32 17t-31 18l-61 36q-9 5 -18 9.5t-18 9.5q-10 -14 -19.5 -28.5
t-20.5 -28.5q-6 -8 -12 -15t-13 -14q-14 -15 -27 -26q-14 -12 -32 -23q-17 -11 -36 -18q-10 -3 -19.5 -5.5t-20.5 -3.5h-20l-20 3q-9 2 -18.5 5t-18.5 7l-18 9q-5 3 -9 6t-8 7q-8 7 -13 16q-6 9 -9 19q-4.08333 12.25 -4.08333 24.1597q0 8.50694 2.08333 16.8403
q3 20 14 37q11 18 24 29q14 14 31 23t34 14q20 7 37 8q5 1 9 1h9q3 1 10 1h4l5 -1q18 0 36 -2.5t36 -7.5q24 -6 47 -16l30 54q16 31 30 63l28 64l48 120l-9 5q-6 3 -11.5 6.5t-11.5 7.5q-23 14 -43 31q-41 33 -71 77q-8 11 -14 22t-12 23q-11 22 -19 49q-7 23 -10 51
q-2 14 -2.5 26.5t0.5 26.5q3 52 24 100q9 25 23 46t31 41q36 41 78 67q21 14 44 25t47 19q50 17 100 21q13 1 25.5 1.5t25.5 -0.5q25 0 51 -3t51 -7.5t50 -9.5q13 -3 25 -6t24 -7t24 -7.5t24 -8.5q47 -17 91.5 -34t91.5 -28q11 -2 23 -3.5t24 -3.5q11 -1 23 -1h24q24 1 48 6
q25 5 47 12q9 3 13 -6q0.75 -2 0.75 -3.75q0 -5.25 -6.75 -8.25q-23 -11 -48 -18q-12 -3 -24.5 -6t-25.5 -5q-26 -5 -52 -6q-13 -2 -26 -1.5t-26 1.5q-54 3 -103 18q-12 4 -24.5 7.5t-23.5 8.5l-47 19q-11 5 -22.5 10.5t-22.5 11.5l-44 22q-11 5 -22.5 10t-22.5 10
q-11 4 -23 7.5t-23 5.5q-24 6 -49 6q-12 1 -24 0.5t-25 -1.5q-12 -2 -24 -3.5t-24 -3.5q-12 -3 -23.5 -6t-23.5 -7q-48 -17 -87 -43q-41 -28 -72 -64q-15 -18 -28 -39q-13 -22 -21 -43q-5 -11 -8 -23t-5 -23q-2 -12 -3.5 -24t-1.5 -24
q-0.571442 -6.57141 -0.571442 -13.2245q0 -16.6326 3.57144 -33.7755q3 -22 11 -46q4 -11 9 -21.5t10 -21.5q6 -11 12.5 -20.5t13.5 -18.5q30 -38 68 -65q18 -12 40 -25l21 -10q4 -2 5 -2l38 97q25 66 54 132q7 17 14 33t15 32q8 17 16 33t18 32q10 17 19 31q6 8 12 15
t13 14q3 4 6.5 7t7.5 7q8 7 17 11q9 6 19 9q6 2 10 2q2 0 3 0.5t3 0.5h5q8 -2 8 -10q0 -5 -5 -7q-1 0 -1 -1h-1l-1 -1q-2 -2 -3 -2q-4 -4 -6 -5l-10 -11q-5 -6 -9.5 -12.5t-9.5 -13.5q-8 -14 -16 -29l-16 -30t-15 -30.5t-14 -31.5q-8 -17 -14.5 -32.5t-12.5 -32.5
q-14 -32 -26 -65t-25 -66l-51 -133l-31 -77l30 43q5 7 10 13.5t10 13.5l21 27q11 13 22 25.5t22 25.5l25 23l13 11l8 6l3 2l2 2q2 0 3 1h1q6 5 17 3q10 -2 16 -9.5t4 -18.5q0 -1 -0.5 -2t-0.5 -2zM257 -17q-33 9 -68 9h-17q-6 0 -16 -2q-9 -1 -17 -3l-16 -4q-8 -3 -15.5 -6
t-14.5 -8q-8 -4 -14.5 -9t-12.5 -10q-11 -11 -20 -26q-4 -7 -6.5 -14t-3.5 -15q-0.666668 -5.33334 -0.666668 -10.2222q0 -10.2222 3.66667 -18.7778q4 -13 16 -23l13 -8q7 -4 14 -5q15 -3 31 -3q11 0 16 1h8q2 0 3.5 0.5t3.5 0.5q8 2 15 3.5t14 4.5q14 6 26.5 15.5
t24.5 20.5l12 11l11 12l21 26q8 11 16 23t16 25zM1132 928q0 -14 -10.5 -24.5t-24.5 -10.5t-24.5 10.5t-10.5 24.5t10.5 24.5t24.5 10.5t24.5 -10.5t10.5 -24.5z" />
    <glyph glyph-name="E_j" unicode="Ej" horiz-adv-x="1009" 
d="M679 362l-2 -5q0 -1 -0.5 -2t-0.5 -2l-3 -9q-2 -5 -2.5 -9.5t-1.5 -9.5t-1.5 -9t-0.5 -9v-8.5t1 -8.5q1 -4 1.5 -8t2.5 -7q4 -9 9 -13q4 -6 12 -9q8 -4 15 -4q4.79999 -0.899994 9.87 -0.899994q11.83 0 25.13 4.89999q19 5 34 17q8 5 15 11.5t14 13.5l6 8l6 8q3 4 5.5 8
t4.5 9l4 3q8 20 16 39l16 38l20 42q5 11 10.5 21t11.5 21q5 9 15 11.5t19 -2.5t12 -14.5t-2 -18.5q-5 -10 -9.5 -19.5t-9.5 -20.5t-9 -20.5t-8 -20.5q-9 -21 -16.5 -42t-15.5 -42q-15 -43 -29.5 -86t-29.5 -87q-8 -22 -15.5 -43t-15.5 -43l-17 -43l-18 -43
q-13 -29 -27 -57.5t-30 -55.5q4 0 6 1q13 16 25 32.5t24 33.5l28 39l27 41q13 20 26 40.5t26 41.5q13 20 25.5 41t24.5 42l50 83l25 42l13 21l13 20q5 9 13 3q9 -5 3 -13q-6 -10 -14 -20q-3 -5 -6 -10.5t-7 -10.5l-26 -40l-51 -83l-52 -83q-13 -20 -25.5 -41t-26.5 -41
l-27 -40l-27 -41l-38 -51q27 8 49 19q15 8 29.5 16.5t28.5 18.5q9 7 20.5 5t18.5 -11q7 -10 5 -21t-12 -18l-5 -3q-35 -15 -69 -27q-18 -5 -36 -9.5t-37 -6.5l-22 -2l-21 -26q-8 -10 -16 -19l-16 -18q-32 -33 -66 -63q-9 -9 -18.5 -17.5t-19.5 -16.5q-19 -15 -38.5 -28
t-39.5 -25q-20 -11 -41.5 -21t-43.5 -19q-44 -17 -88 -29q-22 -6 -44.5 -10.5t-45.5 -8.5q-44 -7 -91 -12q-23 -2 -46 -3t-46 -3q-10 0 -10 10q-1 4 2 7t7 3h1q15.3333 -0.666656 30.4444 -0.666656q7.55555 0 15.0556 0.166656q22.5 0.5 45.5 2.5t45 4t45 7q22 4 44 9
t43 12q22 8 43 16t41 18q40 19 77 46q18 13 34.5 27t33.5 29q16 16 30.5 32.5t28.5 33.5l6 8q3 3 7 9q4 5 7 9t6 9l22 32q-12 2 -24 5.5t-23 6.5q-17 6 -33.5 13.5t-32.5 15.5q-17 8 -32 17t-31 18l-61 36q-9 5 -18 9.5t-18 9.5q-10 -14 -19.5 -28.5t-20.5 -28.5
q-6 -8 -12 -15t-13 -14q-14 -15 -27 -26q-14 -12 -32 -23q-17 -11 -36 -18q-10 -3 -19.5 -5.5t-20.5 -3.5h-20l-20 3q-9 2 -18.5 5t-18.5 7l-18 9q-5 3 -9 6t-8 7q-8 7 -13 16q-6 9 -9 19q-4.08333 12.25 -4.08333 24.1597q0 8.50694 2.08333 16.8403q3 20 14 37
q11 18 24 29q14 14 31 23t34 14q20 7 37 8q5 1 9 1h9q3 1 10 1h4l5 -1q18 0 36 -2.5t36 -7.5q24 -6 47 -16l30 54q16 31 30 63l28 64l48 120l-9 5q-6 3 -11.5 6.5t-11.5 7.5q-23 14 -43 31q-41 33 -71 77q-8 11 -14 22t-12 23q-11 22 -19 49q-7 23 -10 51q-2 14 -2.5 26.5
t0.5 26.5q3 52 24 100q9 25 23 46t31 41q36 41 78 67q21 14 44 25t47 19q50 17 100 21q13 1 25.5 1.5t25.5 -0.5q25 0 51 -3t51 -7.5t50 -9.5q13 -3 25 -6t24 -7t24 -7.5t24 -8.5q47 -17 91.5 -34t91.5 -28q11 -2 23 -3.5t24 -3.5q11 -1 23 -1h24q24 1 48 6q25 5 47 12
q9 3 13 -6q0.75 -2 0.75 -3.75q0 -5.25 -6.75 -8.25q-23 -11 -48 -18q-12 -3 -24.5 -6t-25.5 -5q-26 -5 -52 -6q-13 -2 -26 -1.5t-26 1.5q-54 3 -103 18q-12 4 -24.5 7.5t-23.5 8.5l-47 19q-11 5 -22.5 10.5t-22.5 11.5l-44 22q-11 5 -22.5 10t-22.5 10q-11 4 -23 7.5
t-23 5.5q-24 6 -49 6q-12 1 -24 0.5t-25 -1.5q-12 -2 -24 -3.5t-24 -3.5q-12 -3 -23.5 -6t-23.5 -7q-48 -17 -87 -43q-41 -28 -72 -64q-15 -18 -28 -39q-13 -22 -21 -43q-5 -11 -8 -23t-5 -23q-2 -12 -3.5 -24t-1.5 -24q-0.571442 -6.57141 -0.571442 -13.2245
q0 -16.6326 3.57144 -33.7755q3 -22 11 -46q4 -11 9 -21.5t10 -21.5q6 -11 12.5 -20.5t13.5 -18.5q30 -38 68 -65q18 -12 40 -25l21 -10q4 -2 5 -2l38 97q25 66 54 132q7 17 14 33t15 32q8 17 16 33t18 32q10 17 19 31q6 8 12 15t13 14q3 4 6.5 7t7.5 7q8 7 17 11q9 6 19 9
q6 2 10 2q2 0 3 0.5t3 0.5h5q8 -2 8 -10q0 -5 -5 -7q-1 0 -1 -1h-1l-1 -1q-2 -2 -3 -2q-4 -4 -6 -5l-10 -11q-5 -6 -9.5 -12.5t-9.5 -13.5q-8 -14 -16 -29l-16 -30t-15 -30.5t-14 -31.5q-8 -17 -14.5 -32.5t-12.5 -32.5q-14 -32 -26 -65t-25 -66l-51 -133l-31 -77l30 43
q5 7 10 13.5t10 13.5l21 27q11 13 22 25.5t22 25.5l25 23l13 11l8 6l3 2l2 2q2 0 3 1h1q6 5 17 3q10 -2 16 -9.5t4 -18.5q0 -1 -0.5 -2t-0.5 -2zM387 14l-30 -52l35 -21l61 -36q16 -9 31 -17t31 -16q17 -8 33 -13.5t33 -10.5q14 -3 27.5 -5t27.5 -3q20 34 37 69t33 71l16 41
q5 11 8.5 21.5t7.5 21.5q8 21 15.5 42t15.5 43q10 29 20 58.5t20 59.5q-4 -5 -8.5 -8.5t-9.5 -7.5q-20 -15 -39 -23q-5 -2 -10.5 -3.5t-11.5 -2.5q-6 -2 -12 -2h-12q-6 1 -12.5 2t-12.5 3q-12 4 -22 13q-11 10 -17 21q-3 5 -5.5 11t-4.5 12t-2.5 12t-1.5 12t-1 11.5v11.5
t0.5 11.5t0.5 11.5q0 3 1 5l-3 -2q-7 -5 -13 -11l-11 -11q-12 -12 -23 -24t-22 -25l-21 -26q-5 -7 -10 -13.5t-10 -13.5l-38 -54l-18 -28l-18 -29q-4 -7 -7.5 -13.5t-8.5 -12.5q-19 -43 -39 -80zM257 -17q-33 9 -68 9h-17q-6 0 -16 -2q-9 -1 -17 -3l-16 -4q-8 -3 -15.5 -6
t-14.5 -8q-8 -4 -14.5 -9t-12.5 -10q-11 -11 -20 -26q-4 -7 -6.5 -14t-3.5 -15q-0.666668 -5.33334 -0.666668 -10.2222q0 -10.2222 3.66667 -18.7778q4 -13 16 -23l13 -8q7 -4 14 -5q15 -3 31 -3q11 0 16 1h8q2 0 3.5 0.5t3.5 0.5q8 2 15 3.5t14 4.5q14 6 26.5 15.5
t24.5 20.5l12 11l11 12l21 26q8 11 16 23t16 25zM1135 928q0 -14 -10.5 -24.5t-24.5 -10.5t-24.5 10.5t-10.5 24.5t10.5 24.5t24.5 10.5t24.5 -10.5t10.5 -24.5z" />
    <glyph glyph-name="E_t" unicode="Et" horiz-adv-x="1106" 
d="M1120 1193h8q3 0 9 -2q10 -2 16 -9q7 -5 10 -15q2 -4 3 -7.5t2 -7.5q2 -4 2 -7.5t1 -7.5v-15v-14.5t-2 -14.5q-3 -29 -9 -55l-6 -26l-8 -27q-8 -26 -16 -51.5t-18 -51.5l-24 -65q8 -2 15.5 -2.5t15.5 -1.5q11 -1 23 -1h24q24 1 48 6q25 5 47 12q9 3 13 -6
q0.75 -2 0.75 -3.75q0 -5.25 -6.75 -8.25q-23 -11 -48 -18q-12 -3 -24.5 -6t-25.5 -5q-26 -5 -52 -6q-11 -2 -23 -2t-23 1q-9 -24 -19 -47.5t-20 -48.5l-20 -49l-21 -50l-27 -67q24 -13 46 -21q32 -14 62 -20q8 -2 16 -3l16 -2q8.5 -1 16.5 -1t15.5 1q8 1 15.5 2t15.5 3
t15 5t13 8q7 4 12 9l10 10q11 14 13 25q2 4 2 7.5v6.5q1 4 0.5 7t-1.5 7q-1 13 -10 25q-4 6 -9 11l-10 10q-8 6 -12 8l-14 7q-7 3 -10 10t1 15q3 8 10 10.5t15 -0.5q1 0 1 -0.5t1 -0.5q15 -9 30 -23q7 -7 13 -14.5t11 -16.5q9 -17 11 -37q2 -10 0.5 -20t-4.5 -19
q-7 -20 -20 -33q-12 -14 -29 -23q-15 -8 -34 -13q-8 -2 -17 -3l-18 -2h-17t-18 1l-34 6q-17 5 -32.5 10.5t-31.5 12.5q-12 5 -23.5 10.5t-22.5 12.5q-12 -30 -24.5 -60t-23.5 -60q-10 -25 -19.5 -49.5t-17.5 -49.5q-9 -26 -17 -50.5t-16 -50.5l-12 -50q-4 -25 -6 -50
q0 -6 -0.5 -11.5t0.5 -11.5v-10t2 -10q1 -10 7 -17q3 -4 8 -5q4 -2 10 -4q1 0 2 -0.5t3 -0.5h5q3 0 5.5 0.5t5.5 1.5q9 3 21 11q5 3 10.5 7t10.5 9q5 4 9 8.5t9 9.5q9 10 17.5 20t16.5 21q5 5 8.5 10.5t7.5 10.5q8 10 16 22l30 44t29 45l27 46q7 11 13.5 23t12.5 24
q5 8 14 4q8 -5 4 -14l-27 -47q-7 -11 -13.5 -23t-14.5 -23q-14 -23 -28.5 -45.5t-30.5 -45.5q-16 -22 -32.5 -43.5t-35.5 -41.5l-20 -19q-5 -5 -10.5 -9.5t-10.5 -8.5l-12 -9l-13 -7q-6 -2 -16 -4q-1 0 -2 -1h-14q-6 0 -16 2t-17 6q-8 4 -15 12q-7 6 -11 14l-4 7l-3 8
q-4 9 -5 16q-3 15 -3 30q0 8 0.5 15t0.5 15l4 28q2 14 5 27.5t6 27.5q5 17 9.5 35t9.5 35q-7 -8 -17 -15q-20 -15 -39 -23q-5 -2 -10.5 -3.5t-11.5 -2.5q-6 -2 -12 -2h-12q-6 1 -12.5 2t-12.5 3q-12 4 -22 13q-11 10 -17 21q-3 5 -5.5 11t-4.5 12t-2.5 12t-1.5 12t-1 11.5
v11.5t0.5 11.5t0.5 11.5q0 3 1 5l-3 -2q-7 -5 -13 -11l-11 -11q-12 -12 -23 -24t-22 -25l-21 -26q-5 -7 -10 -13.5t-10 -13.5l-38 -54l-18 -28l-18 -29q-4 -7 -7.5 -13.5t-8.5 -12.5q-19 -43 -39 -80l-30 -52l35 -21l61 -36q16 -9 31 -17t31 -16q17 -8 33 -13.5t33 -10.5
q33 -8 67 -9q34 0 67 9q31 7 63 23q15 8 29.5 16.5t28.5 18.5q9 7 20.5 5t18.5 -11q7 -10 5 -21t-12 -18l-5 -3q-35 -15 -69 -27q-18 -5 -36 -9.5t-37 -6.5t-37.5 -2.5q-3.70001 -0.100006 -7.38 -0.100006q-14.72 0 -29.12 1.60001q-19 2 -37 6t-35 9q-17 6 -33.5 13.5
t-32.5 15.5q-17 8 -32 17t-31 18l-61 36q-9 5 -18 9.5t-18 9.5q-10 -14 -19.5 -28.5t-20.5 -28.5q-6 -8 -12 -15t-13 -14q-14 -15 -27 -26q-14 -12 -32 -23q-17 -11 -36 -18q-10 -3 -19.5 -5.5t-20.5 -3.5h-20l-20 3q-9 2 -18.5 5t-18.5 7l-18 9q-5 3 -9 6t-8 7q-8 7 -13 16
q-6 9 -9 19q-4.08333 12.25 -4.08333 24.1597q0 8.50694 2.08333 16.8403q3 20 14 37q11 18 24 29q14 14 31 23t34 14q20 7 37 8q5 1 9 1h9q3 1 10 1h4l5 -1q18 0 36 -2.5t36 -7.5q24 -6 47 -16l30 54q16 31 30 63l28 64l48 120l-9 5q-6 3 -11.5 6.5t-11.5 7.5
q-23 14 -43 31q-41 33 -71 77q-8 11 -14 22t-12 23q-11 22 -19 49q-7 23 -10 51q-2 14 -2.5 26.5t0.5 26.5q3 52 24 100q9 25 23 46t31 41q36 41 78 67q21 14 44 25t47 19q50 17 100 21q13 1 25.5 1.5t25.5 -0.5q25 0 51 -3t51 -7.5t50 -9.5q13 -3 25 -6t24 -7t24 -7.5
t24 -8.5q37 -14 72.5 -27.5t72.5 -24.5l30 71q10 24 20 48.5t19 49.5l9 25l9 25l14 50q2 6 3 12.5t2 12.5t1.5 12t-0.5 12q0 11 -5 19q-2 4 -6 5l-4 2h-3l-1 1h-2q-8 0 -8 10q2 6 8 8zM679 362l-2 -5q0 -1 -0.5 -2t-0.5 -2l-3 -9q-2 -5 -2.5 -9.5t-1.5 -9.5t-1.5 -9t-0.5 -9
v-8.5t1 -8.5q1 -4 1.5 -8t2.5 -7q4 -9 9 -13q4 -6 12 -9q8 -4 15 -4q4.79999 -0.899994 9.87 -0.899994q11.83 0 25.13 4.89999q19 5 34 17q8 5 15 11.5t14 13.5l6 8l6 8q3 4 5.5 8t4.5 9l1 1l27 75q12 33 25 66t27 65q-5 4 -9 7.5t-9 7.5q-14 10 -27.5 19.5t-27.5 18.5
q-30 19 -58 33l5 9q32 -16 59 -33q14 -9 28 -18.5t28 -19.5l16 -12l24 57l21 50l22 49l34 80q-27 4 -51 12q-12 4 -24.5 7.5t-23.5 8.5l-47 19q-11 5 -22.5 10.5t-22.5 11.5l-44 22q-11 5 -22.5 10t-22.5 10q-11 4 -23 7.5t-23 5.5q-24 6 -49 6q-8 0.666687 -16 0.666687
l-8 -0.166687q-12 -0.5 -25 -1.5q-12 -2 -24 -3.5t-24 -3.5q-12 -3 -23.5 -6t-23.5 -7q-48 -17 -87 -43q-41 -28 -72 -64q-15 -18 -28 -39q-13 -22 -21 -43q-5 -11 -8 -23t-5 -23q-2 -12 -3.5 -24t-1.5 -24q-0.571442 -6.57141 -0.571442 -13.2245
q0 -16.6326 3.57144 -33.7755q3 -22 11 -46q4 -11 9 -21.5t10 -21.5q6 -11 12.5 -20.5t13.5 -18.5q30 -38 68 -65q18 -12 40 -25l21 -10q4 -2 5 -2l38 97q25 66 54 132q7 17 14 33t15 32q8 17 16 33t18 32q10 17 19 31q6 8 12 15t13 14q3 4 6.5 7t7.5 7q8 7 17 11q9 6 19 9
q6 2 10 2q2 0 3 0.5t3 0.5h5q8 -2 8 -10q0 -5 -5 -7q-1 0 -1 -1h-1l-1 -1q-2 -2 -3 -2q-4 -4 -6 -5l-10 -11q-5 -6 -9.5 -12.5t-9.5 -13.5q-8 -14 -16 -29l-16 -30t-15 -30.5t-14 -31.5q-8 -17 -14.5 -32.5t-12.5 -32.5q-14 -32 -26 -65t-25 -66l-51 -133l-31 -77l30 43
q5 7 10 13.5t10 13.5l21 27q11 13 22 25.5t22 25.5l25 23l13 11l8 6l3 2l2 2q2 0 3 1h1q6 5 17 3q10 -2 16 -9.5t4 -18.5q0 -1 -0.5 -2t-0.5 -2zM257 -17q-33 9 -68 9h-17q-6 0 -16 -2q-9 -1 -17 -3l-16 -4q-8 -3 -15.5 -6t-14.5 -8q-8 -4 -14.5 -9t-12.5 -10
q-11 -11 -20 -26q-4 -7 -6.5 -14t-3.5 -15q-0.666668 -5.33334 -0.666668 -10.2222q0 -10.2222 3.66667 -18.7778q4 -13 16 -23l13 -8q7 -4 14 -5q15 -3 31 -3q11 0 16 1h8q2 0 3.5 0.5t3.5 0.5q8 2 15 3.5t14 4.5q14 6 26.5 15.5t24.5 20.5l12 11l11 12l21 26q8 11 16 23
t16 25z" />
    <glyph glyph-name="F_i" unicode="Fi" horiz-adv-x="1029" 
d="M570 368l-2 -7l-2 -7l-3 -15q-2 -7 -3 -14l-2 -14q-2 -8 -2.5 -14.5t-1.5 -14.5t-1.5 -14.5t-0.5 -13.5v-14.5t1 -13.5q1 -14 6 -24q1 -4 5 -10t7 -8q3 -3 9 -6l11 -3h12q8 2 13 4q11 4 26 12q24 16 45 39q11 11 21 22t20 23l27 36l4 6l3 6q5 14 11 27t12 27t12 27t13 27
q7 16 13 28q2 3 3.5 6.5t3.5 6.5q3 8 7 13q5 10 15.5 13t19.5 -2t12.5 -14.5t-0.5 -18.5h-1l-11 -27l-12 -27l-23 -55l-22 -54t-21 -55l-5 -14q-4 -7 -5 -13q-2 -8 -5 -14.5t-5 -13.5q-5 -14 -8.5 -27.5t-7.5 -27.5l-3 -14l-3 -14q-2 -7 -3 -13.5t-2 -13.5q-2 -7 -2.5 -13.5
t-1.5 -13.5v-12t2 -12q2 -5 5 -9t8 -6q2 -2 5 -2l6 -2h12q14 3 25 10q4 2 12 8q4 2 12 8l21 20l20 22q10 11 19 22.5t18 23.5q9 11 17.5 23t17.5 25l32 49l31 51l29 52q4 8 11 3q8 -4 3 -11q-7 -14 -14 -26.5t-15 -25.5l-32 -51q-14 -24 -32 -50l-35 -49q-18 -23 -38 -47
q-20 -23 -43 -43l-12 -9l-13 -9q-4 -2 -7 -4t-7 -4l-8 -3l-8 -3l-8 -2h-18q-6 2 -9 2l-9 4l-9 6q-4 3 -7 6.5t-6 7.5q-2 5 -4 8.5t-4 8.5q-4 9 -5 17q-2 8 -3 16.5t-1 16.5v16t2 16q0 5 2 15l3 16q2 15 5.5 30t8.5 30l9 29l4 14l5 15q-11 -12 -21 -23.5t-21 -22.5l-22 -21
l-12 -11q-3 -2 -6 -5t-7 -5q-12 -9 -27 -18l-16 -6q-6 -2 -9 -2q-2 -1 -5 -1h-4q-5 -1 -9.5 -0.5t-9.5 1.5q-5 2 -9.5 3.5t-9.5 3.5q-9 6 -16 13q-3 4 -6 7.5t-5 7.5q-5 8 -8 17t-5 17t-2.5 16.5t-1.5 16.5q-0.666656 11.3333 -0.666656 22.2222q0 5.44446 0.166656 10.7778
q0.5 16 2.5 32l2 16t3 16q0 3 2 9l-4 -3q-7 -5 -13 -11l-11 -11q-12 -12 -23 -24t-22 -25l-21 -26q-5 -7 -10 -13.5t-10 -13.5l-38 -54l-18 -28l-18 -29l-34 -57l-15 -26q-9 -18 -18 -35.5t-19 -34.5l-11 -22q-2 -3 -5 -5l-26 -40l-24 -32l-26 -30l-14 -14l-15 -14l-16 -12
t-17 -11q-5 -3 -9 -5.5t-9 -4.5l-19 -7l-21 -4q-5 0 -10 -0.5q-1.66667 -0.166672 -3.33333 -0.166672l-6.66667 0.666672q-6 0 -6 6t6 6q19 0 36 6q5 2 9 3.5t8 3.5q9 5 16 10q13 9 28 24q12 12 24 29q13 16 21 31q5 8 9.5 16.5t9.5 16.5t9 16.5t8 17.5l16 35q8 17 15 34.5
t14 35.5l28 71q4 9 7 18t6 19q4 9 7 18l6 18q7 18 13 36t12 37l6 19q-5 2 -9.5 5.5t-9.5 6.5q-23 14 -43 31q-41 33 -71 77q-8 11 -14 22t-12 23q-11 22 -19 49q-7 23 -10 51q-2 14 -2.5 26.5t0.5 26.5q3 52 24 100q9 25 23 46t31 41q36 41 78 67q21 14 44 25t47 19
q50 17 100 21q13 1 25.5 1.5t25.5 -0.5q25 0 51 -3t51 -7.5t50 -9.5q13 -3 25 -6t24 -7t24 -7.5t24 -8.5q47 -17 91.5 -34t91.5 -28q11 -2 23 -3.5t24 -3.5q11 -1 23 -1h24q24 1 48 6q25 5 47 12q9 3 13 -6q0.75 -2 0.75 -3.75q0 -5.25 -6.75 -8.25q-23 -11 -48 -18
q-12 -3 -24.5 -6t-25.5 -5q-26 -5 -52 -6q-13 -2 -26 -1.5t-26 1.5q-54 3 -103 18q-12 4 -24.5 7.5t-23.5 8.5l-47 19q-11 5 -22.5 10.5t-22.5 11.5l-44 22q-11 5 -22.5 10t-22.5 10q-11 4 -23 7.5t-23 5.5q-24 6 -49 6q-12 1 -24 0.5t-25 -1.5q-12 -2 -24 -3.5t-24 -3.5
q-12 -3 -23.5 -6t-23.5 -7q-48 -17 -87 -43q-41 -28 -72 -64q-15 -18 -28 -39q-13 -22 -21 -43q-5 -11 -8 -23t-5 -23q-2 -12 -3.5 -24t-1.5 -24q-0.571426 -6.57141 -0.571426 -13.2245q0 -16.6326 3.57143 -33.7755q3 -22 11 -46q4 -11 9 -21.5t10 -21.5q6 -11 12.5 -20.5
t13.5 -18.5q30 -38 68 -65q18 -12 40 -25l12 -6l28 82l12 37l13 37q6 18 12.5 36.5t13.5 36.5l13 37l14 36q8 18 16 36.5t16 35.5l18 36l21 34q13 18 27 32q5 4 9 7.5t10 5.5q5 4 11 5q4 0 6 1h4q1 0 1.5 -0.5t1.5 -0.5q9 -2 7 -10q-1 -5 -8 -7h-1q-1 0 -2 -1q-2 0 -3 -1
q-4 -2 -6 -4l-6 -5q-1 -3 -5 -7l-9 -15l-9 -16l-15 -35l-6 -17q-2 -5 -3.5 -9t-3.5 -9l-12 -36q-4 -9 -6.5 -18t-5.5 -19l-12 -36l-12 -37q-6 -18 -12 -36.5t-11 -37.5l-24 -74q-11 -37 -23.5 -73.5t-25.5 -73.5l-27 -73l-13 -32l23 36l39 55q5 7 10 13.5t10 13.5l21 27
q11 13 22 25.5t22 25.5l25 23l13 11l8 6l3 2l2 2h1q10 11 25 8q10 -3 14.5 -11.5t2.5 -18.5zM1074 913q0 -14 -10.5 -24.5t-24.5 -10.5t-24.5 10.5t-10.5 24.5t10.5 24.5t24.5 10.5t24.5 -10.5t10.5 -24.5z" />
    <glyph glyph-name="F_j" unicode="Fj" horiz-adv-x="943" 
d="M570 368l-2 -7l-2 -7l-3 -15q-2 -7 -3 -14l-2 -14q-2 -8 -2.5 -14.5t-1.5 -14.5t-1.5 -14.5t-0.5 -13.5v-14.5t1 -13.5q1 -14 6 -24q1 -4 5 -10t7 -8q3 -3 9 -6l11 -3h12q8 2 13 4q11 4 26 12q24 16 45 39q11 11 21 22t20 23l27 36l4 6q1 2 2 3.5t2 3.5q0 1 1 1
q8 21 16.5 42t17.5 41l20 42q5 11 10.5 21t11.5 21q5 9 15 11.5t19 -2.5t12 -14.5t-2 -18.5q-5 -10 -9.5 -19.5t-9.5 -20.5t-9 -20.5t-8 -20.5q-9 -21 -16.5 -42t-15.5 -42q-15 -43 -29.5 -86t-29.5 -87q-8 -22 -15.5 -43t-15.5 -43l-17 -43l-18 -43q-16 -35 -33.5 -70
t-38.5 -69l12 15q15 19 29.5 38.5t28.5 39.5l28 39l27 41q13 20 26 40.5t26 41.5q13 20 25.5 41t24.5 42l50 83l25 42l13 21l13 20q5 9 13 3q9 -5 3 -13q-6 -10 -14 -20q-3 -5 -6 -10.5t-7 -10.5l-26 -40l-51 -83l-52 -83q-13 -20 -25.5 -41t-26.5 -41l-27 -40l-27 -41
q-14 -20 -28.5 -39t-29.5 -39q-8 -10 -15.5 -19.5t-15.5 -18.5q-8 -10 -16 -19l-16 -18q-32 -33 -66 -63q-9 -9 -18.5 -17.5t-19.5 -16.5q-19 -15 -38.5 -28t-39.5 -25q-20 -11 -41.5 -21t-43.5 -19q-44 -17 -88 -29q-22 -6 -44.5 -10.5t-45.5 -8.5q-44 -7 -91 -12
q-23 -2 -46 -3t-46 -3q-10 0 -10 10q-1 4 2 7t7 3h1q15.3333 -0.666656 30.4444 -0.666656q7.55556 0 15.0556 0.166656q22.5 0.5 45.5 2.5t45 4t45 7q22 4 44 9t43 12q22 8 43 16t41 18q40 19 77 46q18 13 34.5 27t33.5 29q16 16 30.5 32.5t28.5 33.5l6 8q3 3 7 9q4 5 7 9
t6 9q7 9 13 18l12 18q23 38 43 77.5t38 81.5l16 41q5 11 8.5 21.5t7.5 21.5q8 21 15.5 42t15.5 43l40 118l-2 -3q-11 -12 -21 -23.5t-21 -22.5l-22 -21l-12 -11q-3 -2 -6 -5t-7 -5q-12 -9 -27 -18l-16 -6q-6 -2 -9 -2q-2 -1 -5 -1h-4q-5 -1 -9.5 -0.5t-9.5 1.5
q-5 2 -9.5 3.5t-9.5 3.5q-9 6 -16 13q-3 4 -6 7.5t-5 7.5q-5 8 -8 17t-5 17t-2.5 16.5t-1.5 16.5q-0.666656 11.3333 -0.666656 22.2222q0 5.44446 0.166656 10.7778q0.5 16 2.5 32l2 16t3 16q0 3 2 9l-4 -3q-7 -5 -13 -11l-11 -11q-12 -12 -23 -24t-22 -25l-21 -26
q-5 -7 -10 -13.5t-10 -13.5l-38 -54l-18 -28l-18 -29l-34 -57q-5 -7 -8.5 -14t-7.5 -14q-9 -18 -18 -34.5t-18 -33.5l-11 -22q-2 -3 -5 -5l-26 -40l-24 -32l-26 -30l-14 -14l-15 -14l-16 -12t-17 -11q-5 -3 -9 -5.5t-9 -4.5l-19 -7l-21 -4q-5 0 -10 -0.5t-10 0.5q-6 0 -6 6
t6 6q19 0 36 6q5 2 9 3.5t8 3.5q9 5 16 10q13 9 28 24q12 12 24 29q13 16 21 31q5 8 9.5 16.5t9.5 16.5t9 16.5t8 17.5l16 35q8 17 15 34.5t14 35.5l28 71q4 9 7 18t6 19q4 9 7 18l6 18q7 18 13 36t12 37l6 19q-5 2 -9.5 5.5t-9.5 6.5q-23 14 -43 31q-41 33 -71 77
q-8 11 -14 22t-12 23q-11 22 -19 49q-7 23 -10 51q-2 14 -2.5 26.5t0.5 26.5q3 52 24 100q9 25 23 46t31 41q36 41 78 67q21 14 44 25t47 19q50 17 100 21q13 1 25.5 1.5t25.5 -0.5q25 0 51 -3t51 -7.5t50 -9.5q13 -3 25 -6t24 -7t24 -7.5t24 -8.5q47 -17 91.5 -34t91.5 -28
q11 -2 23 -3.5t24 -3.5q11 -1 23 -1h24q24 1 48 6q25 5 47 12q9 3 13 -6q0.75 -2 0.75 -3.75q0 -5.25 -6.75 -8.25q-23 -11 -48 -18q-12 -3 -24.5 -6t-25.5 -5q-26 -5 -52 -6q-13 -2 -26 -1.5t-26 1.5q-54 3 -103 18q-12 4 -24.5 7.5t-23.5 8.5l-47 19q-11 5 -22.5 10.5
t-22.5 11.5l-44 22q-11 5 -22.5 10t-22.5 10q-11 4 -23 7.5t-23 5.5q-24 6 -49 6q-12 1 -24 0.5t-25 -1.5q-12 -2 -24 -3.5t-24 -3.5q-12 -3 -23.5 -6t-23.5 -7q-48 -17 -87 -43q-41 -28 -72 -64q-15 -18 -28 -39q-13 -22 -21 -43q-5 -11 -8 -23t-5 -23q-2 -12 -3.5 -24
t-1.5 -24q-0.571426 -6.57141 -0.571426 -13.2245q0 -16.6326 3.57143 -33.7755q3 -22 11 -46q4 -11 9 -21.5t10 -21.5q6 -11 12.5 -20.5t13.5 -18.5q30 -38 68 -65q18 -12 40 -25l12 -6l28 82l12 37l13 37q6 18 12.5 36.5t13.5 36.5l13 37l14 36q8 18 16 36.5t16 35.5
l18 36l21 34q13 18 27 32q5 4 9 7.5t10 5.5q5 4 11 5q4 0 6 1h4q1 0 1.5 -0.5t1.5 -0.5q9 -2 7 -10q-1 -5 -8 -7h-1q-1 0 -2 -1q-2 0 -3 -1q-4 -2 -6 -4l-6 -5q-1 -3 -5 -7l-9 -15l-9 -16l-15 -35l-6 -17q-2 -5 -3.5 -9t-3.5 -9l-12 -36q-4 -9 -6.5 -18t-5.5 -19l-12 -36
l-12 -37q-6 -18 -12 -36.5t-11 -37.5l-24 -74q-11 -37 -23.5 -73.5t-25.5 -73.5l-27 -73l-13 -32l23 36l39 55q5 7 10 13.5t10 13.5l21 27q11 13 22 25.5t22 25.5l25 23l13 11l8 6l3 2l2 2h1q10 11 25 8q10 -3 14.5 -11.5t2.5 -18.5zM1062 906q0 -14 -10.5 -24.5
t-24.5 -10.5t-24.5 10.5t-10.5 24.5t10.5 24.5t24.5 10.5t24.5 -10.5t10.5 -24.5z" />
    <glyph glyph-name="T_i" unicode="Ti" horiz-adv-x="979" 
d="M103 -129q40 3 73 16q9 4 17.5 8t16.5 9q17 10 29 21q14 12 26.5 26t23.5 28l21 30l20 32q19 35 33 67q8 17 15 35l14 36q13 36 25 72.5t23 73.5q6 19 14.5 48t18 60.5t19 60.5t15.5 47q6 19 12.5 37.5t13.5 37.5q8 18 15.5 36.5t15.5 36.5q18 37 40 71q6 8 12.5 16.5
t13.5 16.5l12 13l-149 33q-38 8 -75 14.5t-75 11.5l-38 3l-37 2q-10 0 -19 -0.5t-18 -0.5l-37 -3q-17 -2 -34.5 -6t-34.5 -10q-9 -3 -17.5 -6.5t-16.5 -7.5l-16 -10l-16 -10q-6 -4 -8 2q-1.8 1.79999 -1.8 3.59998q0 1.20001 0.799999 2.40002q10 18 25 33.5t33 26.5
q9 5 18.5 10t19.5 9q20 8 40 12q11 2 20.5 3t20.5 2t21 1.5t20 0.5q40 -2 81 -6q20 -3 39 -6t39 -8q20 -4 39 -8t38 -9q38 -10 75.5 -20.5t75.5 -21.5q10 -4 23 -7l18 9q5 3 9.5 5t9.5 4l10 3l5 2l5 1q20 5 39 9.5t39 7.5q39 6 79 6q11 -1 20.5 -1t19.5 -2t20 -3.5t20 -4.5
q5 -2 9.5 -3.5t9.5 -3.5t9 -4.5t9 -5.5q11 -7 17 -16q4 -6 5 -12q1 -3.5 1 -6.75t-1 -6.25q-1 -5 -5 -13l-9 -8q-10 -8 -19 -11q-17 -8 -40 -11q-10 -2 -19.5 -2.5t-20.5 -1.5h-10l-5 -1h-5h-10t-10 1q-20 1 -39.5 3t-39.5 5t-39 6.5t-38 7.5q-9 2 -18 3.5t-17 3.5l-2 -2
q-23 -25 -42 -59q-18 -32 -32 -67q-15 -35 -28 -70.5t-24 -73.5l-65 -215q-12 -38 -25 -75t-27 -74t-31.5 -73t-38.5 -71q-5 -9 -11 -17.5t-12 -16.5q-12 -16 -26 -32q-14 -15 -30.5 -28t-33.5 -24q-18 -11 -37 -18.5t-39 -12.5q-21 -5 -40 -6q-11 -1 -20.5 -1h-19.5v1
q-7 0 -5 5q0 5 5 5zM833 463l-11 -27l-12 -27l-23 -55l-22 -54t-21 -55l-5 -14q-4 -7 -5 -13q-2 -8 -5 -14.5t-5 -13.5q-5 -14 -8.5 -27.5t-7.5 -27.5l-3 -14l-3 -14q-2 -7 -3 -13.5t-2 -13.5q-2 -7 -2.5 -13.5t-1.5 -13.5v-12t2 -12q2 -5 5 -9t8 -6q2 -2 5 -2l6 -2h12
q14 3 25 10q4 2 12 8q4 2 12 8l21 20l20 22q10 11 19 22.5t18 23.5q9 11 17.5 23t17.5 25l32 49l31 51l29 52q4 8 11 3q8 -4 3 -11q-7 -14 -14 -26.5t-15 -25.5l-32 -51q-14 -24 -32 -50l-35 -49q-18 -23 -38 -47q-20 -23 -43 -43l-12 -9l-13 -9q-4 -2 -7 -4t-7 -4l-8 -3
l-8 -3l-8 -2h-18q-6 2 -9 2l-9 4l-9 6q-4 3 -7 6.5t-6 7.5q-2 5 -4 8.5t-4 8.5q-4 9 -5 17q-2 8 -3 16.5t-1 16.5v16t2 16q0 5 2 15l3 16q2 15 5.5 30t8.5 30l9 29l4 14l5 15q10 29 21 57t23 56q6 14 12 27t13 27q7 16 13 28q2 3 3.5 6.5t3.5 6.5q3 8 7 13q5 10 15.5 13
t19.5 -2t12.5 -14.5t-0.5 -18.5h-1zM804 803l38 -7q10 -2 19 -3t19 -2q5 0 9.5 -0.5t9.5 -0.5h9q3 -1 10 -1q9 0 18.5 0.5t18.5 1.5q10 2 19 3.5t17 5.5q4 2 8 3.5t7 3.5l5 5l3 6v5l-3 6q-5 6 -12 12q-6 4 -15 8l-17 7q-9 3 -18 4.5t-19 3.5q-9 1 -18.5 1.5t-19.5 0.5
q-39 0 -75 -9q-37 -7 -73 -23l-4 -2l-3 -1l-2 -1l-8 -4l-5 -3q20 -5 40.5 -10t41.5 -10zM1031 944q0 -14 -10.5 -24.5t-24.5 -10.5t-24.5 10.5t-10.5 24.5t10.5 24.5t24.5 10.5t24.5 -10.5t10.5 -24.5z" />
    <glyph glyph-name="T_j" unicode="Tj" horiz-adv-x="893" 
d="M103 -129q40 3 73 16q9 4 17.5 8t16.5 9q17 10 29 21q14 12 26.5 26t23.5 28l21 30l20 32q19 35 33 67q8 17 15 35l14 36q13 36 25 72.5t23 73.5q6 19 14.5 48t18 60.5t19 60.5t15.5 47q6 19 12.5 37.5t13.5 37.5q8 18 15.5 36.5t15.5 36.5q18 37 40 71q6 8 12.5 16.5
t13.5 16.5l12 13l-149 33q-38 8 -75 14.5t-75 11.5l-38 3l-37 2q-10 0 -19 -0.5t-18 -0.5l-37 -3q-17 -2 -34.5 -6t-34.5 -10q-9 -3 -17.5 -6.5t-16.5 -7.5l-16 -10l-16 -10q-6 -4 -8 2q-3 3 -1 6q10 18 25 33.5t33 26.5q9 5 18.5 10t19.5 9q20 8 40 12q11 2 20.5 3t20.5 2
t21 1.5t20 0.5q40 -2 81 -6q20 -3 39 -6t39 -8q20 -4 39 -8t38 -9q38 -10 75.5 -20.5t75.5 -21.5q10 -4 23 -7l18 9q5 3 9.5 5t9.5 4l10 3l5 2l5 1q20 5 39 9.5t39 7.5q39 6 79 6q11 -1 20.5 -1t19.5 -2t20 -3.5t20 -4.5q5 -2 9.5 -3.5t9.5 -3.5t9 -4.5t9 -5.5q11 -7 17 -16
q4 -6 5 -12q1 -3.5 1 -6.75t-1 -6.25q-1 -5 -5 -13l-9 -8q-10 -8 -19 -11q-17 -8 -40 -11q-10 -2 -19.5 -2.5t-20.5 -1.5h-10l-5 -1h-5h-10t-10 1q-20 1 -39.5 3t-39.5 5t-39 6.5t-38 7.5q-9 2 -18 3.5t-17 3.5l-2 -2q-23 -25 -42 -59q-18 -32 -32 -67q-15 -35 -28 -70.5
t-24 -73.5l-65 -215q-12 -38 -25 -75t-27 -74t-31.5 -73t-38.5 -71q-5 -9 -11 -17.5t-12 -16.5q-12 -16 -26 -32q-14 -15 -30.5 -28t-33.5 -24q-18 -11 -37 -18.5t-39 -12.5q-21 -5 -40 -6q-11 -1 -20.5 -1h-19.5v1q-7 0 -5 5q0 5 5 5zM-98 -486
q15.3333 -0.666656 30.4444 -0.666656q7.55555 0 15.0556 0.166656q22.5 0.5 45.5 2.5t45 4t45 7q22 4 44 9t43 12q22 8 43 16t41 18q40 19 77 46q18 13 34.5 27t33.5 29q16 16 30.5 32.5t28.5 33.5l6 8q3 3 7 9q4 5 7 9t6 9q7 9 13 18l12 18q23 38 43 77.5t38 81.5l16 41
q5 11 8.5 21.5t7.5 21.5q8 21 15.5 42t15.5 43q15 43 29.5 86t30.5 87q8 22 17 43.5t18 42.5l20 42q5 11 10.5 21t11.5 21q5 9 15 11.5t19 -2.5t12 -14.5t-2 -18.5q-5 -10 -9.5 -19.5t-9.5 -20.5t-9 -20.5t-8 -20.5q-9 -21 -16.5 -42t-15.5 -42q-15 -43 -29.5 -86t-29.5 -87
q-8 -22 -15.5 -43t-15.5 -43l-17 -43l-18 -43q-16 -35 -33.5 -70t-38.5 -69l12 15q15 19 29.5 38.5t28.5 39.5l28 39l27 41q13 20 26 40.5t26 41.5q13 20 25.5 41t24.5 42l50 83l25 42l13 21l13 20q5 9 13 3q9 -5 3 -13q-6 -10 -14 -20q-3 -5 -6 -10.5t-7 -10.5l-26 -40
l-51 -83l-52 -83q-13 -20 -25.5 -41t-26.5 -41l-27 -40l-27 -41q-14 -20 -28.5 -39t-29.5 -39q-8 -10 -15.5 -19.5t-15.5 -18.5q-8 -10 -16 -19l-16 -18q-32 -33 -66 -63q-9 -9 -18.5 -17.5t-19.5 -16.5q-19 -15 -38.5 -28t-39.5 -25q-20 -11 -41.5 -21t-43.5 -19
q-44 -17 -88 -29q-22 -6 -44.5 -10.5t-45.5 -8.5t-45.5 -7t-45.5 -5t-46 -3t-46 -3q-10 0 -10 10q-1 4 2 7t7 3h1zM804 803l38 -7q10 -2 19 -3t19 -2q5 0 9.5 -0.5t9.5 -0.5h9q3 -1 10 -1q9 0 18.5 0.5t18.5 1.5q10 2 19 3.5t17 5.5q4 2 8 3.5t7 3.5l5 5l3 6v5l-3 6
q-5 6 -12 12q-6 4 -15 8l-17 7q-9 3 -18 4.5t-19 3.5q-9 1 -18.5 1.5t-19.5 0.5q-39 0 -75 -9q-37 -7 -73 -23l-4 -2l-3 -1l-2 -1l-8 -4l-5 -3q20 -5 40.5 -10t41.5 -10zM1021 950q0 -14 -10.5 -24.5t-24.5 -10.5t-24.5 10.5t-10.5 24.5t10.5 24.5t24.5 10.5t24.5 -10.5
t10.5 -24.5z" />
    <glyph glyph-name="t_t" unicode="tt" horiz-adv-x="558" 
d="M572 1193h8q3 0 9 -2q10 -2 16 -9q7 -5 10 -15q2 -4 3 -7.5t2 -7.5q2 -4 2 -7.5t1 -7.5v-15v-14.5t-2 -14.5q-3 -29 -9 -55l-6 -26l-8 -27q-8 -26 -16 -51.5t-18 -51.5q-9 -26 -18.5 -51t-19.5 -51l-41 -100l-20 -49l-6 -15l24 -3q20 -4 39.5 -6t39.5 -2q11 -1 20.5 -0.5
t19.5 1.5q11 1 21 2t19 3q10 2 19 4.5t18 5.5t17 7t16 9q13 9 25 21q5 7 8 12.5t5 12.5q2 6 0 13q0 6 -3 12q-3 10 -15 21q-13 10 -26 15q-9 4 -16 5q-5 1 -9 2t-9 2q-9 2 -13.5 7.5t-1.5 13.5t12 11.5t19 1.5h2q11 -4 21 -8t19 -8q9 -5 18 -10.5t15 -13.5q15 -15 18 -30
q3 -9.5 3 -18.5t-3 -17.5q-5 -18 -20 -33t-33 -26q-18 -10 -40 -16q-11 -4 -21.5 -6.5t-21.5 -4.5q-10 -2 -21 -3l-22 -2h-21.5t-21.5 -1q-21 2 -41 4t-40 6q-7 1 -13 1.5t-12 2.5l-9 -22q-20 -50 -40.5 -99t-40.5 -100q-10 -25 -19.5 -49.5t-17.5 -49.5q-9 -26 -17 -50.5
t-16 -50.5l-12 -50q-4 -25 -6 -50q0 -6 -0.5 -11.5t0.5 -11.5v-10t2 -10q1 -10 7 -17q3 -4 8 -5q4 -2 10 -4q1 0 2 -0.5t3 -0.5h5q3 0 5.5 0.5t5.5 1.5q9 3 21 11q5 3 10.5 7t10.5 9q5 4 9 8.5t9 9.5q9 10 17.5 20t16.5 21q5 5 8.5 10.5t7.5 10.5q8 10 16 22l30 44t29 45
l27 46q7 11 13.5 23t12.5 24q5 8 14 4q8 -5 4 -14l-27 -47q-7 -11 -13.5 -23t-14.5 -23q-14 -23 -28.5 -45.5t-30.5 -45.5q-16 -22 -32.5 -43.5t-35.5 -41.5l-20 -19q-5 -5 -10.5 -9.5t-10.5 -8.5l-12 -9l-13 -7q-6 -2 -16 -4q-1 0 -2 -1h-14q-6 0 -16 2t-17 6q-8 4 -15 12
q-7 6 -11 14l-4 7l-3 8q-4 9 -5 16q-3 15 -3 30q0 8 0.5 15t0.5 15l4 28q2 14 5 27.5t6 27.5l9 33l-5 -7q-14 -23 -28.5 -45.5t-30.5 -45.5q-16 -22 -32.5 -43.5t-35.5 -41.5l-20 -19q-5 -5 -10.5 -9.5t-10.5 -8.5l-12 -9l-13 -7q-6 -2 -16 -4q-1 0 -2 -1h-14q-6 0 -16 2
t-17 6q-8 4 -15 12q-7 6 -11 14l-4 7l-3 8q-4 9 -5 16q-3 15 -3 30q0 8 0.5 15t0.5 15l4 28q2 14 5 27.5t6 27.5q14 54 31 105.5t36 102.5t39.5 100.5t41.5 99.5l21 50l17 39q-11 2 -23 3.5t-23 2.5q-20 2 -40 3.5t-40 1.5q-21 -2 -41 -3.5t-40 -6.5q-10 -2 -19.5 -4
t-19.5 -6q-18 -6 -36 -16q-3 -2 -7.5 -4t-7.5 -5q-5 -3 -8.5 -5.5t-6.5 -5.5l-11 -12q-2 -3 -4.5 -6t-4.5 -7q-3 -7 -5 -13t-1 -13q0 -13 9 -22q5 -5 3 -11t-10 -9q-7 -4 -14.5 -3.5t-11.5 5.5l-3 4v1q-4.89999 10.5 -4.89999 23.94q0 5.76001 0.899994 12.06q2 8 6 16
t10 16q3 5 6.5 8t6.5 7l14 13q5 2 9 5.5t9 6.5q5 2 8.5 4t8.5 5q41 19 80 25q22 5 43.5 6.5t42.5 2.5q20 0 41 -1t41 -3l47 -8l1 2l84 198q10 24 20 48.5t19 49.5l9 25l9 25l14 50q2 6 3 12.5t2 12.5t1.5 12t-0.5 12q0 11 -5 19q-2 4 -6 5l-4 2h-3l-1 1h-2q-8 0 -8 10
q2 6 8 8h8q3 0 9 -2q10 -2 16 -9q7 -5 10 -15q2 -4 3 -7.5t2 -7.5q2 -4 2 -7.5t1 -7.5v-15v-14.5t-2 -14.5q-3 -29 -9 -55l-6 -26l-8 -27q-8 -26 -16 -51.5t-18 -51.5q-9 -26 -18.5 -51t-19.5 -51q-9 -23 -18.5 -45.5t-18.5 -45.5q13 -3 25.5 -6t25.5 -7l74 -24
q15 -6 31.5 -11.5t33.5 -10.5q2 6 4.5 12t5.5 12l22 49l84 198q10 24 20 48.5t19 49.5l9 25l9 25l14 50q2 6 3 12.5t2 12.5t1.5 12t-0.5 12q0 11 -5 19q-2 4 -6 5l-4 2h-3l-1 1h-2q-8 0 -8 10q2 6 8 8zM186 631l-21 -50q-20 -50 -40.5 -99t-40.5 -100q-10 -25 -19.5 -49.5
t-17.5 -49.5q-9 -26 -17 -50.5t-16 -50.5l-12 -50q-4 -25 -6 -50l-0.666667 -15.2222q0 -3.77778 0.666667 -7.77778v-10t2 -10q1 -10 7 -17q3 -4 8 -5q4 -2 10 -4q1 0 2 -0.5t3 -0.5h5q3 0 5.5 0.5t5.5 1.5q9 3 21 11q5 3 10.5 7t10.5 9q5 4 9 8.5t9 9.5q9 10 17.5 20
t16.5 21q5 5 8.5 10.5t7.5 10.5q8 10 16 22l30 44t29 45l27 46q5 8 9.5 16.5t9.5 17.5l33 92q19 51 39.5 100.5t41.5 99.5l6 15q-18 5 -35 10t-33 13q-17 7 -35 13t-37 12l-49 13z" />
    <glyph glyph-name="f_t" unicode="ft" horiz-adv-x="522" 
d="M536 1193h8q3 0 9 -2q10 -2 16 -9q7 -5 10 -15q2 -4 3 -7.5t2 -7.5q2 -4 2 -7.5t1 -7.5v-15v-14.5t-2 -14.5q-3 -29 -9 -55l-6 -26l-8 -27q-8 -26 -16 -51.5t-18 -51.5q-9 -26 -18.5 -51t-19.5 -51l-41 -100l-4 -9l22 -15q13 -10 27 -19l28 -18q30 -17 59 -29
q32 -14 62 -20q8 -2 16 -3l16 -2q8.5 -1 16.5 -1t15.5 1q8 1 15.5 2t15.5 3t15 5t13 8q7 4 12 9l10 10q11 14 13 25q2 4 2 7.5v6.5q1 4 0.5 7t-1.5 7q-1 13 -10 25q-4 6 -9 11l-10 10q-8 6 -12 8l-14 7q-7 3 -10 10t1 15q3 8 10 10.5t15 -0.5q1 0 1 -0.5t1 -0.5
q15 -9 30 -23q7 -7 13 -14.5t11 -16.5q9 -17 11 -37q1.14288 -5.71429 1.14288 -11.4286q0 -4.28571 -0.642883 -8.57141q-1.5 -10 -4.5 -19q-7 -20 -20 -33q-12 -14 -29 -23q-15 -8 -34 -13q-8 -2 -17 -3l-18 -2h-17t-18 1l-34 6q-17 5 -32.5 10.5t-31.5 12.5t-31 15
t-29 17t-28 18.5t-27 20.5q-5 3 -9.5 6.5t-9.5 6.5l-12 -29l-21 -50q-20 -50 -40.5 -99t-40.5 -100q-10 -25 -19.5 -49.5t-17.5 -49.5q-9 -26 -17 -50.5t-16 -50.5l-12 -50q-4 -25 -6 -50q0 -6 -0.5 -11.5t0.5 -11.5v-10t2 -10q1 -10 7 -17q3 -4 8 -5q4 -2 10 -4q1 0 2 -0.5
t3 -0.5h5q3 0 5.5 0.5t5.5 1.5q9 3 21 11q5 3 10.5 7t10.5 9q5 4 9 8.5t9 9.5q9 10 17.5 20t16.5 21q5 5 8.5 10.5t7.5 10.5q8 10 16 22l30 44t29 45l27 46q7 11 13.5 23t12.5 24q5 8 14 4q8 -5 4 -14l-27 -47q-7 -11 -13.5 -23t-14.5 -23q-14 -23 -28.5 -45.5t-30.5 -45.5
q-16 -22 -32.5 -43.5t-35.5 -41.5l-20 -19q-5 -5 -10.5 -9.5t-10.5 -8.5l-12 -9l-13 -7q-6 -2 -16 -4q-1 0 -2 -1h-14q-6 0 -16 2t-17 6q-8 4 -15 12q-7 6 -11 14l-4 7l-3 8q-4 9 -5 16q-3 15 -3 30q0 8 0.5 15t0.5 15l4 28q2 14 5 27.5t6 27.5l5 21q-9 -16 -24 -34
q-13 -17 -27 -29q-8 -6 -16 -11.5t-17 -10.5q-11 -5 -21 -6q-2 0 -5 -0.5t-6 0.5h-6l-6 2q-6 3 -10 7q-4 2 -8 9q-5 8 -7 20q-2 5 -2.5 9.5t-1.5 9.5q0 5 -0.5 10t-0.5 10q0 10 0.5 19.5t1.5 18.5q2 20 4.5 38.5t5.5 37.5q0 3 2 9q-10 -26 -19 -51t-19 -50q-24 -63 -51 -126
q-7 -16 -13.5 -31.5t-14.5 -31.5l-28 -62q-15 -31 -30.5 -61.5t-32.5 -60.5t-35 -59t-38 -57q-20 -29 -41.5 -55.5t-45.5 -52.5q-11 -13 -23.5 -25t-25.5 -24q-13 -11 -26.5 -22t-27.5 -21q-14 -11 -28.5 -20t-29.5 -17q-16 -8 -31.5 -15.5t-31.5 -13.5q-8 -2 -16.5 -5
t-17.5 -5l-33 -7q-9 -2 -17.5 -2.5t-17.5 -1.5q-8 -1 -17 -1h-17q-6 0 -6 6t6 6q35 0 66 7l16 4l16 4t16 5l16 6q62 26 113 69q25 21 48 45q23 25 44 50q11 13 20.5 26t18.5 27l37 56q17 29 33 58t32 59q15 30 29.5 60t28.5 61q16 32 27 61q7 16 13.5 31t12.5 31
q13 32 25 63t24 63q48 127 92.5 254t92.5 255l24 64l13 32l13 31q14 32 28 63t30 61l17 31l18 29q17 28 41 57l24 26q7 6 14 11.5t15 10.5q7 5 16 10l17 7q5 2 9 2.5t9 1.5h10q1 1 4 1q1 0 1.5 -0.5t1.5 -0.5h2q8 0 8 -9q0 -6 -8 -8q-16 -1 -29.5 -7.5t-25.5 -16.5
q-6 -5 -12 -10.5t-11 -11.5t-10 -12.5t-10 -13.5q-17 -24 -33 -56q-5 -7 -8.5 -14l-7.5 -15q-3 -8 -6.5 -15l-7.5 -15l-13 -31q-6 -13 -13 -31l-25 -62q-2 -8 -5 -16l-6 -16l-12 -31l-23 -64l-22 -64l-22 -64l-21 -64l-22 -64l-16 -45l-6 -24t-5 -25q-9 -37 -15 -73
q-3 -19 -5.5 -37t-3.5 -37q-1 -9 -1.5 -18.5t-0.5 -18.5l2 -18t3 -17q1 -9 6 -15q3 -7 10 -9q0 -1 1 -1h2h11q5 1 15 5q8 4 15 9t14 11q12 11 24 26q23 31 41 62q4 8 8 16.5t9 16.5l7 17l4 8q0 1 1 2q8 23 15.5 44.5t15.5 43.5q19 51 39.5 100.5t41.5 99.5l21 50l17 39
q-11 7 -22 13l-22 12q-28 15 -60 26q-13 5 -11 10t14 0q17 -6 32 -12.5t30 -14.5l44 -24l84 198q10 24 20 48.5t19 49.5l9 25l9 25l14 50q2 6 3 12.5t2 12.5t1.5 12t-0.5 12q0 11 -5 19q-2 4 -6 5l-4 2h-3l-1 1h-2q-8 0 -8 10q2 6 8 8z" />
    <glyph glyph-name="t_f" unicode="tf" horiz-adv-x="522" 
d="M327 569q-7 4 -23 15t-33 23t-32.5 23.5t-21.5 16.5q-5 3 -9.5 6.5t-9.5 6.5l-12 -29l-21 -50q-20 -50 -40.5 -99t-40.5 -100q-10 -25 -19.5 -49.5t-17.5 -49.5q-9 -26 -17 -50.5t-16 -50.5l-12 -50q-4 -25 -6 -50q0 -6 -0.5 -11.5t0.5 -11.5v-10t2 -10q1 -10 7 -17
q3 -4 8 -5q4 -2 10 -4q1 0 2 -0.5t3 -0.5h5q3 0 5.5 0.5t5.5 1.5q9 3 21 11q5 3 10.5 7t10.5 9q5 4 9 8.5t9 9.5q9 10 17.5 20t16.5 21q5 5 8.5 10.5t7.5 10.5q8 10 16 22l30 44t29 45l27 46q7 11 13.5 23t12.5 24q0 1 1 1q39 107 76.5 214t78.5 215l24 64l13 32l13 31
q14 32 28 63t30 61l17 31l18 29q17 28 41 57l24 26q7 6 14 11.5t15 10.5q7 5 16 10l17 7q5 2 9 2.5t9 1.5h10q1 1 4 1q1 0 1.5 -0.5t1.5 -0.5h2q8 0 8 -9q0 -6 -8 -8q-16 -1 -29.5 -7.5t-25.5 -16.5q-6 -5 -12 -10.5t-11 -11.5t-10 -12.5t-10 -13.5q-17 -24 -33 -56
q-5 -7 -8.5 -14l-7.5 -15q-3 -8 -6.5 -15l-7.5 -15l-13 -31q-6 -13 -13 -31l-25 -62q-2 -8 -5 -16l-6 -16l-12 -31l-23 -64l-22 -64l-22 -64l-21 -64l-22 -64l-16 -45l-6 -24t-5 -25q-9 -37 -15 -73q-3 -19 -5.5 -37t-3.5 -37q-1 -9 -1.5 -18.5t-0.5 -18.5l2 -18t3 -17
q1 -9 6 -15q3 -7 10 -9q0 -1 1 -1h2h11q5 1 15 5q8 4 15 9t14 11q12 11 24 26q23 31 41 62q4 8 8 16.5t9 16.5l7 17l4 8l4 9q4 10 13 5q8 -3 5 -13q-2 -6 -4 -9l-4 -8q-3 -8 -8 -17t-9 -17.5t-9 -16.5q-9 -17 -19.5 -33t-22.5 -31q-13 -17 -27 -29q-8 -6 -16 -11.5
t-17 -10.5q-11 -5 -21 -6q-2 0 -5 -0.5t-6 0.5h-6l-6 2q-6 3 -10 7q-4 2 -8 9q-5 8 -7 20q-2 5 -2.5 9.5t-1.5 9.5q0 5 -0.5 10t-0.5 10q0 10 0.5 19.5t1.5 18.5q2 20 4.5 38.5t5.5 37.5q0 3 2 9q-10 -26 -19 -51t-19 -50q-24 -63 -51 -126q-7 -16 -13.5 -31.5t-14.5 -31.5
l-28 -62q-15 -31 -30.5 -61.5t-32.5 -60.5t-35 -59t-38 -57q-20 -29 -41.5 -55.5t-45.5 -52.5q-11 -13 -23.5 -25t-25.5 -24q-13 -11 -26.5 -22t-27.5 -21q-14 -11 -28.5 -20t-29.5 -17q-16 -8 -31.5 -15.5t-31.5 -13.5q-8 -2 -16.5 -5t-17.5 -5l-33 -7q-9 -2 -17.5 -2.5
t-17.5 -1.5q-8 -1 -17 -1h-17q-6 0 -6 6t6 6q35 0 66 7l16 4l16 4t16 5l16 6q62 26 113 69q25 21 48 45q23 25 44 50q11 13 20.5 26t18.5 27l37 56q17 29 33 58t32 59q15 30 29.5 60t28.5 61q16 32 27 61q7 16 13.5 31t12.5 31l38 97q-14 -23 -27.5 -44t-28.5 -42
q-16 -22 -32.5 -43.5t-35.5 -41.5l-20 -19q-5 -5 -10.5 -9.5t-10.5 -8.5l-12 -9l-13 -7q-6 -2 -16 -4q-1 0 -2 -1h-14q-6 0 -16 2t-17 6q-8 4 -15 12q-7 6 -11 14l-4 7l-3 8q-4 9 -5 16q-3 15 -3 30q0 8 0.5 15t0.5 15l4 28q2 14 5 27.5t6 27.5q14 54 31 105.5t36 102.5
t39.5 100.5t41.5 99.5l21 50l17 39q-11 7 -22 13l-22 12q-28 15 -60 26q-34 11 -64 17q-21.875 3.125 -42.1875 3.125q-12.1875 0 -23.8125 -1.125l-16 -2t-16 -3q-15 -5 -30 -12l-13 -8q-8 -5 -13 -10l-10 -11l-9 -13q-7 -15 -8 -28t5 -26q7 -14 -7 -21q-6 -3 -12.5 -1
t-8.5 8q-2 2 -2 4v1q-1.77777 8 -1.77777 16.7901q0 10.9877 2.77777 23.2099q4 17 16 34l12 14l13 12l15 10l15 8q17 7 33.5 11t33.5 5q9.71429 1.14288 19.5918 1.14288q7.40816 0 14.9082 -0.642883q17.5 -1.5 34.5 -4.5q31 -6 65 -17q34 -13 62 -27l44 -24l84 198
q10 24 20 48.5t19 49.5l9 25l9 25l14 50q2 6 3 12.5t2 12.5t1.5 12t-0.5 12q0 11 -5 19q-2 4 -6 5l-4 2h-3l-1 1h-2q-8 0 -8 10q2 6 8 8h8q3 0 9 -2q10 -2 16 -9q7 -5 10 -15q2 -4 3 -7.5t2 -7.5q2 -4 2 -7.5t1 -7.5v-15v-14.5t-2 -14.5q-3 -29 -9 -55l-6 -26l-8 -27
q-8 -26 -16 -51.5t-18 -51.5q-9 -26 -18.5 -51t-19.5 -51l-41 -100l-4 -9l22 -15q6 -5 21.5 -15.5t32.5 -22.5t33 -23t23 -15z" />
    <glyph glyph-name="l_t" unicode="lt" horiz-adv-x="579" 
d="M593 1193h8q3 0 9 -2q10 -2 16 -9q7 -5 10 -15q2 -4 3 -7.5t2 -7.5q2 -4 2 -7.5t1 -7.5v-15v-14.5t-2 -14.5q-3 -29 -9 -55l-6 -26l-8 -27q-8 -26 -16 -51.5t-18 -51.5q-9 -26 -18.5 -51t-19.5 -51l-41 -100l-3 -8l24 -16q13 -10 27 -19l28 -18q30 -17 59 -29
q32 -14 62 -20q8 -2 16 -3l16 -2q8.5 -1 16.5 -1t15.5 1q8 1 15.5 2t15.5 3t15 5t13 8q7 4 12 9l10 10q11 14 13 25q2 4 2 7.5v6.5q1 4 0.5 7t-1.5 7q-1 13 -10 25q-4 6 -9 11l-10 10q-8 6 -12 8l-14 7q-7 3 -10 10t1 15q3 8 10 10.5t15 -0.5q1 0 1 -0.5t1 -0.5
q15 -9 30 -23q7 -7 13 -14.5t11 -16.5q9 -17 11 -37q1.14288 -5.71429 1.14288 -11.4286q0 -4.28571 -0.642883 -8.57141q-1.5 -10 -4.5 -19q-7 -20 -20 -33q-12 -14 -29 -23q-15 -8 -34 -13q-8 -2 -17 -3l-18 -2h-17t-18 1l-34 6q-17 5 -32.5 10.5t-31.5 12.5t-31 15
t-29 17t-28 18.5t-27 20.5l-21 15l-13 -31l-21 -50q-20 -50 -40.5 -99t-40.5 -100q-10 -25 -19.5 -49.5t-17.5 -49.5q-9 -26 -17 -50.5t-16 -50.5l-12 -50q-4 -25 -6 -50q0 -6 -0.5 -11.5t0.5 -11.5v-10t2 -10q1 -10 7 -17q3 -4 8 -5q4 -2 10 -4q1 0 2 -0.5t3 -0.5h5
q3 0 5.5 0.5t5.5 1.5q9 3 21 11q5 3 10.5 7t10.5 9q5 4 9 8.5t9 9.5q9 10 17.5 20t16.5 21q5 5 8.5 10.5t7.5 10.5q8 10 16 22l30 44t29 45l27 46q7 11 13.5 23t12.5 24q5 8 14 4q8 -5 4 -14l-27 -47q-7 -11 -13.5 -23t-14.5 -23q-14 -23 -28.5 -45.5t-30.5 -45.5
q-16 -22 -32.5 -43.5t-35.5 -41.5l-20 -19q-5 -5 -10.5 -9.5t-10.5 -8.5l-12 -9l-13 -7q-6 -2 -16 -4q-1 0 -2 -1h-14q-6 0 -16 2t-17 6q-8 4 -15 12q-7 6 -11 14l-4 7l-3 8q-4 9 -5 16q-3 15 -3 30q0 8 0.5 15t0.5 15l4 28q2 14 5 27.5t6 27.5q1 4 1.5 8t2.5 8l-27 -48
l-23 -37l-25 -35l-27 -35q-7 -8 -14 -16.5t-15 -16.5l-17 -15q-9 -8 -20 -13q-12 -7 -24 -8q-1 -1 -2 -1h-11q-4 1 -7 1t-7 2q-11 2 -25 13q-11 9 -17 20q-7 10 -12 23q-2 5 -3.5 11t-3.5 12t-3 11.5t-2 11.5t-1.5 11.5t-0.5 11.5q-1 11 -1 22.25t1 22.75q1 23 3.5 44.5
t5.5 43.5t7 43.5t9 43.5q9 42 21 84q11 42 23.5 83.5t26.5 83.5q14 41 29.5 81t32.5 81q34 82 72 158q20 39 41 77t45 75q6 9 12 18.5t13 18.5q14 18 28 34l16 17l17 15q4 4 8.5 7.5t9.5 7.5l21 12q10 6 24 9q4 1 14 1h6q4 0 7 -1q6 0 12 -3q5 -1 13 -5q8 -6 11 -10
q5 -5 7 -14q2 -3 2 -6.5t1 -6.5q0 -8 -1 -12q-1 -7 -2 -12.5t-3 -10.5q-3 -11 -7 -21t-9 -21q-9 -20 -20 -38.5t-22 -37.5t-22.5 -37t-22.5 -36q-23 -37 -47 -73t-48 -71q-24 -36 -48 -71.5t-47 -71.5l-46 -72t-45 -73q-11 -17 -20 -33t-19 -33l-6 -24q-11 -42 -20.5 -82.5
t-17.5 -82.5q-3 -20 -5.5 -41t-4.5 -41q-1 -11 -1.5 -20.5t-0.5 -20.5q-1 -10 -1 -19.75t1 -19.25q0 -5 0.5 -9.5t1.5 -9.5t1.5 -9t2.5 -8q3 -8 8 -15t11 -9q2 -2 3.5 -2t3.5 -1q2 0 2.5 -0.5t1.5 -0.5h4q4 -1 8 0t9 3q7 2 17 9l8 6t8 7q17 15 29 30q7 8 13 17t12 17l24 36
l22 36q11 18 21.5 36.5t21.5 37.5q5 9 10 18.5t10 19.5l7 14l18 52t19 52q19 51 39.5 100.5t41.5 99.5l21 50l18 41l-42 23q-28 15 -60 26q-13 5 -11 10t14 0q17 -6 32 -12.5t30 -14.5q19 -10 41 -23l42 98l42 99q10 24 20 48.5t19 49.5l9 25l9 25l14 50q2 6 3 12.5t2 12.5
t1.5 12t-0.5 12q0 11 -5 19q-2 4 -6 5l-4 2h-3l-1 1h-2q-8 0 -8 10q2 6 8 8zM201 650l96 143q24 35 48.5 70.5t47.5 71.5q11 18 22.5 36t22.5 37l21 37l9.5 19t8.5 19l4 10l4 10l6 19q3 10 3 19q0.666656 3.33337 0.666656 6.44446q0 5.55554 -1.66666 10.5555q-2 6 -9 9
q-6 3 -16 3h-4q-2 0 -2 -1h-2q-2 0 -8 -2q-8 -3 -15 -9q-8 -5 -14.5 -11.5t-13.5 -14.5l-24 -32l-24 -34l-23 -35q-11 -18 -21 -36.5t-20 -37.5t-19.5 -37.5t-18.5 -37.5q-18 -39 -34.5 -78t-32.5 -78q-16 -40 -30.5 -79.5t-28.5 -80.5q-5 -14 -9.5 -27.5t-9.5 -27.5
q21 35 42.5 69.5t44.5 69.5z" />
    <glyph glyph-name="t_l" unicode="tl" horiz-adv-x="579" 
d="M297 569q-7 4 -21 13.5t-30.5 21t-31.5 22.5t-23 17l-5 -12l-21 -50q-20 -50 -40.5 -99t-40.5 -100q-10 -25 -19.5 -49.5t-17.5 -49.5q-9 -26 -17 -50.5t-16 -50.5l-12 -50q-4 -25 -6 -50q0 -6 -0.5 -11.5t0.5 -11.5v-10t2 -10q1 -10 7 -17q3 -4 8 -5q4 -2 10 -4
q1 0 2 -0.5t3 -0.5h5q3 0 5.5 0.5t5.5 1.5q9 3 21 11q5 3 10.5 7t10.5 9q5 4 9 8.5t9 9.5q9 10 17.5 20t16.5 21q5 5 8.5 10.5t7.5 10.5q8 10 16 22l30 44t29 45l27 46l24 43l3 14q9 42 21 84q11 42 23.5 83.5t26.5 83.5q14 41 29.5 81t32.5 81q34 82 72 158q20 39 41 77
t45 75q6 9 12 18.5t13 18.5q14 18 28 34l16 17l17 15q4 4 8.5 7.5t9.5 7.5l21 12q10 6 24 9q4 1 14 1h6q4 0 7 -1q6 0 12 -3q5 -1 13 -5q8 -6 11 -10q5 -5 7 -14q2 -3 2 -6.5t1 -6.5q0 -8 -1 -12q-1 -7 -2 -12.5t-3 -10.5q-3 -11 -7 -21t-9 -21q-9 -20 -20 -38.5t-22 -37.5
t-22.5 -37t-22.5 -36q-23 -37 -47 -73t-48 -71q-24 -36 -48 -71.5t-47 -71.5l-46 -72t-45 -73q-11 -17 -20 -33t-19 -33l-6 -24q-11 -42 -20.5 -82.5t-17.5 -82.5q-3 -20 -5.5 -41t-4.5 -41q-1 -11 -1.5 -20.5t-0.5 -20.5q-1 -10 -1 -19.75t1 -19.25q0 -5 0.5 -9.5t1.5 -9.5
t1.5 -9t2.5 -8q3 -8 8 -15t11 -9q2 -2 3.5 -2t3.5 -1q2 0 2.5 -0.5t1.5 -0.5h4q4 -1 8 0t9 3q7 2 17 9l8 6t8 7q17 15 29 30q7 8 13 17t12 17l24 36l22 36q11 18 21.5 36.5t21.5 37.5q5 9 10 18.5t10 19.5l19 38q4 7 12 4q7 -4 4 -12q-5 -10 -9.5 -19.5t-9.5 -19.5l-20 -38
l-42 -75l-23 -37l-25 -35l-27 -35q-7 -8 -14 -16.5t-15 -16.5l-17 -15q-9 -8 -20 -13q-12 -7 -24 -8q-1 -1 -2 -1h-11q-4 1 -7 1t-7 2q-11 2 -25 13q-11 9 -17 20q-7 10 -12 23q-2 5 -3.5 11t-3.5 12t-3 11.5t-2 11.5t-1.5 11.5t-0.5 11.5q-1 11 -1 22.25t1 22.75
q1 23 3.5 44.5t5.5 43.5q0 5 2 13l-24 -39q-14 -23 -28.5 -45.5t-30.5 -45.5q-16 -22 -32.5 -43.5t-35.5 -41.5l-20 -19q-5 -5 -10.5 -9.5t-10.5 -8.5l-12 -9l-13 -7q-6 -2 -16 -4q-1 0 -2 -1h-14q-6 0 -16 2t-17 6q-8 4 -15 12q-7 6 -11 14l-4 7l-3 8q-4 9 -5 16
q-3 15 -3 30q0 8 0.5 15t0.5 15l4 28q2 14 5 27.5t6 27.5q14 54 31 105.5t36 102.5t39.5 100.5t41.5 99.5l21 50l11 24q-3 2 -5.5 3.5t-4.5 3.5q-30 19 -58 33q-28 15 -60 26q-34 11 -64 17q-21.875 3.125 -42.1875 3.125q-12.1875 0 -23.8125 -1.125l-16 -2t-16 -3
q-15 -5 -30 -12l-13 -8q-8 -5 -13 -10l-10 -11l-9 -13q-7 -15 -8 -28t5 -26q7 -14 -7 -21q-6 -3 -12.5 -1t-8.5 8q-2 2 -2 4v1q-1.77777 8 -1.77777 16.7901q0 10.9877 2.77777 23.2099q4 17 16 34l12 14l13 12l15 10l15 8q17 7 33.5 11t33.5 5
q9.71429 1.14288 19.5918 1.14288q7.40816 0 14.9082 -0.642883q17.5 -1.5 34.5 -4.5q31 -6 65 -17q34 -13 62 -27q32 -16 59 -33l8 -6l7 15l84 198q10 24 20 48.5t19 49.5l9 25l9 25l14 50q2 6 3 12.5t2 12.5t1.5 12t-0.5 12q0 11 -5 19q-2 4 -6 5l-4 2h-3l-1 1h-2
q-8 0 -8 10q2 6 8 8h8q3 0 9 -2q10 -2 16 -9q7 -5 10 -15q2 -4 3 -7.5t2 -7.5q2 -4 2 -7.5t1 -7.5v-15v-14.5t-2 -14.5q-3 -29 -9 -55l-6 -26l-8 -27q-8 -26 -16 -51.5t-18 -51.5q-9 -26 -18.5 -51t-19.5 -51l-41 -100l-11 -26q7 -5 22.5 -16t32.5 -22.5t32 -21.5t22 -14z
M480 650l96 143q24 35 48.5 70.5t47.5 71.5q11 18 22.5 36t22.5 37l21 37l9.5 19t8.5 19l4 10l4 10l6 19q3 10 3 19q0.666687 3.33337 0.666687 6.44446q0 5.55554 -1.66669 10.5555q-2 6 -9 9q-6 3 -16 3h-4q-2 0 -2 -1h-2q-2 0 -8 -2q-8 -3 -15 -9q-8 -5 -14.5 -11.5
t-13.5 -14.5l-24 -32l-24 -34l-23 -35q-11 -18 -21 -36.5t-20 -37.5t-19.5 -37.5t-18.5 -37.5q-18 -39 -34.5 -78t-32.5 -78q-16 -40 -30.5 -79.5t-28.5 -80.5q-5 -14 -9.5 -27.5t-9.5 -27.5q21 35 42.5 69.5t44.5 69.5z" />
    <glyph glyph-name=".notdef" horiz-adv-x="500" 
 />
    <glyph glyph-name=".null" horiz-adv-x="0" 
 />
    <glyph glyph-name="nonmarkingreturn" horiz-adv-x="500" 
 />
    <glyph glyph-name="space" unicode=" " horiz-adv-x="500" 
 />
    <glyph glyph-name="a" unicode="a" horiz-adv-x="465" 
d="M356 462l-25 -53q-7 -13 -13 -26t-12 -27q-12 -26 -24 -52.5t-23 -53.5q-12 -27 -21 -54q-5 -14 -10 -27t-9 -27q-2 -7 -4 -13.5t-4 -13.5l-7 -27q-2 -7 -3 -13t-2 -13l-2 -13v-12l2 -11q2 -2 2.5 -4t2.5 -4t4 -3t5 -3q2 0 2.5 -0.5t2.5 -0.5q1 0 1.5 -0.5t1.5 -0.5h9
l5 2q4 1 12 5q11 7 22 18q11 9 20 20q5 5 9.5 11t9.5 11l36 47q17 24 33 48.5t31 49.5l30 51l29 51q4 8 11 3q4.92307 -2.46155 4.92307 -6.05917q0 -2.24854 -1.92307 -4.94083q-7 -13 -14 -25.5t-15 -25.5t-15.5 -25.5t-15.5 -25.5t-15.5 -25.5t-15.5 -24.5l-33 -49
q-17 -25 -35.5 -48t-41.5 -44q-3 -4 -11 -10l-6 -5l-7 -5q-7 -5 -14 -8l-8 -3q-6 -2 -9 -2h-9q-2 0 -4.5 0.5t-4.5 0.5q-5 1 -9 3t-9 4l-3.5 3.5l-3.5 3.5l-3.5 3.5l-3.5 3.5q-5 7 -8 17q-4 8 -5.5 16.5t-2.5 16.5t-1 16.5v16.5q1 11 3 22l4 22q-21 -35 -42 -62l-24 -31
q-4 -3 -7 -7l-3.5 -3.5l-3.5 -3.5q-3 -4 -6.5 -7t-7.5 -6q-7 -7 -16 -13l-16 -11q-9 -5 -18.5 -9t-20.5 -6q-2 -1 -6 -1v-1h-6h-6.5t-6.5 1q-8 3 -13 7q-8 6 -11 10q-8 11 -12 22l-4 11l-2 11q-2 11 -2.5 21.5q-0.166664 3.5 -0.166664 7.05556q0 7.11111 0.666664 14.4444
q0 5 0.5 10t1.5 10l3 20q4 20 9 39t10 39q6 19 12.5 37t14.5 37q2 5 4 9t4 9l3 9l4 9l17 35q5 9 9.5 18t9.5 17q5 9 10 17.5t10 16.5l23 34q7 8 14 15.5t15 14.5l18 12q5 3 9.5 6t9.5 5t11 3.5t12 3.5q5.2 0.799988 10.08 0.799988q7.31999 0 13.92 -1.79999q8 -2 11 -4
q1 0 1 -0.5t1 -0.5h1l1 -1q1 -1 2 -1l5 -4q5 -3 8 -8q2 -2 3.5 -4.5t2.5 -5.5q6 -9 9 -19q4 -11 5 -20q2 -5 2.5 -9.5t1.5 -9.5l2 -20v-20.5t-1 -19.5v-3q2 6 5 11.5t6 11.5l26 53q4 7 7.5 13t6.5 13l8 13q3 8 7 13q5 10 15.5 12.5t20.5 -3.5q8 -5 11.5 -14.5t-1.5 -18.5z
M207 290q5 18 8.5 36t5.5 37q2 9 2 18.5v18.5q0 18 -3 36l-5 18q-2 4 -3.5 7.5t-3.5 7.5l-5 7q-2 1 -2.5 2t-2.5 3q-1 0 -1.5 0.5t-1.5 0.5l-1 1h-1l-1 1q-2 0 -3.5 0.5t-3.5 0.5q-2 0.285706 -3.9796 0.285706q-11.8775 0 -23.0204 -10.2857q-10 -9 -22 -26l-10 -14
t-10 -15l-18 -31q-5 -8 -9 -16.5t-8 -16.5q-8 -14 -16 -34l-14 -34l-4 -9l-3 -9l-7 -17q-7 -18 -13 -35.5t-12 -35.5q-13 -37 -20 -70q-2 -5 -2.5 -9t-1.5 -9l-3 -18l-6 -34v-8q0 -2 -0.5 -3.5t-0.5 -3.5q0 -6 2 -14q0 -1 2 -5q0 -1 3 -4q2 -2 5 -2q1 0 1 -1h6h9t9 2
q9 2 16 6q5 2 8.5 4.5t7.5 4.5t7.5 5t7.5 6l14 13l13 13q6 8 12 15t11 15q11 15 20.5 31.5t18.5 33.5l16 34q2 5 3.5 9t3.5 9l4 8t4 9q7 18 13.5 35.5t11.5 35.5z" />
    <glyph glyph-name="b" unicode="b" horiz-adv-x="398" 
d="M377 1175h-2q-2 0 -2 -1q-3 0 -4 -1l-8 -3l-8 -5l-7 -6l-13 -14l-11 -16q-5 -8 -9.5 -17t-9.5 -18l-9 -18l-8 -19l-8 -19l-7 -19q-4 -10 -7.5 -19.5t-6.5 -19.5q-8 -20 -14 -39.5t-13 -39.5q-6 -20 -12.5 -40.5t-11.5 -40.5l-24 -80l-44 -163q-12 -41 -23.5 -81.5
t-24.5 -81.5l-19 -62q9 16 18.5 31.5t20.5 30.5q5 8 11 16l12 16t12 15t14 14q3 4 6.5 7t7.5 7l17 12q5 3 9.5 6t9.5 5l12 3q1 1 2 1h12q5 0 15 -4q8 -3 14 -9q2 -3 4.5 -6t4.5 -6q3 -3 7 -11q2 -6 3.5 -12t3.5 -12q1 -5 1.5 -11t0.5 -11l-3 -42l-3 -20q-2 -5 -2.5 -10
t-1.5 -10q-9 -40 -21.5 -77t-28.5 -73q-2 -5 -4 -9t-4 -9t-4 -9t-4 -9q-7 -16 -17 -35l-10 -17q16 5 36 17q27 14 54 38q13 11 24.5 22.5t22.5 24.5q20 23 41 52q20 29 35 56q5 8 12 4q5.33334 -3.33334 5.33334 -7.55554q0 -2.11111 -1.33334 -4.44446q-18 -29 -37.5 -57
t-42.5 -54q-11 -13 -23 -25.5t-25 -23.5q-14 -11 -27.5 -21t-29.5 -18q-28 -17 -56 -24q-10 -17 -19 -31q-11 -17 -24 -33q-7 -8 -14.5 -15t-16.5 -13q-9 -8 -18 -12q-5 -3 -10.5 -5.5t-10.5 -4.5q-2 0 -3 -0.5t-3 -0.5q-2 -1 -7 -1q-3 -0.5 -6.25 -0.5t-6.75 0.5
q-7 0 -13 3t-11 8q-1 0 -2 1l-3 3l-3 4q-3 3 -7 9l-9 19q-7 17 -12 38l-8 34q0 -1 -1 -1l-22 -38q-4 -5 -7 -9t-6 -9l-15 -17q-18 -18 -39 -28q-5 -3 -11 -4.5t-12 -3.5q-13 -2 -24 1q-2.66667 0 -2.66667 1.77778q0 0.888888 0.666672 2.22222q0 1 0.5 1t0.5 1q5 3 9 6t8 7
l13 14q6 7 11.5 14.5t10.5 15.5l11 16l11 17q5 8 9.5 17t9.5 18q18 37 33 75q8 20 15 39.5t14 39.5t13 39.5t12 39.5q4 10 7 20l6 20l12 40l47 162q11 41 23 81t24 81q13 42 25.5 82t26.5 80q14 43 30 80l17 40q2 5 4.5 9.5t5.5 9.5l10 20q2 5 5 9.5t5 9.5l12 18
q12 19 27 36l16 16t18 15l11 6l11 4q8 2 13 2q2 1 6 1h3l2 -1h1q8 0 8 -9q-2 -6 -8 -8zM36 253q-8 -20 -15.5 -40t-16.5 -40q-6 -17 -15 -34l2 -2l14 -8l15 -7.5t15 -6.5t15.5 -5.5t15.5 -4.5t16 -3t16 -1q5 -1 15 -1l12 24q5 8 8.5 16.5t7.5 16.5l15 34l7 17l7 18
q7 17 13 34.5t12 35.5q6 17 11 35t10 35q2 5 2.5 9t1.5 9q2 5 2.5 9t1.5 8q2 9 3 17.5t1 17.5l1 15q1 5 1 8v7v11q0 2 -1 4q0 1 -2 3l-2 2h-2q0 1 -1 1q-2 0 -3.5 0.5t-3.5 0.5q-6 0 -16 -4t-15 -9q-4 -2 -7.5 -5t-7.5 -6l-25 -27l-24 -30q-11 -16 -21 -31.5t-20 -32.5
l-18 -33l-9 -17q-1 -2 -2 -3.5t-2 -3.5zM-12 104q1 -10 2.5 -19t3.5 -18q5 -19 12 -35l9 -15l5 -6l3 -3h1v-1h1l1 -1q4 -3 10 -3q2 0 6 2q1 0 1.5 0.5t1.5 0.5l3 2q8 6 12 10l10 13q5 8 9.5 15t9.5 15l15 23h-7l-18 2t-17 3t-17 4.5t-17 5.5t-15.5 6.5t-15.5 8.5l-10 5
q0 -10 1 -15z" />
    <glyph glyph-name="m" unicode="m" horiz-adv-x="587" 
d="M-102 5q4 16 8 31t9 31l18 60q10 31 20 61t21 59l22 60t24 59t27 57.5t30 57.5q5 10 15 12.5t20 -2.5t12.5 -15t-2.5 -20q0 -1 -1 -1q-32 -53 -60 -108l-27 -56q8 14 15.5 27t15.5 26q9 15 18.5 29.5t19.5 28.5l21 28q5 7 10.5 13.5t11.5 13.5l12 13l13 12l14 12l17 9
q4 2 10 4t10 2q4 1 12 1l12 -3q8 -4 12 -8q5 -5 8 -11q3 -5 4.5 -11t3.5 -11q1 -5 1.5 -10t0.5 -10v-10q0 -6 -1 -9q0 -18 -5 -36l-4 -18l-5 -17l-10 -33l-12 -33q-2 -4 -2 -7l19 32q12 20 25 40t27 40l29 38q8 9 15.5 18t15.5 18q9 8 18.5 16t20.5 15l12 6l14 4h8
q1.33334 0.666656 2.66666 0.666656l1.33334 -0.166656q2 -0.5 4 -0.5q2 -1 5 -1.5t5 -2.5q6 -4 8 -7q2 -2 3 -4l2 -4q3 -5 3 -8q3 -9 3 -16q1 -4 1 -14q-1 -4 -1 -13q-2 -13 -4.5 -25t-6.5 -24q-7 -23 -15 -45t-16 -45l-34 -88q-9 -22 -17 -43.5t-15 -42.5q-4 -8 -7 -22
l-6 -21q-2 -5 -2.5 -10t-1.5 -10l-2 -10v-9q0 -5 -0.5 -8.5t-0.5 -6.5q0 -4 1 -6q0 -3 2 -5q1 -2 2.5 -3t3.5 -3q2 0 2.5 -0.5t2.5 -0.5q1 -1 2 -1h1l1 -1q6 0 10 1q2 0 4.5 1t5.5 2q9 4 18 12l17 15l16 18q3 5 6.5 9t7.5 9l13 20q3 5 6.5 9.5t6.5 9.5q12 18 25 40l23 40
l23 42l21 41l20 43q4 7 12 4q5.33331 -2.66666 5.33331 -6.66666q0 -2 -1.33331 -4.33334v-1l-21 -42l-23 -42q-5 -11 -11 -20.5t-12 -20.5l-24 -41l-25 -40l-14 -19l-14 -19q-8 -10 -16 -19t-16 -17q-8 -9 -17 -17q-9 -9 -19 -16l-12 -6q-8 -4 -13 -5q-2 0 -2 -1h-5
q-3 -1 -8 -1h-7.5t-8.5 1q-4 2 -8 3.5t-9 4.5q-7 6 -12 14q-3 4 -4.5 8t-3.5 8l-3 15q0 4 -0.5 7.5t0.5 6.5v14l4 26l12 48q14 44 33 91q9 22 18.5 43.5t19.5 42.5q5 11 9.5 21.5t9.5 21.5l17 43l8 21l7 21q4 11 5 19q1 3 1 8v7l-1 1q-4 2 -7 2q-11 0 -19 -4q-12 -5 -19 -11
q-5 -3 -9 -6.5t-9 -7.5q-8 -8 -15.5 -16.5t-15.5 -16.5q-8 -9 -15 -18.5t-13 -19.5q-27 -37 -50 -79q-12 -20 -23.5 -40.5t-22.5 -41.5l-22 -41l-15 -30l-2 -3l-8 -22l-12 -31l-12 -31q-3 -8 -6 -15.5t-5 -15.5l-4 -16q-2 -4 -2 -7l-1 -4q-1 -1 -1 -3q-2 -11 -11 -17
q-6.75 -4.5 -14.625 -4.5q-2.625 0 -5.375 0.5q-10 2 -16 10t-5 18l1 1v5q0 1 0.5 2t0.5 2q0 4 2 10q1 5 1.5 9t2.5 9q2 8 4.5 17t5.5 17l12 33l12 32q12 32 25 63.5t26 63.5l13 32l12 31l6 16t5 16l11 31q2 8 4 15.5t4 15.5q2 4 2 7l2 8q1 4 1.5 7t0.5 7q0 8 -1 11
q0 3 -1 4q0 1 -1 2q-3 3 -10 3q-3 1 -6 0q-4 0 -7 -1q-8 -2 -13 -6q-6 -2 -14 -9l-12 -10l-12 -12q-21 -23 -42 -53q-9 -14 -18 -28.5t-17 -29.5q-9 -14 -17.5 -29t-16.5 -30q-16 -30 -31.5 -60.5t-29.5 -61.5l-28 -62q-15 -32 -27 -63l-1 -2l-9 -27v-1q-4 -11 -16 -8
q-5 2 -7.5 6q-1.38889 2.22222 -1.38889 4.75309q0 2.02469 0.888885 4.24691z" />
    <glyph glyph-name="n" unicode="n" horiz-adv-x="465" 
d="M-104 5l17 62q5 15 9.5 30t9.5 30q9 31 19 61t21 59q11 30 22.5 60t24.5 59t26.5 57.5t29.5 57.5q5 10 15.5 12.5t20.5 -2.5q9 -5 12 -15t-2 -20l-1 -1q-33 -53 -60 -108q-14 -28 -27 -56.5t-25 -57.5q-8 -20 -16 -39t-16 -39l24 44q13 23 25.5 44.5t26.5 42.5
q27 43 57 84q8 10 15.5 20t15.5 20l33 38q9 10 18 18.5t20 16.5q10 8 23 15q4 3 12 7l14 4l7 2h6q1 0 1 0.5t1 0.5q6 0 9 -1q3 0 9 -2q2 -2 5 -3t5 -3l7 -8q3 -5 4.5 -9t3.5 -9q2 -8 2 -15.5v-15.5q-1 -7 -2 -13.5t-3 -13.5q-3 -15 -7 -26l-8 -24q-8 -24 -19 -48
q-9 -24 -18.5 -47t-19.5 -46t-19.5 -46t-17.5 -46q-5 -12 -8 -22l-7 -23q-2 -5 -2.5 -10.5t-1.5 -10.5q-2 -6 -2 -11v-10t0.5 -8.5t0.5 -6.5l2 -5q0 -3 3 -6l6 -5q4 -2 5 -2q2 -2 5 -2q1 -1 2 -1t3 -1h5q7 0 10 1q10 1 22 8q10 6 20 14l18 17l17 18q17 19 32 38q16 21 29 41
q7 10 14 20.5t13 21.5q7 11 13.5 21t12.5 21l25 44l23 44v1q4 7 10 3q4.89999 -2.79999 4.89999 -6.57999q0 -1.62 -0.899994 -3.42001l-12 -23q-3 -5 -6.5 -10.5t-6.5 -11.5l-25 -43l-27 -43q-7 -11 -13.5 -21t-14.5 -21q-13 -20 -29 -41q-8 -11 -16 -20.5t-16 -19.5
q-9 -10 -17.5 -19t-19.5 -17q-5 -5 -10 -8.5t-10 -7.5q-12 -8 -23 -14l-14 -6q-2 0 -4 -1h-4l-7 -2h-7q-2 0 -4 -0.5q-0.666672 -0.166667 -1.33333 -0.166667l-2.66667 0.666667q-8 0 -17 3q-5 1 -9 3.5t-8 5.5q-7 5 -14 15q-2 4 -3.5 8t-3.5 9l-3 16v15.5t1 15.5
q1 7 2 13.5t3 13.5l6 26l8 25q8 25 18 49t21 47l42 91l21 45l9 22l8 23l7 21l2 10q1 3 1 9v6q0 2 -1 3q-3 3 -6 3l-2 1h-8q-3 0 -5.5 -0.5t-5.5 -0.5l-10 -4q-10 -4 -21 -11l-20 -15l-18 -16q-17 -17 -33 -37t-31 -40q-14 -20 -27.5 -41t-27.5 -42l-51 -86
q-12 -23 -24 -44.5t-23 -44.5l-23 -45l-12 -26q-2 -8 -5 -16.5t-6 -16.5v-1q-6 -11 -16 -8q-5 2 -7.5 6t-1.5 9z" />
    <glyph glyph-name="c" unicode="c" horiz-adv-x="387" 
d="M407 315q-46 -77 -99 -146q-14 -17 -27.5 -34t-29.5 -33t-32.5 -30.5t-34.5 -28.5q-17 -12 -37 -25l-20 -10t-21 -10t-22.5 -8t-22.5 -5q-8 -2 -12 -2q-4 -1 -7.5 -1t-6.5 1q-8 0 -15 3q-7 1 -14 5q-3 2 -6.5 4.5t-5.5 4.5q-8 6 -11 10q-8 10 -15 23q-6 12 -9 24.5
t-5 24.5q-3 24 -3 48q1 12 1.5 24t2.5 23q8 49 22 90q8 22 17 43t20 41q5 10 11 19.5t12 19.5l27 38l15 18l17 17l17 15l20 15l21 12q6 2 12 4.5t12 4.5q7 2 13 3t14 1h5l1 -1h4q2 0 3 -1q4 0 7 -1t7 -2q8 -4 12 -7q3 -2 6 -4.5t5 -4.5l9 -11q4 -8 5 -12q2 -4 4 -12l2 -12
q1 -12 0 -23q0 -6 -0.5 -11.5t-1.5 -11.5l-5 -22q-3 -11 -6.5 -21t-7.5 -21l-18 -41q-2 -5 -4.5 -9.5t-5.5 -9.5l-10 -20q-1 -3 -5 -1q-3 1 -1 5l10 19l9 20q5 10 8.5 19.5t7.5 20.5q3 11 5.5 21t4.5 21q4 19 4 42l-3 20l-3 10l-4 8q-5 9 -11 13q-6 3 -15 5h-13v-1h-3
q-7 -1 -16 -5q-18 -8 -32 -21l-14 -13l-14 -15q-3 -4 -6 -7.5t-7 -7.5l-12 -17q-6 -8 -12 -16.5t-11 -17.5q-9 -16 -19 -37q-10 -19 -17.5 -38t-14.5 -39q-13 -38 -21 -80q-2 -10 -3 -20l-2 -20q0 -11 -0.5 -20.5t1.5 -19.5q0 -5 0.5 -9t1.5 -9q2 -5 2.5 -9t2.5 -8l6 -15
q2 -4 4.5 -6.5t4.5 -5.5q4 -4 12 -7q4 -2 8 -2q2 0 4.5 -0.5t4.5 -0.5q5.75 -0.5 11.1875 -0.5q16.3125 0 29.8125 4.5q20 5 39 14q10 5 19 10.5t18 11.5q18 12 33 27l31 30q30 31 57 66l51 70l46 74q3 7 11 3q4.45456 -1.90909 4.45456 -5.84299
q0 -2.24792 -1.45456 -5.15701z" />
    <glyph glyph-name="d" unicode="d" horiz-adv-x="462" 
d="M528 1193h8q4 0 8 -2q10 -2 16 -9q4 -3 6.5 -6.5t4.5 -7.5t3 -7.5t2 -8.5q2 -10 2 -15q1 -5 1 -14q0 -8 -0.5 -14.5t-1.5 -14.5q-3 -27 -9 -54l-6 -27l-8 -26q-14 -50 -33 -103q-9 -26 -18.5 -50.5t-20.5 -49.5l-40 -99l-42 -99q-21 -49 -42 -97.5t-41 -98.5
q-11 -24 -20.5 -48.5t-19.5 -49.5q-9 -25 -18 -49.5t-17 -49.5q-5 -12 -8.5 -24.5t-6.5 -24.5q-8 -28 -11 -50l-4 -24q-1 -6 -1.5 -12t-0.5 -11v-10t2 -9q3 -10 10 -13l9 -3h10l11 3l10 6l11 7l9 8l19 18q17 21 32 41q8 11 15 22t15 22q14 22 27.5 45t26.5 46q7 11 13 23
l12 24q7 11 12 23l12 24q4 9 13 5t5 -13l-24 -48q-6 -12 -12.5 -24t-13.5 -24q-13 -23 -26.5 -46t-27.5 -46q-8 -11 -15.5 -22t-15.5 -22t-17 -21.5t-18 -20.5q-5 -5 -9.5 -10t-9.5 -10t-10.5 -9.5t-10.5 -8.5q-13 -10 -28 -14q-2 0 -4 -0.5t-4 -0.5q-1 -1 -2 -1h-6h-8t-9 2
q-5 1 -8.5 3t-8.5 4q-4 3 -7.5 6t-5.5 7q-5 6 -9 16q-2 4 -3 7.5t-3 7.5q-2 8 -2.5 15.5t-1.5 15.5q0 8 0.5 15t1.5 14q2 14 4.5 27.5t5.5 27.5q0 4 1 6l-12 -21q-10 -17 -20.5 -33t-22.5 -31l-24 -31q-4 -3 -7 -7l-7 -7q-3 -4 -6.5 -7t-7.5 -6q-7 -7 -16 -13q-8 -7 -17 -11
q-18 -10 -38 -17q-2 0 -3 -0.5t-3 -0.5h-1l-2 -1h-3h-6.5t-7.5 1q-8 1 -15 6q-6 5 -11 11q-8 9 -13 23q-5 13 -5 23q-1.66666 8.33332 -1.66666 14.8889q0 3.77778 0.666664 7.11111v10.5t1 10.5q1 11 2 20.5t3 19.5q4 20 9 39t11 39q6 19 12.5 37t14.5 37q2 5 4 9t4 9l3 9
q2 3 4 9q5 9 9 17.5t8 17.5q18 36 39 69l23 34q7 8 14 15.5t15 14.5q5 3 9 6.5t9 5.5q5 3 9.5 6t9.5 5t11 3.5t12 3.5q13 2 24 -1q8 -2 11 -4q1 0 1 -0.5t1 -0.5h1l1 -1q1 -1 2 -1l5 -4q5 -3 8 -8l6 -10q6 -9 9 -19q4 -11 5 -20q2 -5 2.5 -9.5t1.5 -9.5q0 -5 0.5 -10
t0.5 -10q1 -9 1 -17.75t-1 -17.25q5 11 9.5 23t9.5 24q20 50 40.5 99t42.5 98l43 98l43 97q11 25 20.5 49.5t20.5 48.5q11 25 20.5 49t18.5 49l9 25l9 25q4 12 7.5 24.5t6.5 24.5q2 6 3 12.5t2 12.5t1 12v11q-2 13 -5 19q-4 4 -7 5l-4 2h-3l-1 1h-1q-10 0 -8 10q0 6 8 8z
M206 290q5 18 8.5 36t5.5 37q2 9 2 18.5v18.5q0 18 -3 36l-5 18q-2 4 -3.5 7.5t-3.5 7.5l-5 7q-3 2 -5 5q-1 0 -1.5 0.5t-1.5 0.5l-1 1h-1l-1 1q-2 0 -3.5 0.5t-3.5 0.5q-1.16667 0.0833435 -2.32639 0.0833435q-12.7569 0 -24.6736 -10.0833q-10 -9 -22 -26l-10 -14
t-10 -15t-9.5 -15.5t-8.5 -15.5q-9 -16 -17 -33l-16 -34l-14 -34l-7 -18l-7 -17q-7 -18 -13 -35.5t-12 -35.5q-5 -17 -10 -35l-10 -36q-2 -8 -3.5 -17t-2.5 -18q-1 -5 -1.5 -8.5t-0.5 -8.5q-1 -5 -1 -8.5v-7.5q0 -5 -0.5 -8.5t-0.5 -7.5q0 -8 1 -12q0 -3 1 -4q0 -2 2 -4
l4 -3l1 -1h2q1 0 2 -0.5t2 -0.5q3.33333 -0.666667 6.22222 -0.666667q1.44444 0 2.77778 0.166667q4 0.5 9 1.5q2 0 8 2t8 4q5 2 8.5 4.5t7.5 4.5t7.5 5t7.5 6l14 12l6 7l3.5 3.5l3.5 3.5q6 8 12 15t11 15q11 15 20.5 31.5t18.5 33.5l16 34l7 18l4 8t4 9q7 18 13.5 35.5
t11.5 35.5z" />
    <glyph glyph-name="e" unicode="e" horiz-adv-x="391" 
d="M409 315q-6 -11 -12.5 -21.5t-13.5 -21.5l-28 -42q-14 -21 -29 -41.5t-31 -40.5l-34 -38q-8 -9 -17.5 -18t-18.5 -17q-10 -9 -19.5 -17t-20.5 -16t-21.5 -15t-21.5 -13t-23 -11.5t-25 -9.5q-7 -2 -13.5 -4t-13.5 -3l-13 -3h-16q-8 0 -17 3q-4 2 -8 3.5t-7 3.5
q-4 2 -7.5 4.5t-6.5 5.5l-6 6t-5 7q-5 6 -8.5 13t-6.5 14q-5 16 -8 28q-2 14 -3.5 28q-0.900002 8.4 -0.900002 16.8q0 5.6 0.400002 11.2q0 14 1 27t3 26q9 53 27 103q10 24 21.5 47.5t25.5 46.5q13 21 29 44q8 11 17 21t19 19q10 10 20.5 18.5t22.5 15.5q6 4 12 7.5
t13 5.5q15 7 29 8q5 1 16 1h3q1 0 2 -0.5t2 -0.5q5 0 7 -1q10 -2 15 -4q10 -4 14 -7q8 -5 12 -10q3 -3 5.5 -6t4.5 -6l6 -14l3 -14q1 -7 1 -14v-14q-1 -7 -1.5 -13t-2.5 -13q-6 -27 -18 -49l-6 -12t-7 -11q-6 -11 -15 -21q-8 -11 -17.5 -20t-19.5 -17l-22 -15
q-5 -3 -10.5 -6.5t-11.5 -6.5l-24 -10t-24 -9q-26 -8 -51 -12q-8 -2 -16.5 -2.5t-16.5 -1.5l-4 -18l-4 -18q-2 -11 -3 -23t-2 -23t-1 -22.5t2 -22.5q3 -22 11 -39l4 -7l5 -7l6 -4t8 -4q1 -1 4 -1l1 -1h4q4 -1 12 -1h11t12 1q22 3 46 14q11 5 21.5 11t20.5 13t19.5 15
t18.5 16q18 17 35 35l33 38l31 39q8 10 14.5 20t14.5 21q7 11 13.5 21t13.5 21t13.5 21t12.5 21q5 7 12 3q3.33334 -3.33334 3.33334 -7q0 -2 -1.33334 -4zM52 235q12 1 24 3t24 5t23 7t22 9l11 6l11 6l20 13q19 15 34.5 33.5t26.5 40.5q11 23 15 46q1 6 1.5 12t0.5 11v12
t-2 11l-3 10l-5 9q-7 8 -15 11q-2 2 -4.5 2t-4.5 1q-3 1 -10 1h-5l-3 -1h-2q-2 0 -10 -2q-9 -3 -18 -9q-5 -3 -9 -6t-9 -7q-5 -3 -8.5 -6.5l-8.5 -8.5l-15 -17q-8 -9 -15 -18t-14 -19q-12 -18 -25 -40q-24 -42 -39 -87q-3 -8 -6 -15t-5 -15q6 0 11.5 0.5t11.5 1.5z" />
    <glyph glyph-name="f" unicode="f" horiz-adv-x="243" 
d="M466 1175q-16 -1 -29.5 -7.5t-25.5 -16.5q-6 -5 -12 -10.5t-11 -11.5t-10 -12.5t-10 -13.5q-17 -24 -33 -56q-5 -7 -8.5 -14l-7.5 -15q-3 -8 -6.5 -15l-7.5 -15l-13 -31q-6 -13 -13 -31l-25 -62q-2 -8 -5 -16l-6 -16l-12 -31l-23 -64l-22 -64l-22 -64l-21 -64l-22 -64
l-16 -45l-6 -24t-5 -25q-9 -37 -15 -73q-3 -19 -5.5 -37t-3.5 -37q-1 -9 -1.5 -18.5t-0.5 -18.5l2 -18t3 -17q1 -9 6 -15q3 -7 10 -9q0 -1 1 -1h2h11q5 1 15 5q8 4 15 9t14 11q12 11 24 26q23 31 41 62q4 8 8 16.5t9 16.5l7 17l4 8l4 9q4 10 13 5q8 -3 5 -13q-2 -6 -4 -9
l-4 -8q-3 -8 -8 -17t-9 -17.5t-9 -16.5q-9 -17 -19.5 -33t-22.5 -31q-13 -17 -27 -29q-8 -6 -16 -11.5t-17 -10.5q-11 -5 -21 -6q-2 0 -5 -0.5t-6 0.5h-6l-6 2q-6 3 -10 7q-4 2 -8 9q-5 8 -7 20q-2 5 -2.5 9.5t-1.5 9.5q0 5 -0.5 10t-0.5 10q0 10 0.5 19.5t1.5 18.5
q2 20 4.5 38.5t5.5 37.5q0 3 2 9q-10 -26 -19 -51t-19 -50q-24 -63 -51 -126q-7 -16 -13.5 -31.5t-14.5 -31.5l-28 -62q-15 -31 -30.5 -61.5t-32.5 -60.5t-35 -59t-38 -57q-20 -29 -41.5 -55.5t-45.5 -52.5q-11 -13 -23.5 -25t-25.5 -24q-13 -11 -26.5 -22t-27.5 -21
q-14 -11 -28.5 -20t-29.5 -17q-16 -8 -31.5 -15.5t-31.5 -13.5q-8 -2 -16.5 -5t-17.5 -5l-33 -7q-9 -2 -17.5 -2.5t-17.5 -1.5q-8 -1 -17 -1h-17q-6 0 -6 6t6 6q35 0 66 7l16 4l16 4t16 5l16 6q62 26 113 69q25 21 48 45q23 25 44 50q11 13 20.5 26t18.5 27l37 56
q17 29 33 58t32 59q15 30 29.5 60t28.5 61q16 32 27 61q7 16 13.5 31t12.5 31q13 32 25 63t24 63q48 127 92.5 254t92.5 255l24 64l13 32l13 31q14 32 28 63t30 61l17 31l18 29q17 28 41 57l24 26q7 6 14 11.5t15 10.5q7 5 16 10l17 7q5 2 9 2.5t9 1.5h10q1 1 4 1
q1 0 1.5 -0.5t1.5 -0.5h2q8 0 8 -9q0 -6 -8 -8z" />
    <glyph glyph-name="g" unicode="g" horiz-adv-x="398" 
d="M-596 -486q15.3333 -0.666656 30.4445 -0.666656q7.55554 0 15.0555 0.166656q22.5 0.5 45.5 2.5t45 4t45 7q22 4 44 9t43 12q22 8 43 16t41 18q40 19 77 46q18 13 34.5 27t33.5 29q16 16 30.5 32.5t28.5 33.5l6 8q3 3 7 9q4 5 7 9t6 9q7 9 13 18l12 18q23 38 43 77.5
t38 81.5l16 41q5 11 8.5 21.5t7.5 21.5q8 21 15.5 42t15.5 43q0 2 2 6l-15 -20q-21 -27 -47 -50q-12 -11 -29 -21q-4 -2 -7.5 -4t-8.5 -4q-4 -2 -8 -3.5t-9 -3.5q-6 -2 -9 -2l-2 -1h-2q-2 -1 -6 -1q-5 -2 -11 0q-3 0 -6 1l-6 2q-3 2 -5.5 3.5t-4.5 3.5q-3 2 -5 4.5t-4 4.5
q-8 11 -10 20q-4 10 -5.5 19.5t-2.5 18.5q-1 5 -1 9.5v9.5t0.5 9.5t0.5 9.5q2 18 5.5 35t8.5 34t10.5 33.5t11.5 33.5l7 16l3 8l4 8q2 4 3.5 8t3.5 8l8 16q2 4 4 7.5t4 7.5l8 16q5 8 9.5 15t9.5 15q10 17 21 29q10 14 26 27q2 2 4 2.5t4 2.5l8 6l17 9q5 2 9.5 3.5t9.5 2.5
t10.5 1.5t10.5 0.5t10 -1t10 -3l2 -1h1q1 0 1.5 -0.5t1.5 -0.5l4 -3l9 -6q4 -4 6.5 -7.5t5.5 -8.5l8 -16q4 -9 6 -18t4 -17l3 -24q2 6 4 9l20 42q5 11 10.5 21t11.5 21q5 9 15 11.5t19 -2.5t12 -14.5t-2 -18.5q-5 -10 -9.5 -19.5t-9.5 -20.5t-9 -20.5t-8 -20.5
q-9 -21 -16.5 -42t-15.5 -42q-15 -43 -29.5 -86t-29.5 -87q-8 -22 -15.5 -43t-15.5 -43l-17 -43l-18 -43q-16 -36 -34 -71t-39 -68l13 15l30 38l28 39q14 20 27.5 40.5t27.5 40.5q52 81 102 165l50 83l25 42l13 21l13 20q5 9 13 3q5.39999 -3 5.39999 -7.07999
q0 -2.72 -2.39999 -5.92001q-6 -10 -14 -20q-3 -5 -6 -10.5t-7 -10.5l-26 -40l-26 -42l-25 -41q-26 -42 -52 -82.5t-52 -82.5q-14 -20 -27.5 -40t-27.5 -40q-14 -22 -28 -40l-29 -39l-31 -38l-32 -37q-16 -17 -32 -32.5t-33 -30.5q-9 -9 -18.5 -17.5t-20.5 -16.5
q-19 -15 -38.5 -28t-39.5 -25q-20 -11 -41.5 -21t-43.5 -19q-44 -17 -88 -29q-22 -6 -44.5 -10.5t-45.5 -8.5q-44 -7 -91 -12q-23 -2 -46 -3t-46 -3q-10 0 -10 10q-1 4 2 7t7 3h1zM213 324q4 16 6.5 31.5t3.5 32.5v16t-1 16q-2 8 -3.5 15.5t-4.5 14.5q-1 4 -2.5 7.5
t-3.5 6.5l-9 10q-2 2 -6 4q-1 1 -2 1q-1 1 -2 1h-1q-3 1 -6.5 1.5q-1.16667 0.166656 -2.27777 0.166656q-2.22223 0 -4.22223 -0.666656q-12 -1 -24 -13q-2 -2 -5 -4.5t-5 -5.5l-9 -12l-18 -25l-16 -27l-15 -29l-6 -14q-2 -4 -3.5 -7.5t-3.5 -7.5l-6 -15l-6 -16l-3 -7
l-3 -8l-6 -15q-6 -16 -11 -31t-10 -31t-9.5 -31t-7.5 -31q-2 -8 -3 -15t-2 -15q-2 -10 -2 -15q-1 -2 -1 -7v-6q0 -9 1 -13q0 -2 2 -4q0 -2 2 -4l4 -3q1 -1 2 -1t3 -1h15q10 2 15 4l15 6q13 7 27 18q13 11 23.5 23t20.5 26q21 29 35 57l7.5 15t6.5 15l7 15l6 15l6 16t5 16
q3 8 5.5 15.5t4.5 15.5z" />
    <glyph glyph-name="h" unicode="h" horiz-adv-x="482" 
d="M379 1175h-3q-1 0 -2 -1q-3 0 -4 -1l-8 -3q-2 -2 -4 -3l-4 -2l-7 -6l-12 -14l-12 -16q-5 -8 -9.5 -17t-9.5 -18l-9 -18q-2 -5 -4 -9.5t-4 -9.5l-8 -19l-7 -19q-4 -10 -7.5 -19.5t-6.5 -19.5l-27 -79l-24 -81l-12 -40t-11 -40l-45 -163q-11 -41 -23 -81.5t-24 -81.5
q-13 -41 -26.5 -81t-27.5 -80l-18 -47l7 12q13 22 25.5 43t26.5 42t28 41.5t29 40.5q8 10 16 19.5t16 19.5q15 18 34 37l19 17q9 7 21 15q9 6 24 13q4 2 14 4q2 1 7 1h2l2 1h4l9 -2q2 0 4.5 -1t5.5 -2q6 -4 8 -7q3 -2 7 -8q4 -9 6 -18q1 -5 1 -15q1 -14 -2 -29l-6 -25
q-4 -13 -8 -25t-9 -24q-4 -12 -8.5 -23.5t-9.5 -23.5q-9 -23 -18.5 -45.5t-19.5 -45.5q-5 -11 -9.5 -22.5t-9.5 -22.5t-9 -22.5t-8 -22.5l-7 -22l-6 -22q-2 -5 -2.5 -10.5t-1.5 -10.5q-1 -10 0 -19v-7q1 -2 1 -6l1 -2q0 -1 0.5 -1.5t0.5 -1.5q1 -2 5 -6q2 -2 4 -2.5t4 -2.5
q2 0 3 -0.5t2 -0.5q1 -1 3 -1h1q1 -1 2 -1h9q5 0 11 2q9 3 21 11q6 4 9 7l9 8q19 15 34 34q17 19 31.5 38.5t28.5 39.5t27 41l26 42l24 43l24 44q2 7 10 3q4.45456 -2.54544 4.45456 -5.90082q0 -1.91736 -1.45456 -4.09918l-12 -22l-12 -22l-24 -43q-13 -22 -26.5 -43
t-27.5 -42q-14 -20 -28.5 -40t-31.5 -39q-4 -5 -8 -9.5t-9 -9.5l-18 -17l-20 -16q-12 -8 -23 -14l-12 -6l-7 -3h-4l-2 -1h-2l-3 -1h-4q-2 -1 -7 -1h-16q-9 1 -18 6l-8 5q-4 3 -7 7q-4 3 -6.5 7t-4.5 9q-4 9 -5 16l-2 16q0 10 1 15q0 8 1 14.5t2 13.5l6 26q2 7 3.5 13t3.5 12
q8 25 17.5 48.5t20.5 46.5q10 23 20 45t21 45l21 44l18 44q2 6 3.5 11.5t3.5 10.5q4 10 6 21q1 5 1.5 9t-0.5 6v4l-5 3q-3 1 -9 1q-7 0 -11 -1q-5 -1 -10.5 -3t-10.5 -4l-20 -13l-18 -15q-9 -8 -18 -16.5t-17 -18.5q-8 -9 -15.5 -18.5t-14.5 -19.5q-15 -20 -28.5 -40
t-27.5 -41l-51 -85l-24 -43q-6 -11 -12 -21.5t-13 -21.5l-27 -42l-15 -20l-8 -10l-4 -5l-2 -3l-2 -2v-1l-2 -2l-15 -17q-18 -18 -38 -28q-6 -3 -11.5 -4.5t-11.5 -3.5q-6 -0.8 -11.2 -0.8q-7.8 0 -13.8 1.8q-2 0 -2 4q0 1 0.5 1t0.5 1h1q9 6 16 13q4 3 7 6.5t6 7.5
q6 7 11.5 14.5t11.5 15.5l10 16q3 5 6 8.5t5 8.5q5 8 9.5 17t9.5 18q18 37 33 75q8 20 15 39.5t14 39.5l26 79l12 40l12 40l47 162q12 41 23.5 81t24.5 81q24 82 51 162q8 20 15 40t15 40l18 40l9 19l10 20q2 5 5 9.5t5 9.5l12 18q12 19 27 36l16 16t19 15l10 6l12 4
q8 2 12 2q2 1 6 1h3l2 -1h1q8 0 8 -9q-2 -6 -7 -8z" />
    <glyph glyph-name="i" unicode="i" horiz-adv-x="268" 
d="M122 463l-11 -27l-12 -27l-23 -55l-22 -54t-21 -55l-5 -14q-4 -7 -5 -13q-2 -8 -5 -14.5t-5 -13.5q-5 -14 -8.5 -27.5t-7.5 -27.5l-3 -14l-3 -14q-2 -7 -3 -13.5t-2 -13.5q-2 -7 -2.5 -13.5t-1.5 -13.5v-12t2 -12q2 -5 5 -9t8 -6q2 -2 5 -2l6 -2h12q14 3 25 10q4 2 12 8
q4 2 12 8l21 20l20 22q10 11 19 22.5t18 23.5q9 11 17.5 23t17.5 25l32 49l31 51l29 52q4 8 11 3q4.92307 -2.46155 4.92307 -6.05917q0 -2.24854 -1.92307 -4.94083q-7 -14 -14 -26.5t-15 -25.5l-32 -51q-14 -24 -32 -50l-35 -49q-18 -23 -38 -47q-20 -23 -43 -43l-12 -9
l-13 -9q-4 -2 -7 -4t-7 -4l-8 -3l-8 -3l-8 -2h-18q-6 2 -9 2l-9 4l-9 6q-4 3 -7 6.5t-6 7.5q-2 5 -4 8.5t-4 8.5q-4 9 -5 17q-2 8 -3 16.5t-1 16.5v16t2 16q0 5 2 15l3 16q2 15 5.5 30t8.5 30l9 29l4 14l5 15q10 29 21 57t23 56q6 14 12 27t13 27q7 16 13 28q2 3 3.5 6.5
t3.5 6.5q3 8 7 13q5 10 15.5 13t19.5 -2t12.5 -14.5t-0.5 -18.5h-1zM276 798q0 -14 -10.5 -24.5t-24.5 -10.5t-24.5 10.5t-10.5 24.5t10.5 24.5t24.5 10.5t24.5 -10.5t10.5 -24.5z" />
    <glyph glyph-name="j" unicode="j" horiz-adv-x="182" 
d="M-809 -486q15.3333 -0.666656 30.4445 -0.666656q7.55554 0 15.0555 0.166656q22.5 0.5 45.5 2.5t45 4t45 7q22 4 44 9t43 12q22 8 43 16t41 18q40 19 77 46q18 13 34.5 27t33.5 29q16 16 30.5 32.5t28.5 33.5l6 8q3 3 7 9q4 5 7 9t6 9q7 9 13 18l12 18q23 38 43 77.5
t38 81.5l16 41q5 11 8.5 21.5t7.5 21.5q8 21 15.5 42t15.5 43q15 43 29.5 86t30.5 87q8 22 17 43.5t18 42.5l20 42q5 11 10.5 21t11.5 21q5 9 15 11.5t19 -2.5t12 -14.5t-2 -18.5q-5 -10 -9.5 -19.5t-9.5 -20.5t-9 -20.5t-8 -20.5q-9 -21 -16.5 -42t-15.5 -42
q-15 -43 -29.5 -86t-29.5 -87q-8 -22 -15.5 -43t-15.5 -43l-17 -43l-18 -43q-16 -35 -33.5 -70t-38.5 -69l12 15q15 19 29.5 38.5t28.5 39.5l28 39l27 41q13 20 26 40.5t26 41.5q13 20 25.5 41t24.5 42l50 83l25 42l13 21l13 20q5 9 13 3q9 -5 3 -13q-6 -10 -14 -20
q-3 -5 -6 -10.5t-7 -10.5l-26 -40l-51 -83l-52 -83q-13 -20 -25.5 -41t-26.5 -41l-27 -40l-27 -41q-14 -20 -28.5 -39t-29.5 -39q-8 -10 -15.5 -19.5t-15.5 -18.5q-8 -10 -16 -19l-16 -18q-15 -17 -31.5 -32.5t-33.5 -30.5q-9 -9 -18.5 -17.5t-20.5 -16.5q-19 -15 -38.5 -28
t-39.5 -25q-20 -11 -41.5 -21t-43.5 -19q-44 -17 -88 -29q-22 -6 -44.5 -10.5t-45.5 -8.5q-44 -7 -91 -12q-23 -2 -46 -3t-46 -3q-10 0 -10 10q-1 4 2 7t7 3h1zM269 798q0 -14 -10.5 -24.5t-24.5 -10.5t-24.5 10.5t-10.5 24.5t10.5 24.5t24.5 10.5t24.5 -10.5t10.5 -24.5z
" />
    <glyph glyph-name="k" unicode="k" horiz-adv-x="445" 
d="M378 1175h-3q-1 0 -2 -1q-3 0 -4 -1l-8 -3q-2 -2 -4 -3l-4 -2l-7 -6l-12 -14l-12 -16q-5 -8 -9.5 -17t-9.5 -18l-9 -18q-2 -5 -4 -9.5t-4 -9.5l-8 -19l-7 -19q-4 -10 -7.5 -19.5t-6.5 -19.5l-27 -79l-24 -81l-12 -40t-11 -40l-45 -163q-11 -41 -23 -81.5t-24 -81.5
q-13 -41 -26.5 -81t-27.5 -80l-16 -41l26 48q14 27 29.5 53.5t32.5 52.5q4 7 8 13t9 13l18 25l20 24t21 23l12 10l12 10q7 5 13.5 9t14.5 8q5 2 8.5 3t7.5 2l9 2q5 0 8 1h10q2 0 4.5 -0.5t5.5 -0.5l10 -4l9 -6l8 -9l6 -9q5 -11 6 -20q2.5 -10 2.5 -19.5t-2.5 -18.5
q-1 -8 -5 -17l-3 -8q-2 -6 -4 -8q-2 -5 -4 -8.5t-5 -7.5l-9 -14q-5 -6 -11 -12.5t-12 -11.5q-11 -11 -26 -21q-14 -10 -28 -17.5t-29 -14.5l-15 -6q-5 -1 -15 -5l-14 -3q6 -1 12.5 -3t12.5 -4q16 -5 26 -14l4 -3h1v-1q1 0 1 -1h1l6 -6l5 -7l5 -7q2 -4 3.5 -7.5t2.5 -8.5
q2 -4 2.5 -8t1.5 -9v-16l-2 -16q-2 -8 -3.5 -14.5t-3.5 -13.5l-9 -25l-9 -23q-2 -5 -4 -10.5t-4 -10.5q-2 -2 -2 -4t-1 -4l-2 -8v-9q0 -3 1 -6l3 -3v-1l1 -1v-1q1 -1 1.5 -2t2.5 -2l4 -2h4q3 -1 10 1q3 0 5.5 1t5.5 2l10 6l10 7q10 8 19 16.5t17 17.5q18 21 30 40
q16 21 29 41q14 21 27.5 42t26.5 43q7 11 13 22l12 22t12.5 22t11.5 22q4 8 12 4q5.33334 -2.66666 5.33334 -7.11111q0 -2.22223 -1.33334 -4.88889q-6 -11 -12 -22.5t-13 -22.5l-25 -44q-26 -44 -54 -87q-14 -21 -29.5 -41t-32.5 -40q-8 -9 -17 -18.5t-19 -18.5l-10 -9
l-10 -9l-12 -8q-4 -3 -14 -7l-8 -3q-2 0 -2.5 -0.5t-2.5 -0.5q-1 0 -2 -0.5t-2 -0.5h-10t-10 2q-1 0 -1.5 0.5t-1.5 0.5h-1l-2 1l-2 1l-2 1l-8 4q-4 2 -7.5 5.5l-7.5 7.5q-3 5 -5.5 9.5t-4.5 9.5q-4 9 -4 20q0 13 1 18l3 16q2 8 4.5 14.5t4.5 12.5q2 7 5 12.5t5 11.5
q3 5 5.5 11t4.5 11l4 10l4 10q2 2 2 4.5t1 4.5q2 6 2 9q1 5 1 8.5v8.5v4q-1 1 -1 4q-1 2 -1 3t-1 2v2h-1q0 2 -1 3q-2 4 -5 8t-8 8l-20 12q-10 4 -23 7l-19 3q-8 -1 -15.5 -1h-15.5h-1l-5 -10l-29 -54l-15 -27l-15 -26q-16 -29 -33 -53l-17 -25q-3 -3 -5.5 -6.5t-4.5 -6.5
l-5 -6l-3 -3q0 -1 -2 -3l-3 -3l-15 -16q-18 -18 -38 -28q-6 -3 -11.5 -4.5t-11.5 -3.5q-15 -2 -25 1q-2 0 -2 4q0 1 0.5 1t0.5 1h1q9 6 16 13q4 3 7 6.5t6 7.5q6 7 11.5 14.5t11.5 15.5l10 16q3 5 6 8.5t5 8.5q5 8 9.5 17t9.5 18q18 37 33 75q8 20 15 39.5t14 39.5l26 79
l12 40l12 40l47 162q12 41 23.5 81t24.5 81q24 82 51 162q8 20 15 40t15 40l18 40l9 19l10 20q2 5 5 9.5t5 9.5l12 18q12 19 27 36l16 16t19 15l10 6l12 4q8 2 12 2q2 1 6 1h3l2 -1h1q8 0 8 -9q-2 -6 -7 -8zM128 281q28 7 53 23l23 18q10 10 19 22l17 22l15 24l8 12l6 11
l5 12q2 2 2.5 5t2.5 6l4 12q1 1 1 2t1 3l2 6q1 3 1 10q1 3 -1 9q-2 5 -5 6q-4 2 -5 2t-1.5 0.5t-1.5 0.5h-3q-1.33334 0.666656 -2.44446 0.666656q-0.555542 0 -1.05554 -0.166656q-1.5 -0.5 -3.5 -0.5h-7q-3 -1 -6.5 -1.5t-6.5 -2.5q-12 -4 -25 -12q-7 -5 -12.5 -9
t-10.5 -9q-21 -19 -40 -45l-17 -25l-16 -26q-13 -20 -25 -41.5t-24 -42.5q14 0 27 1.5t27 6.5z" />
    <glyph glyph-name="l" unicode="l" horiz-adv-x="300" 
d="M320 316q-5 -10 -9.5 -19.5t-9.5 -19.5l-20 -38l-42 -75l-23 -37l-25 -35l-27 -35q-7 -8 -14 -16.5t-15 -16.5l-17 -15q-9 -8 -20 -13q-12 -7 -24 -8q-1 -1 -2 -1h-11q-4 1 -7 1t-7 2q-11 2 -25 13q-11 9 -17 20q-7 10 -12 23q-2 5 -3.5 11t-3.5 12t-3 11.5t-2 11.5
t-1.5 11.5t-0.5 11.5q-1 11 -1 22.25t1 22.75q1 23 3.5 44.5t5.5 43.5t7 43.5t9 43.5q9 42 21 84q11 42 23.5 83.5t26.5 83.5q14 41 29.5 81t32.5 81q34 82 72 158q20 39 41 77t45 75q6 9 12 18.5t13 18.5q14 18 28 34l16 17l17 15q4 4 8.5 7.5t9.5 7.5l21 12q10 6 24 9
q4 1 14 1h6q4 0 7 -1q6 0 12 -3q5 -1 13 -5q8 -6 11 -10q5 -5 7 -14q2 -3 2 -6.5t1 -6.5q0 -8 -1 -12q-1 -7 -2 -12.5t-3 -10.5q-3 -11 -7 -21t-9 -21q-9 -20 -20 -38.5t-22 -37.5t-22.5 -37t-22.5 -36q-23 -37 -47 -73t-48 -71q-24 -36 -48 -71.5t-47 -71.5l-46 -72
t-45 -73q-11 -17 -20 -33t-19 -33l-6 -24q-11 -42 -20.5 -82.5t-17.5 -82.5q-3 -20 -5.5 -41t-4.5 -41q-1 -11 -1.5 -20.5t-0.5 -20.5q-1 -10 -1 -19.75t1 -19.25q0 -5 0.5 -9.5t1.5 -9.5t1.5 -9t2.5 -8q3 -8 8 -15t11 -9q2 -2 3.5 -2t3.5 -1q2 0 2.5 -0.5t1.5 -0.5h4
q4 -1 8 0t9 3q7 2 17 9l8 6t8 7q17 15 29 30q7 8 13 17t12 17l24 36l22 36q11 18 21.5 36.5t21.5 37.5q5 9 10 18.5t10 19.5l19 38q4 7 12 4q7 -4 4 -12zM201 650l96 143q24 35 48.5 70.5t47.5 71.5q11 18 22.5 36t22.5 37l21 37l9.5 19t8.5 19l4 10l4 10l6 19q3 10 3 19
q0.666656 3.33337 0.666656 6.44446q0 5.55554 -1.66666 10.5555q-2 6 -9 9q-6 3 -16 3h-4q-2 0 -2 -1h-2q-2 0 -8 -2q-8 -3 -15 -9q-8 -5 -14.5 -11.5t-13.5 -14.5l-24 -32l-24 -34l-23 -35q-11 -18 -21 -36.5t-20 -37.5t-19.5 -37.5t-18.5 -37.5q-18 -39 -34.5 -78
t-32.5 -78q-16 -40 -30.5 -79.5t-28.5 -80.5q-5 -14 -9.5 -27.5t-9.5 -27.5q21 35 42.5 69.5t44.5 69.5z" />
    <glyph glyph-name="o" unicode="o" horiz-adv-x="392" 
d="M408 319q0 -5 -3 -6v-1l-2 -3q-3 -3 -4 -7l-18 -24l-10 -12l-10.5 -10.5t-11.5 -10.5q-9 -9 -24 -19q-7 -4 -13.5 -7.5t-13.5 -6.5q-8 -2 -15 -4t-15 -3q-3 -1 -6.5 -1h-6.5l-14 -31l-18 -36l-21 -34q-23 -35 -49 -64q-14 -14 -31 -27t-37 -21q-8 -4 -22 -7
q-6 -1 -12 -1.5q-1.2 -0.1 -2.4 -0.1l-9.6 1.6q-12 1 -25 8q-13 6 -21 16q-4 5 -7.5 9.5t-6.5 9.5t-5.5 10.5t-4.5 11.5q-2 5 -3.5 10.5t-3.5 10.5l-3 22q-1 11 -1.5 21.5q-0.166668 3.5 -0.166668 7.05556q0 7.11111 0.666668 14.4444q1 11 1.5 21t2.5 21q6 40 18 81
q3 10 6 19.5t7 19.5l8 19l8 19q8 19 18.5 37t21.5 35q12 17 25 33.5t29 30.5q8 8 16 15t17 13l10 6t10 5t10.5 4t11.5 4q9.75 2.25 18.375 2.25q2.875 0 5.625 -0.25q14 0 25 -4q6 -2 11.5 -5.5t10.5 -7.5q8 -7 15 -17l11 -19q2 -5 3.5 -10t3.5 -10q5 -19 7 -41
q1 -13.6667 1 -27.1111q0 -26.8889 -4 -52.8889q-2 -20 -6.5 -39.5t-10.5 -39.5q-2 -8 -5.5 -16.5t-5.5 -16.5h9q7 1 13.5 3t13.5 4t13.5 5.5t12.5 7.5q13 8 23 18l19 21q3 3 5 6l4 6q6 8 8 12q6 8 8 13l3 6l2 3q0 8 8 8t8 -8zM247 472l-6 6q-2 1 -3.5 2t-3.5 2q-6 3 -14 3
q-10 0 -15 -2l-14 -5q-3 -2 -6.5 -4t-7.5 -4l-14 -9q-15 -12 -26 -24l-24 -28l-21 -30q-39 -63 -62 -137q-5 -18 -9.5 -36t-6.5 -36q-4 -25.3333 -4 -49.3333q0 -12 1 -23.6667l2 -17l3 -17q1 -5 5 -15q2 -8 6 -14q8 -12 19 -18q5 -2 15 -4h8t8 2q3 0 9 2l8 4q8 3 16 9
q4 2 7.5 5t7.5 6l15 12q7 7 13 14t13 15l11 15q3 4 6 7.5t5 8.5q5 8 10 16.5t10 16.5q5 9 9 17.5t8 17.5l11 26q-4 2 -7.5 3.5t-7.5 3.5t-7 5l-6 6q-10 13 -15 29q-5 17 -6 32q-0.142853 4.14285 -0.142853 8.38776q0 25.4694 5.14285 54.6122l9 31q3 8 6 15t7 15
q7 14 18 28l10 14l7 6l6 6zM252 253q12 35 18 75q1 5 1.5 9.5t0.5 9.5q1 5 1.5 9.5t0.5 9.5v19.5t-1 19.5q-1 2 -1 6l-5 -5q-5 -4 -9.5 -9t-8.5 -10q-17 -21 -27 -48q-6 -12 -9 -26q-2 -7 -2.5 -14t-1.5 -14q-0.666672 -4.66666 -0.666672 -9.11111
q0 -6.2222 1.66667 -17.8889q3 -15 9 -25q8 -12 20 -16q0 -1 1 -1q3 9 6.5 18t5.5 19z" />
    <glyph glyph-name="p" unicode="p" horiz-adv-x="418" 
d="M-572 -548h20t20 2l20 3q12 2 20 4q17 4 38 12l18 8t18 9q17 10 33.5 21.5t31.5 24.5q30 29 53 60q13 16 23 32q6 8 11 17t10 17q10 18 19.5 35.5t17.5 36.5q17 36 32.5 73t30.5 75q14 38 27.5 76t27.5 76l27 77l27 77q14 38 28 77t30 77l16 38t17 38l18 37l20 37
q5 9 15 11.5t19 -2.5t12 -14.5t-2 -18.5l-17 -36q-5 -9 -8.5 -18t-7.5 -18q-17 -38 -30 -75q-9 -23 -18 -46.5t-17 -46.5l13.5 27t14.5 27l10 17l9 17q5 8 9.5 16.5t9.5 16.5q10 17 20 33t21 32q5 8 11 16l12 16t12 15t14 14q3 4 6.5 7t7.5 7l17 12q5 3 9.5 6t9.5 5l12 3
q1 1 2 1h12q5 0 15 -4q8 -3 14 -9q2 -3 4.5 -6t4.5 -6q3 -3 7 -11q2 -6 3.5 -12t3.5 -12q1 -5 1.5 -11t0.5 -11l-3 -42l-3 -20q-2 -5 -2.5 -10t-1.5 -10q-9 -40 -21.5 -77t-28.5 -73q-2 -5 -4 -9t-4 -9t-4 -9t-4 -9q-7 -16 -17 -35l-10 -17q16 5 36 17q27 14 54 38
q13 11 24.5 22.5t22.5 24.5q20 23 41 52q20 29 35 56q5 8 12 4q5.33334 -3.33334 5.33334 -7.55554q0 -2.11111 -1.33334 -4.44446q-18 -29 -37.5 -57t-42.5 -54q-11 -13 -23 -25.5t-25 -23.5q-14 -11 -27.5 -21t-29.5 -18q-28 -17 -56 -24q-10 -17 -19 -31q-11 -17 -24 -33
q-7 -8 -14.5 -15t-16.5 -13q-9 -8 -18 -12q-5 -3 -10.5 -5.5t-10.5 -4.5q-2 0 -3 -0.5t-3 -0.5q-2 -1 -7 -1q-6 -1 -13 0q-7 0 -13 3t-11 8q-1 0 -2 1l-3 3l-3 4q-3 3 -7 9l-9 19q-7 17 -12 38q-3 10 -5 19t-4 19l-2 16l-9 -24l-14 -38l-14 -39q-14 -38 -28.5 -76.5
t-31.5 -76.5q-32 -77 -74 -148q-11 -18 -22.5 -35.5t-23.5 -34.5q-6 -8 -12.5 -16.5t-13.5 -16.5q-6 -8 -13 -15.5t-14 -15.5q-30 -33 -61 -57q-30 -26 -70 -45q-9 -5 -18.5 -9t-19.5 -8q-10 -3 -19.5 -6t-20.5 -5q-8 -2 -20 -4q-11 -3 -21 -3q-20 -3 -41 -3q-6 0 -6 6t6 6z
M150 124q5 8 8.5 16.5t7.5 16.5l15 34l7 17l7 18q7 17 13 34.5t12 35.5q6 17 11 35t10 35q2 5 2.5 9t1.5 9q2 5 2.5 9t1.5 8q2 9 3 17.5t1 17.5l1 15q1 5 1 8v7v11q0 2 -1 4q0 1 -2 3l-2 2h-2q0 1 -1 1q-2 0 -3.5 0.5t-3.5 0.5q-6 0 -16 -4t-15 -9q-4 -2 -7.5 -5t-7.5 -6
l-25 -27l-24 -30q-11 -16 -21 -31.5t-20 -32.5l-18 -33l-9 -17l-8 -17l-9 -18l-8 -17l-7 -17l-8 -18l-7 -18l-7 -17l-6 -18q-4 -7 -5 -13l4 -3l14 -8l15 -7.5t15 -6.5t15.5 -5.5t15.5 -4.5t16 -3t16 -1q5 -1 15 -1zM13 104q1 -10 2.5 -19t3.5 -18q5 -19 12 -35l9 -15l5 -6
l3 -3h1v-1h1l1 -1q4 -3 10 -3q2 0 6 2q1 0 1.5 0.5t1.5 0.5l3 2q8 6 12 10l10 13q5 8 9.5 15t9.5 15l15 23h-7l-18 2t-17 3t-17 4.5t-17 5.5t-15.5 6.5t-15.5 8.5q-4 1 -10 5q0 -10 1 -15z" />
    <glyph glyph-name="q" unicode="q" horiz-adv-x="427" 
d="M397 484h-5l-4 -2l-8 -3l-8 -5l-7 -6l-12 -14l-12 -16q-5 -8 -9.5 -17t-9.5 -18l-9 -18l-8 -19l-8 -19l-7 -19q-4 -10 -7.5 -19.5t-6.5 -19.5l-27 -79l-24 -80q-6 -20 -12 -40.5t-11 -40.5l-45 -163q-11 -41 -23 -81t-24 -82l-26 -79l10 19q14 28 27.5 55.5t27.5 55.5
l54 111l55 111l56 110q14 28 28 55t29 55q14 27 29.5 54t32.5 53q5 9 13 3q5.39999 -3 5.39999 -7.07999q0 -2.72 -2.39999 -5.92001l-17 -26l-16 -26l-31 -53l-59 -109q-14 -27 -28 -54.5t-28 -55.5l-54 -110l-28 -56l-27 -55l-53 -112l-54 -111l-26 -52q-3 -5 -4 -11
l-18 -39l-20 -39q-5 -10 -11 -19t-12 -19l-13 -18l-15 -17q-18 -18 -38 -28q-6 -2 -11.5 -4t-11.5 -3q-6.5 -1.5 -12.75 -1.5t-12.25 1.5q-2 2 -2 4q0 1 0.5 1t0.5 1h1q9 6 16 13q4 3 7 6.5t6 7.5q6 7 11.5 14.5t11.5 15.5l10 17l11 16q5 9 9.5 17.5t9.5 18.5q18 36 33 75
q8 19 15 38.5t14 39.5l26 79l12 40l12 40l47 162q12 41 23.5 81.5t24.5 81.5l14 48t15 47l-11 -19q-10 -17 -20.5 -33t-22.5 -31l-24 -31q-4 -3 -7 -7l-7 -7q-3 -4 -6.5 -7t-7.5 -6q-7 -7 -16 -13q-8 -7 -17 -11q-8 -5 -17.5 -9t-20.5 -6q-2 -1 -6 -1v-1h-6h-6.5t-6.5 1
q-10 4 -14 7q-6 4 -10 10q-5 5 -7.5 10.5t-4.5 11.5q-3 5 -4 11l-2 11q-2 11 -2.5 21.5t0.5 21.5q0 5 0.5 10t1.5 10l3 20q8 41 19 78q6 19 12.5 37t14.5 37l7 18q2 3 4 9l4 9l17 35q5 9 9.5 18t9.5 17q5 9 10 17.5t10 16.5q5 9 11 17.5t12 16.5q7 8 14 15.5t15 14.5
q5 3 9 6t9 6t9.5 6t9.5 5t11 3.5t12 3.5q5.2 0.799988 10.08 0.799988q7.31999 0 13.92 -1.79999q8 -2 11 -4q1 0 1 -0.5t1 -0.5h1l1 -1q1 -1 2 -1l5 -4q5 -3 8 -8l6 -10q6 -9 9 -19q4 -11 5 -20q2 -5 2.5 -9.5t1.5 -9.5q0 -5 0.5 -10t0.5 -10q0.5 -10.5 0.5 -20.5
t-0.5 -19.5l-2 -26l5 11l9 20q2 5 4.5 9.5t5.5 9.5l10 19l12 19q13 20 27 35q15 18 35 31l10 6q4 2 12 4l12 3h12q8 -2 8 -10q-2 -6 -7 -8zM206 290q11 36 15 73q1 9 1.5 18.5t0.5 18.5q0 20 -4 36q-1 5 -1.5 9t-2.5 9l-7 15l-5 7q-3 2 -5 5q-1 0 -1.5 0.5t-1.5 0.5l-1 1h-2
v1q-2 0 -3.5 0.5t-3.5 0.5q-1.16667 0.0833435 -2.32639 0.0833435q-12.7569 0 -24.6736 -10.0833q-10 -9 -22 -26l-10 -14t-10 -15t-9.5 -15.5t-8.5 -15.5q-5 -8 -9 -16.5t-8 -16.5q-8 -14 -16 -34l-14 -34l-4 -9l-3 -9l-7 -17q-7 -18 -13 -35.5t-12 -35.5q-13 -37 -20 -70
q-2 -5 -2.5 -9t-1.5 -9l-3 -18l-6 -34v-8q-1 -2 -1 -7q0 -6 2 -14q0 -1 2 -5q0 -1 3 -4q2 -2 5 -2q1 0 1 -1h6h9t9 2q9 2 16 6q5 2 8.5 4.5t7.5 4.5t7.5 5t7.5 6l14 13l6 6q3 4 7 7q6 8 12 15t11 15q22 31 38 65l17 34l7 18l4 8t4 9q7 18 13 35.5t11 35.5z" />
    <glyph glyph-name="r" unicode="r" horiz-adv-x="446" 
d="M1 323l8 12l7 12l16 23l17 25q-12 9 -21 21q-11 12 -18 27q-8 15 -11 30q-3 7 -3 16q0 2 -0.5 4t-0.5 4v16q0 6 1 8q0 6 2 16q3 17 9 31q4 8 8 14.5t9 13.5l11 12l6 6l7 5q16 11 32 15q5 1 9 1.5t9 0.5h5l1 -1h3q2 0 4 -0.5t4 -0.5l16 -4q7 -3 15 -9q7 -6 12 -15
q4 -8 4 -17q1 -5 0.5 -8.5t-1.5 -7.5q0 -9 -3 -15q-5 -17 -10 -28l-13 -26l-13 -24l-30 -48l-16 -24l-3 -4q8 -6 12 -8q23 -15 49 -20q7 -1 13 -1.5t13 -0.5q14 0 26 3q28 7 47 24q9 7 19 18l5 7l14 28q5 10 15 13.5t20 -1.5q9 -5 12.5 -14t0.5 -18q-11 -28 -22.5 -54.5
t-22.5 -53.5q-11 -26 -22.5 -53t-22.5 -53q-5 -13 -10.5 -26t-10.5 -27q-5 -12 -10 -26l-9 -27q-4 -13 -7 -26t-5 -25q-1 -7 -1.5 -13t-0.5 -11l2 -9q0 -3 2 -7q2 -3 5 -5q6 -4 9 -5q2 0 3 -0.5t3 -0.5h3q1 -1 3 -1q8 0 12 1l12 3l12 5l23 15q21 17 41 40l9 11q2 3 4 5.5
t4 5.5q5 6 9 12l8 12q32 45 60 98q8 13 14 25.5t13 25.5l6 13l7 13l11 26q5 10 14 6q5 -2 6.5 -6q0.642853 -1.71429 0.642853 -3.42856q0 -2.28571 -1.14285 -4.57144l-7 -14l-6 -13l-14 -26q-7 -13 -13.5 -25.5t-14.5 -25.5q-12 -24 -29 -50q-8 -13 -16 -25t-17 -24
l-17 -24l-19 -23q-10 -11 -20 -21.5t-21 -21.5q-9 -9 -24 -19q-7 -5 -14 -8q-5 -4 -15 -7q-6 -2 -16 -4q-4 0 -5 -1h-13q-9 0 -19 3q-5 2 -9.5 4.5t-8.5 6.5q-5 4 -8 8t-6 9q-2 5 -3.5 9.5t-3.5 9.5q-3.2 14.4 -3.2 27.52q0 3.28 0.199997 6.48q0 17 3 32q2 8 3.5 15.5
t3.5 15.5q8 29 17.5 57t20.5 56l22 54t23 53q4 8 7.5 17t8.5 17q-23 -16 -47 -20q-17.8462 -4.92307 -36.071 -4.92307q-11.3905 0 -22.929 1.92307q-30 5 -56 19q-8 3 -13 7q-5 -6 -8.5 -12.5t-7.5 -12.5t-7.5 -11.5t-6.5 -11.5q-3 -4 -7 -12l-6 -13q-4 -9 -13 -5
q-4 2 -5.5 6t0.5 8v1zM64 417l15 23l15 24l14 24l13 24l11 25q5 14 8 25q2.25 11.25 2.25 19.6875q0 2.8125 -0.25 5.3125q0 6 -3 9l-6 7l-10 3q-3 1 -11 1h-8l-1 -1h-2q-2 -1 -4.5 -1.5t-4.5 -2.5q-11 -7 -16 -15q-3 -1 -4 -4l-3 -4l-6 -10q-6 -10 -10.5 -21t-8.5 -22
l-3 -12q0 -2 -0.5 -3t-0.5 -3l-1 -3v-3q-1 -1 -1 -3v-3q0 -2 -0.5 -3t-0.5 -3v-11q2 -26 13 -46q2 -5 5.5 -9t6.5 -9z" />
    <glyph glyph-name="s" unicode="s" horiz-adv-x="287" 
d="M192 517q-1 3 -5 7l-3 2q-1 0 -1.5 0.5t-1.5 0.5q-1 1 -4 1h-9q-8 -2 -13 -4q-6 -3 -10 -7q-2 -1 -2.5 -2t-1.5 -2q0 -1 -0.5 -1t-0.5 -1l-2 -2l-1 -2q-4 -4 -7 -12q-4 -8 -5 -13q-3 -8 -3 -15q-2 -8 -2 -16.5v-17.5q0 -8 1 -17l2 -18q2 -18 5.5 -36.5t7.5 -36.5l12 -57
l4 -19l6 -40q2 -10 3 -20t1 -21v-21t-1 -21q-2 -10 -3.5 -20.5t-5.5 -20.5q-2 -5 -3.5 -10.5t-3.5 -10.5l-10 -20q-6 -9 -13.5 -17.5t-16.5 -15.5q-19 -16 -41 -20q-15.3333 -4 -29.7778 -4q-7.22222 0 -14.2222 1q-22 3 -41 14q-18 10 -33 28q-14 18 -20 37q-2 5 -2.5 10
t-1.5 10v21q1 20 5 39.5t10 38.5q12 37 30 72q8 17 17.5 34.5t19.5 34.5l38 67l22 42q0 17 5 40q1 10 6 23q2 5 4.5 10.5t5.5 10.5q4 5 7.5 10t8.5 10l2 2l3 3h1v1h1l2 2q4 3 12 7q14.1304 7.34784 28.8998 7.34784q11.3611 0 23.1002 -4.34784q8 -4 11 -7l5 -4l5 -6l3 -6
q1 -2 1 -6q0.800003 -2.79999 0.800003 -5.28003q0 -3.71997 -1.8 -6.71997q-2 -4 -4 -2zM61 382l-42 -64q-22 -35 -39 -67q-18 -34 -30 -70q-3 -9 -5.5 -18t-4.5 -18q-2 -10 -3 -19t-1 -18v-10q1 -3 1 -9l5 -17q6 -16 19 -29q26 -24 62 -26q19 0 32 5q17 7 26 17
q6 5 10.5 11.5t8.5 13.5q2 4 3.5 7.5t3.5 7.5l5 17q4 17 4.5 34.5q0.0999985 3.5 0.0999985 7.02q0 14.08 -1.6 28.48q-1 8 -2 17t-3 18l-9 37l-4 18l-5 19q-3 9 -5.5 18.5t-4.5 18.5q-5 20 -9 39t-6 39z" />
    <glyph glyph-name="t" unicode="t" horiz-adv-x="279" 
d="M500 811q9 -4 17.5 -8t16.5 -9t15.5 -11.5t13.5 -14.5q12 -15 18 -35q3 -9 3.5 -19q0.166687 -3.33331 0.166687 -6.66669q0 -6.66669 -0.666687 -13.3333q-3 -19 -14 -36q-9 -14 -24 -28q-8 -6 -15.5 -10t-15.5 -9q-8 -4 -16.5 -6.5t-17.5 -4.5q-8 -2 -16.5 -3t-17.5 -2
h-17.5t-17.5 -1q-17 2 -33.5 4.5t-33.5 6.5q-34 8 -65 21q-16 6 -31.5 13t-29.5 15l-20 9l-13 -32l-21 -50q-20 -50 -40.5 -99t-40.5 -100q-10 -25 -19.5 -49.5t-17.5 -49.5q-9 -26 -17 -50.5t-16 -50.5l-12 -50q-4 -25 -6 -50q0 -6 -0.5 -11.5t0.5 -11.5v-10t2 -10
q1 -10 7 -17q3 -4 8 -5q4 -2 10 -4q1 0 2 -0.5t3 -0.5h5q3 0 5.5 0.5t5.5 1.5q9 3 21 11q5 3 10.5 7t10.5 9q5 4 9 8.5t9 9.5q9 10 17.5 20t16.5 21q5 5 8.5 10.5t7.5 10.5q8 10 16 22l30 44t29 45l27 46q7 11 13.5 23t12.5 24q5 8 14 4q8 -5 4 -14l-27 -47
q-7 -11 -13.5 -23t-14.5 -23q-14 -23 -28.5 -45.5t-30.5 -45.5q-16 -22 -32.5 -43.5t-35.5 -41.5l-20 -19q-5 -5 -10.5 -9.5t-10.5 -8.5l-12 -9l-13 -7q-6 -2 -16 -4q-1 0 -2 -1h-14q-6 0 -16 2t-17 6q-8 4 -15 12q-7 6 -11 14l-4 7l-3 8q-4 9 -5 16q-3 15 -3 30q0 8 0.5 15
t0.5 15l4 28q2 14 5 27.5t6 27.5q14 54 31 105.5t36 102.5t39.5 100.5t41.5 99.5l21 50l14 32q-13 5 -25 9t-25 8q-16 5 -32 9t-32 6q-17 2 -33.5 3.5t-32.5 1.5q-17 -1 -33 -3t-32 -7q-8 -2 -15.5 -4.5t-15.5 -6.5q-7 -4 -13.5 -8t-13.5 -9q-6 -5 -11 -11q-7 -6 -11 -12
q-5 -5 -8 -13q-2 -3 -3.5 -6t-3.5 -8q-3 -16 -2 -29q0 -11 9 -25q5 -5 3.5 -11t-6.5 -10q-5 -5 -11.5 -4t-10.5 7q-2 0 -2 3v1q-5 9 -6 19t-1 21q1 9 3.5 18.5t6.5 17.5l9 16q4 7 11 14l12 13l14 10q32 21 63 28q33 9 68 9q17 0 33.5 -1.5t33.5 -3.5q17 -3 33.5 -6.5
t32.5 -8.5q14 -4 26.5 -8t25.5 -9l3 7l84 198q10 24 20 48.5t19 49.5l9 25l9 25l14 50q2 6 3 12.5t2 12.5t1.5 12t-0.5 12q0 11 -5 19q-2 4 -6 5l-4 2h-3l-1 1h-2q-8 0 -8 10q2 6 8 8h8q3 0 9 -2q10 -2 16 -9q7 -5 10 -15q2 -4 3 -7.5t2 -7.5q2 -4 2 -7.5t1 -7.5v-15v-14.5
t-2 -14.5q-3 -29 -9 -55l-6 -26l-8 -27q-8 -26 -16 -51.5t-18 -51.5q-9 -26 -18.5 -51t-19.5 -51l-41 -100l-3 -7l21 -9q14 -8 29.5 -14t31.5 -12q31 -12 63 -18q35 -8 65 -8q8 -1 16 -0.5t16 1.5q17 2 32 6q8 2 15 4t14 6q17 8 25 18q10 9 19 23q3 7 5.5 13t2.5 14
q1 6 -1 14q0 7 -3 13q-5 14 -15 23q-9 10 -22 17q-8 5 -13 6l-16 4q-7 2 -11 8.5t-2 14.5t8.5 12.5t14.5 2.5q1 0 1 -0.5t1 -0.5z" />
    <glyph glyph-name="u" unicode="u" horiz-adv-x="458" 
d="M130 477l-27 -62l-13 -31l-14 -31q-13 -32 -26 -62.5t-25 -62.5l-11 -32q-7 -17 -11 -31l-10 -32l-4 -16l-4 -16q-2 -8 -3.5 -15.5t-2.5 -15.5q-2 -8 -3 -15t-1 -14q0 -4 0.5 -7t0.5 -5q2 -7 4 -9l3 -3q4 -2 5 -2q2 -1 6 -1h7q8 1 15 3.5t14 6.5q4 2 7 4t7 4l13 10
q6 6 12 11.5t11 12.5q6 6 11.5 12.5t10.5 13.5q21 29 38 56q8 14 17 28.5t17 29.5l13 24l15 41q11 28 23 55.5t25 54.5q7 14 13 26.5t14 26.5q6 12 14 26l3.5 7t3.5 6l8 13q5 10 15.5 12.5t19.5 -3.5q9 -5 12 -14.5t-2 -18.5l-25 -53l-24 -53q-13 -26 -24.5 -52.5
t-22.5 -53.5q-6 -14 -11.5 -27t-10.5 -27t-9.5 -27t-9.5 -27q-2 -7 -3.5 -13.5t-3.5 -13.5t-3.5 -13.5t-3.5 -13.5q-5 -14 -6 -26q-3 -15 -2 -25q0 -13 7 -20q3 -5 9 -6q4 -2 12 -2q4 -1 11 2q4 1 12 5l12 8q2 2 3 2.5t2 2.5q2 1 6 5q11 9 20.5 20t18.5 23q9 11 17.5 23
t16.5 24q17 24 33 48.5t32 49.5l30 51l28 51q4 7 12 4q4.45456 -3.18182 4.45456 -7.17355q0 -2.28101 -1.45456 -4.82645l-60 -102q-8 -13 -16 -25.5t-16 -24.5l-33 -49l-18 -24t-19 -23q-5 -6 -9.5 -11.5t-9.5 -10.5l-21 -22q-6 -5 -11.5 -10t-12.5 -10t-14 -8
q-4 -2 -8 -3t-9 -2h-8l-9 2q-10 2 -17 7q-5 2 -8 5.5t-6 7.5q-5 6 -9 16q-7 18 -8 33q-1 8 -1 16.5v16.5q1 23 8 51l-6 -9l-20 -28t-21 -28q-5 -7 -10.5 -13.5t-11.5 -12.5q-12 -13 -25 -25q-11 -11 -28 -23l-16 -9q-5 -2 -9 -3.5t-9 -3.5q-4 0 -10 -2h-11q-4 0 -12 2
q-6 1 -11 5l-10 9q-4 4 -7 10q-5 8 -8 20l-2 10t-1 10q-1 3 -1 10v9q0 19 3 37l3 17l4 18q2 8 4 17t5 17q2 8 4.5 17t5.5 17q2 8 5 16.5t6 16.5q11 33 24 65t27 64l14 31l14 31q4 8 8 15.5t8 15.5l8 16q2 4 4 7.5t4 7.5q5 9 15.5 12q3.9375 1.125 7.66406 1.125
q6.21094 0 11.8359 -3.125q9 -5 12.5 -14.5t-0.5 -18.5h-1z" />
    <glyph glyph-name="v" unicode="v" horiz-adv-x="354" 
d="M129 477l-21 -50q-6 -12 -11.5 -24.5t-10.5 -24.5l-42 -100l-10 -25l-9 -25q-5 -13 -9.5 -25.5t-9.5 -25.5q-3 -11 -8 -25q-2 -7 -3.5 -13t-3.5 -12q-4 -11 -7 -26q-2 -6 -3 -12t-2 -13l-3 -12q0 -4 -2 -12q-2 -11 0 -22q0 -4 2 -8q1 -2 5 -6l8 -3h11q6 1 11.5 3.5
t11.5 5.5q5 3 10.5 6.5t10.5 7.5l20 18l9.5 9.5l9.5 9.5l17 21l17 21q8 11 15.5 22t15.5 23l28 46t27 47l25 52q-2 5 -2.5 10t-1.5 10q-3 14 -4.5 28t-2.5 28t-1 28t2 28q1 14 2.5 28t4.5 28q2 14 6 27.5t10 27.5q7 16 16 26q5 8 11 13q3 2 6.5 4.5t8.5 4.5q8 4 19 4
q8 0 12 -2q6 -2 10 -7q3 -3 7 -9l3 -10q2 -10 2 -16q-1 -8 -1.5 -15t-2.5 -15q-1 -7 -2.5 -13.5t-3.5 -13.5t-4 -13.5t-4 -13.5l-9 -26q-20 -53 -42 -102l-18 -38q0 -3 1 -4l4 -12l4 -12l6 -10l4 -4l4 -4q8 -7 18 -4q6 1 11 4q2 2 5 3.5t5 3.5q5 4 9 8.5t9 9.5q9 11 16.5 22
t14.5 22q3 7 11 3q4.45456 -1.90909 4.45456 -5.84299q0 -2.24792 -1.45456 -5.15701h-1q-7 -12 -14.5 -23.5t-17.5 -22.5q-5 -5 -9.5 -10.5t-10.5 -10.5q-5 -5 -12 -8q-5 -4 -15 -7q-4 -1 -8 -1.5t-9 1.5q-9 2 -16 7q-6 5 -11 11q-6 8 -8 13l-6 11l-19 -35
q-7 -12 -13.5 -24t-14.5 -24q-7 -12 -14 -23.5t-15 -23.5q-8 -11 -15.5 -22.5t-15.5 -22.5t-16.5 -22t-17.5 -22q-16 -19 -39 -40q-11 -10 -23 -17q-7 -4 -13.5 -7t-14.5 -5q-6 -2 -8 -2h-2l-2 -1h-5q-8 0 -18 3t-16 11q-4 4 -6.5 7.5t-4.5 7.5q-5 9 -6 16q-1 5 -2 8.5
t-1 7.5q-1 3 -1 8q0 2 -0.5 4t-0.5 4v15q0 14 3 29l2 14t3 14l7 28l7 27q8 26 17 52.5t20 52.5q10 26 20.5 51t22.5 51q5 13 11 25t12 25l7 12l6 12l6 13l7 12q5 9 15.5 12t19.5 -2t12.5 -14.5t-0.5 -18.5h-1zM250 351l21 50q5 13 9.5 25.5t8.5 25.5q5 14 8.5 26.5t5.5 25.5
q2 7 3 13.5t2 12.5q1 7 1 13v12q0 5 -2 11q0 1 -0.5 2t-0.5 2q-1 0 -1 0.5t-1 0.5v1h-2q-2 0 -8 -2q-8 -4 -14 -13q-4 -5 -6.5 -10l-5.5 -11l-9 -24l-6 -25q-3 -13 -4.5 -26t-3.5 -27q-3 -26 -3 -53v-22t2 -22z" />
    <glyph glyph-name="w" unicode="w" horiz-adv-x="511" 
d="M308 477l-22 -50l-21 -49l-42 -99l-10 -25l-9 -25q-5 -13 -9.5 -25.5t-9.5 -24.5q-2 -7 -4 -13t-4 -13q-2 -6 -3.5 -12t-3.5 -13q-2 -6 -3.5 -12.5t-3.5 -12.5t-3 -12t-2 -13q-2 -6 -3 -12l-2 -12t-1 -11.5v-10.5l2 -9l4 -6l4 -2t4 -1q2 -1 5 -1h6q11 2 22 8q9 4 21 14
l10 8t10 9l18 20q9 10 17 20.5t16 21.5l30 45l27 47l25 48q5 9 9 18l8 18q0 2 -0.5 3t-0.5 3q-2 7 -3.5 13.5t-3.5 14.5q-3 14 -4.5 27.5t-2.5 27.5q-0.5 14 -0.5 28t0.5 28q2 30 7 56l6 27q5 17 10 28q7 15 15 26q2 3 4.5 6.5t5.5 6.5q5 5 15 10q8 5 18 5h5q4 0 6 -1
q6 0 11 -5q4 -2 8 -8t5 -9q3 -9 3 -17q1 -8 0.5 -15t-1.5 -15l-6 -28q-2 -7 -3.5 -13.5t-3.5 -13.5t-4 -13t-4 -13q-16 -52 -38 -103q-6 -14 -11.5 -27t-12.5 -27l6 -14l6 -11l8 -7q7 -7 18 -4q9 3 21 11l18 19q8 10 15.5 21t14.5 22q5 7 11 3
q4.45453 -1.90909 4.45453 -5.84299q0 -2.24792 -1.45453 -5.15701q-8 -12 -15.5 -23.5t-16.5 -22.5q-5 -5 -9.5 -10t-10.5 -10q-5 -5 -12 -9q-4 -3 -14 -7q-5 -1 -9 -1.5t-8 0.5q-5 1 -9 3l-8 4q-6 5 -11 11l-8 13q-1 0 -1 1l-12 -23q-6 -12 -12.5 -24.5t-13.5 -23.5
q-7 -12 -13.5 -24t-14.5 -24l-29 -46l-34 -44q-18 -23 -38 -40q-11 -10 -23 -17q-7 -4 -14 -7t-15 -5q-1 -1 -4 -1h-3l-1 -1h-8q-10 0 -18 4q-11 5 -16 12q-3 4 -5.5 8t-4.5 8q-4 9 -5 16l-3 16q-1 7 -1.5 14t0.5 15l-6 -8q-11 -14 -21.5 -27t-24.5 -25q-11 -11 -28 -21
q-5 -2 -8.5 -4t-8.5 -4l-10 -3l-9 -2h-11q-4 0 -12 2q-5 1 -11 6q-7 4 -9 8q-5 5 -7.5 10t-4.5 10t-3 10l-2 10q-2 10 -2 19v19q1 9 1.5 18t2.5 17l7 34q2 5 2.5 9t2.5 8l4 17l10 33q3 8 5.5 16t5.5 16q11 32 23.5 63.5t26.5 63.5l29 61q2 4 3.5 7.5t3.5 8.5l8 15l8 15
q2 4 4 7.5t4 7.5q5 9 15.5 12t19.5 -2t12.5 -14.5t-0.5 -18.5h-1l-26 -61l-27 -61q-13 -31 -25.5 -61.5t-24.5 -61.5q-7 -17 -11 -31q-7 -17 -11 -31q-4 -10 -5 -15l-5 -16q-2 -8 -4 -15.5t-4 -15.5t-3.5 -15.5t-3.5 -15.5t-3 -15l-2 -14q0 -8 0.5 -13.5t2.5 -10.5t5 -7
q1 -1 2 -1t3 -1q1 -1 6 -1h7q4 0 7 1l14 5q13 6 26 17q11 8 23 22q3 3 5.5 6.5t4.5 6.5q3 3 5.5 6.5t4.5 6.5l24 37q1 5 1.5 9.5t2.5 9.5q2 7 3.5 13.5t3.5 13.5l7 27q5 14 8.5 27t8.5 26q5 12 10 26t10 26q10 26 20.5 51t22.5 50q5 13 11 25t12 25l6 12l7 12l6 13q4 8 7 12
q5 9 15 12t20 -2q9 -5 12 -14.5t-1 -18.5zM417 353l19 50q5 13 9 26l8 26q3 13 6 25.5t5 26.5q2 6 2.5 12.5t1.5 13.5v12.5t-1 11.5q0 6 -2 10q-3 3 -2 3l-1 1l-1 1h-3q-2 -1 -3.5 -1t-3.5 -2q-7 -3 -15 -14q-7 -11 -11 -21q-5 -11 -8.5 -23.5t-6.5 -25.5l-4 -26l-4 -26
q-3 -27 -3 -53q0 -14 1 -27t3 -26v-6z" />
    <glyph glyph-name="x" unicode="x" horiz-adv-x="377" 
d="M293 495l-13 -16l-12 -15l-25 -31l-49 -62q-12 -16 -24 -31.5t-25 -31.5l-25 -33v-5q-0.666664 -19.3333 -0.666664 -38.2222q0 -9.44444 0.166664 -18.7778q0.5 -28 2.5 -57q2 -14 3 -27.5t3 -27.5q1 -7 2 -13.5t3 -12.5q2 -7 3.5 -13t3.5 -12q2 -2 2.5 -5t1.5 -5l4 -10
l4 -7q2 -4 5 -5q1 -1 2 -1h2v-1h4q3 0 11 2q2 2 5 3t6 3q6 3 11 8l10 9l10 11l9 10l9 11q17 21 33 47q8 12 15.5 24t14.5 25q17 26 29 50l27 51l13 26l12 26q4 7 12 4q5.33334 -2.66666 5.33334 -6.66666q0 -2 -1.33334 -4.33334v-1q-4 -6 -7 -12.5t-6 -13.5q-4 -6 -7 -12.5
t-7 -13.5q-12 -26 -27 -51q-28 -52 -59 -100q-15 -26 -33 -48q-9 -12 -18 -23.5t-20 -22.5l-11 -11l-12 -10q-7 -5 -16 -10q-6 -2 -11 -2l-1 -1h-9q-13 2 -22 6q-5 2 -9 5.5t-8 6.5q-13 13 -20 30q-4 8 -6.5 15.5t-4.5 15.5l-6 30q-3 15 -4.5 30t-3.5 30q-2 13 -2.5 26
t-1.5 26l-64 -84q-12 -16 -24 -31.5t-23 -31.5l-24 -32l-12 -15l-12 -16q-2 -4 -6.5 -4.5t-7.5 2.5q-5.0625 2.8125 -5.0625 6.89062q0 3.17188 3.0625 7.10938l12 16l13 15l24 31l49 62q13 16 25 31.5t24 31.5l28 35v42q0 29 1 58.5t3 58.5l3 39l-8 -18q-5 -12 -11 -23.5
t-11 -22.5l-12 -22q-4 -8 -7 -11l-7 -11q-4 -7 -10 -1q-6 4 -2 9q1 2 1 3t1 2l3 6l6 11l11 22q5 11 10 22.5t10 23.5q5 11 9.5 22.5t9.5 23.5l15 42q2 11 10.5 17.5q6.5 4.97058 14.4619 4.97058q2.44983 0 5.03806 -0.470581q10 -2 16.5 -9.5t5.5 -18.5l-2 -28l-2 -29
l-6 -114l-1 -26l13 17q12 16 24.5 31.5t23.5 31.5q13 16 24.5 31.5t23.5 31.5l24 31l24 32q5 8 14 2q7 -5 2 -14z" />
    <glyph glyph-name="y" unicode="y" horiz-adv-x="415" 
d="M-577 -486q15.3333 -0.666656 30.4445 -0.666656q7.55554 0 15.0555 0.166656q22.5 0.5 45.5 2.5t45 4t45 7q22 4 44 9t43 12q22 8 43 16t41 18q40 19 77 46q18 13 34.5 27t33.5 29q16 16 30.5 32.5t28.5 33.5l6 8q3 3 7 9q4 5 7 9t6 9q7 9 13 18l12 18q23 38 43 77.5
t38 81.5l16 41q5 11 8.5 21.5t7.5 21.5q8 21 15.5 42t15.5 43l26 75l-5 -7q-8 -14 -17 -27.5t-19 -27.5q-9 -14 -19 -26.5t-21 -24.5q-5 -7 -11 -13t-11 -12l-24 -23q-7 -5 -13.5 -10t-14.5 -10q-13 -9 -32 -15q-6 -2 -9 -2l-1 -1h-6q-1 0 -1.5 -0.5t-1.5 -0.5q-6 0 -10 1
q-5 0 -11 2l-11 6q-6 4 -9 9q-4 5 -6.5 10t-4.5 10q-2 8 -4 20q-1 3 -1 9v9q0 9 0.5 18t1.5 18q1 4 1.5 8t2.5 8q1 5 1.5 9t2.5 8l4 16l4 16q3 8 5.5 16t5.5 16q2 8 5 15.5t6 15.5q11 31 24.5 61t27.5 60l14 29l15 29l7.5 15t8.5 14q3 7 8 14q2 4 4 7.5t4 7.5q5 9 15.5 11.5
q3.5 0.833313 6.94444 0.833313q6.88889 0 13.5556 -3.33331q8 -5 11.5 -15t-1.5 -19l-42 -87l-13 -29q-14 -29 -27 -58t-25 -58q-3 -8 -6 -15t-5 -15q-3 -8 -6 -14.5t-5 -14.5q-3 -8 -5.5 -15t-4.5 -15l-5 -15l-3 -14q-2 -8 -3.5 -15t-3.5 -14l-2 -14t0 -12q0 -8 1 -10
l2 -4l2 -3q2 -1 4.5 -2t5.5 -1l1 -1h5q5 0 7 1q15 2 28 9l13 8q6 3 12 9q7 5 12.5 10t11.5 11q10 10 21 24q10 12 19.5 25t18.5 26l34 54q16 27 31.5 54t29.5 56l30 71l20 42q5 11 10.5 21t11.5 21q5 9 15 11.5t19 -2.5t12 -14.5t-2 -18.5q-5 -10 -9.5 -19.5t-9.5 -20.5
t-9 -20.5t-8 -20.5q-9 -21 -16.5 -42t-15.5 -42q-15 -43 -29.5 -86t-29.5 -87q-8 -22 -15.5 -43t-15.5 -43l-17 -43l-18 -43q-16 -35 -33.5 -70t-38.5 -69l12 15q15 19 29.5 38.5t28.5 39.5l28 39l27 41q13 20 26 40.5t26 41.5q13 20 25.5 41t24.5 42l50 83l25 42l13 21
l13 20q5 9 13 3q5.39999 -3 5.39999 -7.07999q0 -2.72 -2.39999 -5.92001q-6 -10 -14 -20q-3 -5 -6 -10.5t-7 -10.5l-26 -40l-51 -83l-52 -83q-13 -20 -25.5 -41t-26.5 -41l-27 -40l-27 -41q-14 -20 -28.5 -39t-29.5 -39q-8 -10 -15.5 -19.5t-15.5 -18.5q-8 -10 -16 -19
l-16 -18q-16 -17 -32 -32.5t-33 -30.5q-9 -9 -18.5 -17.5t-20.5 -16.5q-19 -15 -38.5 -28t-39.5 -25q-20 -11 -41.5 -21t-43.5 -19q-44 -17 -88 -29q-22 -6 -44.5 -10.5t-45.5 -8.5q-44 -7 -91 -12q-23 -2 -46 -3t-46 -3q-10 0 -10 10q-1 4 2 7t7 3h1z" />
    <glyph glyph-name="z" unicode="z" horiz-adv-x="362" 
d="M1 323q1 2 1 3t1 2l3 6l6 11l11 22q5 11 10 22.5t10 23.5q5 11 9.5 22.5t9.5 23.5q5 11 8 22.5t8 23.5l4 8q6 9 16.5 11.5q3.08823 0.735291 6.04671 0.735291q7.10035 0 13.4533 -4.23529q1 0 3 -2l3 -2l2 -2q2 -2 6 -4q5 -5 11 -8q6 -4 12 -7.5t12 -5.5q25 -12 53 -15
q9 -0.899994 17.64 -0.899994q20.16 0 38.36 4.89999q12 4 23.5 9t22.5 13l3 4v-1l1 1q8 8 14 0q7 -7 0 -14q-27 -30 -53.5 -60.5t-53.5 -61.5l-105 -124q-27 -31 -53 -62l-52 -62l-71 -85l33 16q10 5 20 9t21 8q22 9 43 15q23 6 46 9q6 1 12 1.5t12 0.5q7 -1 13 -1t13 -2
q14 -3 28 -11q14 -9 23 -21q0 -1 1 -2l2 10t3 11q1 10 6 22q8 22 18 41l11 19q3 5 6 9t7 9l52 71q12 17 23 35.5t19 38.5q4 10 13 5q6.23077 -2.76923 6.23077 -7.45563q0 -2.08286 -1.23077 -4.54437v-1q-10 -18 -23 -38q-6 -10 -12.5 -19t-13.5 -18q-6 -9 -12.5 -17.5
t-13.5 -17.5q-14 -18 -26 -35q-13 -17 -23 -36t-16 -39q-5 -18 -7.5 -37t-2.5 -38l2 -16v-1q1 -11 -6.5 -19.5t-19.5 -9.5q-1.29411 -0.117647 -2.55363 -0.117647q-9.44637 0 -16.9464 6.61765q-8.5 7.5 -9.5 18.5v3q0 11 -1 16q-2 9 -4 12q-3 7 -8 9q-4 4 -13 7
q-6 2 -16 4q-5 0 -9.5 0.5t-9.5 -0.5q-22 0 -41 -4q-21 -3 -41 -9l-20 -6t-20 -7q-11 -3 -20.5 -6.5t-20.5 -8.5l-20 -8l-9 -4l-10 -5q-9 -4 -14 4q-1.28571 2.14286 -1.28571 4.46939q0 3.10204 2.28571 6.53061q26 32 52 63t52 63l105 124q26 32 53 62.5t53 61.5l58 67
q-26 -10 -57 -10q-5.23077 -0.307678 -10.4379 -0.307678q-28.6391 0 -56.5621 9.30768q-18 5 -32 12l-15 8l-8 4l-4 3l-3 1l-9 -25l-20 -46q-5 -12 -11 -23.5t-11 -22.5l-12 -22q-4 -8 -7 -11l-7 -11q-4 -7 -10 -1q-6 4 -2 9z" />
    <glyph glyph-name="A" unicode="A" horiz-adv-x="1309" 
d="M987 -196q5 -1 9 -1.5t9 -0.5q8 0 16 3l14 7q2 1 6 5l5 5q3 3 5.5 6.5t4.5 6.5l4 7l4 8q9 17 14 32q4 9 5 16l3 9l2 8l9 35q4 18 7 36l6 36q6 37 10.5 73.5t8.5 73.5l7 63h-1q-14 2 -27 4.5t-26 5.5q-14 3 -26.5 6.5t-25.5 7.5l-51 15l-51 16q-19 5 -37.5 10.5
t-37.5 10.5l-54 -81q-30 -45 -61.5 -88t-65.5 -85q-35 -42 -71 -82t-77 -77t-86 -68l-23 -15q-6 -4 -12 -7.5t-12 -6.5q-12 -7 -24.5 -13t-25.5 -12q-26 -11 -52.5 -18.5t-54.5 -12.5q-14 -2 -27.5 -3t-27.5 -1h-14q-5 1 -15 1l-14 2t-14 3q-16 3 -28 10q-16 7 -26 16
q-10 8 -21 22q-4 7 -7.5 13.5t-5.5 14.5q-2 7 -3 14t-2 15q-1 7 -1 14t1 14q2 14 4.5 27.5t6.5 27.5q7 23 20 51q6 12 12.5 24t13.5 23q14 23 30.5 45t33.5 42l37 39q10 9 19.5 18.5t20.5 17.5q11 9 21 17.5t21 16.5t22 15.5t22 14.5q23 14 46.5 27t48.5 24t51 19.5t52 14.5
q50 13 106 16q15.4286 1.14285 30.8571 1.14285l23.1429 -0.642853q27 -1.5 54 -4.5q20 -2 39 -5t39 -8l62 98q29 45 57 89.5t57 89.5l60 89l32 44q8 11 16.5 21t17.5 21t18 21t19 19q10 10 20.5 19.5t21.5 17.5q22 18 48 30q16 5 28 8q10 2 15 2h15q3 -1 5.5 -3.5t1.5 -6.5
q0 -6 -7 -8h-3q-4 -7 -6.5 -13.5t-4.5 -13.5q-3 -8 -5.5 -17t-4.5 -18q-5 -17 -8 -35.5t-6 -36.5l-6 -37q0 -5 -0.5 -9t-1.5 -9t-1.5 -9t-0.5 -9l-5 -37l-4 -37q-4 -38 -7.5 -74.5t-6.5 -74.5l-7 -75q-2 -18 -3.5 -36.5t-3.5 -37.5q-2 -17 -3.5 -32.5t-3.5 -32.5
q11 2 20.5 4.5t19.5 6.5q11 5 22 12t20 16q10 8 17.5 18t15.5 21q3 5 8 2q3.125 -1.875 3.125 -4.53125q0 -1.59375 -1.125 -3.46875l-15 -23l-18 -20q-23 -21 -46 -32q-11 -5 -23 -8t-24 -5l-9 -69q-1 -9 -2 -18.5t-3 -18.5l-6 -38l-6 -37l-8 -37q-4 -19 -8 -37.5
t-10 -37.5l-12 -37l-2 -5l-2 -4l-4 -9l-9 -18q-10 -20 -21 -35l-14 -16l-16 -14q-6 -4 -9 -5q-3 -2 -5.5 -3t-5.5 -2q-5 -2 -10.5 -3t-10.5 -2q-12 0 -21 3q-5 2 -9.5 4t-9.5 4t-1 6q2 2 4 2zM723 334q-26 3 -52.5 4q-13.25 0.5 -26.375 0.5t-26.125 -0.5q-52 -3 -103 -15
t-99 -33q-25 -11 -48 -23t-45 -26q-21 -13 -44 -29q-11 -8 -21 -16t-20 -17q-10 -8 -19.5 -17t-18.5 -19q-10 -9 -19 -18.5t-17 -19.5q-17 -20 -32.5 -41t-28.5 -44q-14 -24 -24 -46q-12 -24 -18 -48q-8 -27 -8 -50q-0.400002 -5.2 -0.400002 -10.24q0 -20.16 6.4 -37.76
q2 -5 4.5 -10t6.5 -10q3 -5 7 -8.5t9 -7.5q19 -13 42 -16q6 -2 12 -2h12q3.5 -0.5 6.75 -0.5t6.25 0.5h12q13 1 25.5 3t24.5 4q52 13 95 34q11 6 22.5 12t22.5 13q5 3 10.5 6.5t10.5 7.5q5 3 10.5 6.5t10.5 7.5q21 15 40.5 32t38.5 34q19 18 37 36.5t36 38.5q17 20 33.5 40
t32.5 40q33 42 63.5 84t59.5 87q11 15 21 31l20 32l-34 6t-34 5zM1246 873q-6 -3 -10 -7q-4 -2 -10 -8l-18 -17q-19 -19 -34 -38l-32 -40l-30 -43l-29 -43l-29 -44q-8 -11 -14.5 -22.5t-13.5 -22.5q-29 -45 -56 -90.5t-56 -90.5l-51 -82q18 -5 35.5 -10t35.5 -10
q26 -8 50.5 -16t50.5 -16t51 -14t51 -10h1l8 69q2 19 4 37.5t4 37.5q2 18 4.5 36.5t5.5 37.5q9 77 21 149l7 38l4 18t4 19q1 5 1.5 9t2.5 9l4 19l10 37q5 18 11 36t14 36q4 9 8.5 17.5t9.5 17.5l8 13q-13 -5 -23 -12z" />
    <glyph glyph-name="N" unicode="N" horiz-adv-x="1119" 
d="M691 825h-1l-1 -1h-1l-3 -2q-4 -2 -6 -4l-9 -10l-5 -7l-4 -7l-7 -14l-7.5 -15t-6.5 -15l-13 -32l-13 -32l-12 -32l-24 -66q-23 -66 -45.5 -132.5t-45.5 -132.5q-19 -53 -40 -108l62 112q45 78 91.5 155t99.5 151l54 73q14 17 28.5 34.5t30.5 34.5q15 17 31.5 33t33.5 30
t38 27q11 6 21.5 11t21.5 9q12 5 25 6h12q2.66669 0.666687 4.88892 0.666687q1.11108 0 2.11108 -0.166687q3 -0.5 6 -0.5q7 -1 13.5 -2.5t13.5 -5.5q8 -4 12 -8q8 -6 11 -10q9 -10 14 -24q2 -6 4 -12.5t3 -12.5q3.57141 -18.5714 3.57141 -36.1224
q0 -7.02039 -0.571411 -13.8776q-2 -24 -6 -46.5t-9 -45.5t-11.5 -45t-13.5 -44q-14 -44 -29.5 -86t-32.5 -85q-17 -42 -34 -83.5t-34 -83.5t-34 -83t-34 -83l-16 -41l-15 -42l-14 -41l-12 -42q-6 -19 -9 -40q-1 -5 -1 -9v-9l2 -7l3 -5q1 -2 5 -4v-1h1q1 0 1 -0.5t1 -0.5
t2 -0.5t2 -0.5q7 -2 18 2t19 9q5 2 8.5 5.5t8.5 6.5q8 8 15.5 16t15.5 16t14.5 17t13.5 18q13 18 25.5 36.5t24.5 37.5l45 77q11 20 21.5 40t20.5 40q11 20 20.5 40t19.5 40l19 41l18 41q4 7 10 4q4.90002 -2.79999 4.90002 -6.57999q0 -1.62 -0.900024 -3.42001
q-9 -21 -18.5 -41.5t-20.5 -40.5q-10 -20 -19.5 -40t-20.5 -40l-43 -80q-11 -20 -22.5 -39t-23.5 -39q-11 -19 -23.5 -38t-26.5 -37t-28.5 -35.5t-31.5 -33.5l-17 -15q-5 -4 -10 -7.5t-11 -5.5q-11 -7 -26 -8h-7q-2 0 -4 1h-4q-10 4 -14 7q-4 2 -7 5.5t-5 6.5q-3 4 -7 14
q-5 14 -6 26q0 7 -0.5 13t-0.5 12l2 24q3 25 9 47l6 22t7 22l15 44l15 42q16 43 33 84.5t34 83.5t35 83t35 83q8 21 16.5 41.5t16.5 41.5l32 83l14 42t12 43q3 11 6 21t5 21t3.5 21t3.5 21l2 20v20q-2 21 -10 34q-3 6 -10 12q-6 4 -16 7q-2 0 -5 0.5t-5 0.5l-2 1h-8
q-5 0 -10 -0.5t-10 -1.5q-20 -5 -39 -15q-18 -10 -37 -24q-9 -6 -17.5 -13t-16.5 -15l-15.5 -15.5l-15.5 -15.5q-16 -17 -30.5 -34t-28.5 -34q-14 -18 -27 -36l-26 -36q-26 -37 -50 -75l-48 -76q-23 -38 -45.5 -77t-45.5 -78q-42 -75 -82 -150.5t-80 -150.5l-12 -23l-17 -31
q-5 -8 -9.5 -15.5t-9.5 -15.5l-22 -30l-3 -3l-3 -4l-6 -7l-12 -14q-26 -27 -57 -48l-16 -10t-17 -9q-8 -4 -17 -7t-19 -5t-19.5 -3.5q-5.7 -0.899994 -11.58 -0.899994q-3.92 0 -7.92 0.399994q-5 1 -9.5 1.5t-9.5 2.5q-12 3 -19 8q-9 5 -16 12.5t-12 15.5q-10 16 -12 37
q-1.5 9 -1.5 18.25t1.5 18.75q1 16 8 36q2 8 5.5 16.5t7.5 16.5q7 15 17 32q5 8 9.5 15.5t9.5 14.5l21 29q43 55 92 107q11 14 23 26.5t24 25.5l47 52q48 52 93 105q23 27 44 55t41 57q10 14 19 29t17 30q4 7 7 13.5t6 13.5l11 28l27 65q14 35 30 65l18 32q5 8 10.5 15
t11.5 15q13 16 28 27q9 7 18 11q3 1 5.5 1.5t5.5 0.5h10q1 0 1 -1h1q7 -2 5 -9q-2 -5 -6 -5zM477 486q-20 -29 -41 -57.5t-44 -55.5q-45 -55 -92.5 -106t-95.5 -103q-12 -13 -24 -25.5t-23 -26.5t-22 -27t-22 -27q-5 -8 -10 -14.5t-10 -14.5q-10 -13 -18 -29
q-5 -8 -8.5 -15.5t-7.5 -15.5l-6 -16t-5 -16q-5 -15 -7 -33q-1 -8.5 -1 -16.75t1 -16.25q3 -14 11 -29q8 -12 22 -20q13 -6 29 -6q14 0 31 5q15 4 29 14q7 5 13.5 9.5t12.5 9.5q13 11 23.5 23t21.5 26l9 14l5 6l2 4l2 4q10 15 17 29q5 8 9 14.5t8 14.5l16 31q8 15 14.5 30.5
t14.5 31.5q27 64 51 129q13 33 24.5 66t23.5 66l47 132l9 25z" />
    <glyph glyph-name="O" unicode="O" horiz-adv-x="791" 
d="M708 398q-5 -20 -10.5 -40.5t-12.5 -40.5t-14 -39t-15 -39q-17 -39 -36 -75q-10 -19 -20.5 -37t-21.5 -36q-23 -35 -48.5 -68t-54.5 -63l-30 -30l-32 -27q-36 -26 -73 -45q-10 -5 -19.5 -9t-20.5 -7q-5 -2 -10.5 -3t-10.5 -3q-2 -1 -6 -1l-2 -1h-3q-2 -1 -6 -1
q-1 -1 -5 -1q-11 -1.5 -22.5 -1.5t-23.5 1.5q-25 3 -45 12q-11 5 -21 11t-19 14q-10 7 -18 15.5t-15 17.5q-14 18 -24 39q-5 10 -9 20.5t-8 21.5q-13 42 -18 86q-3 21 -3.5 42.5t-0.5 43.5q1 22 3 43t5 42q3 22 6.5 42.5t8.5 41.5q10 40 24 82q6 18 14 40l15 39
q17 40 37 77.5t43 73.5q45 70 106 133q16 15 32 29t34 27l36 24q10 5 19.5 9.5t20.5 9.5q22 8 43 12q5 2 11 2.5t11 1.5h9l1 1h12q20 0 45 -5q24 -6 42 -16q21 -11 36 -25q8 -8 15 -16t13 -17q13 -17 22 -37t15 -40q7 -20 11 -40.5t6 -41.5q2 -11 2.5 -21t1.5 -21v-42
q-1 -42 -6.5 -83t-15.5 -82zM690 402q5 20 9 40t7 40t5 40.5t3 41.5v41l-3 40q-4 39 -17 80q-7 19 -15.5 37t-20.5 34q-6 8 -12.5 15t-14.5 13q-15 13 -33 21q-9 4 -18 6q-5 2 -9 2.5t-9 1.5q-8.79999 0.799988 -16.64 0.799988q-11.76 0 -21.36 -1.79999q-2 -1 -5 -1
q-2 0 -2.5 -0.5t-2.5 -0.5h-2v-1h-2q-2 0 -3 -0.5t-2 -0.5l-18 -6q-18 -6 -36 -15q-8 -5 -16.5 -9.5t-16.5 -9.5q-16 -10 -32 -23q-16 -12 -30.5 -25t-28.5 -27q-28 -29 -52 -61q-12 -16 -23.5 -32.5t-22.5 -33.5q-43 -71 -74 -143l-15 -38q-4 -9 -7 -18.5t-6 -19.5
q-7 -19 -12 -38t-10 -39q-10 -39 -15.5 -79t-6.5 -80q-0.199997 -7.8 -0.199997 -15.64q0 -31.36 3.2 -63.36q2 -19 6 -38t10 -37q2 -9 5.5 -18t7.5 -17l18 -33q5 -8 11 -14.5t12 -12.5q14 -14 29 -22q8 -4 16 -7.5t17 -5.5q16 -4 37 -4h14q2 1 5 1l19 3q10 2 19 4.5t19 6.5
q36 15 69 40l16 12t16 13q16 13 30 27q31 31 55 62l24 32l23 34q11 17 21 35t20 37q9 18 18 36.5t17 37.5t15 38t13 39q7 20 12 39.5t10 39.5z" />
    <glyph glyph-name="B" unicode="B" horiz-adv-x="1150" 
d="M496 196q3 8 5.5 15t4.5 15l21 62l31 98l-2 2l-25 14q-7 5 -13 8.5t-11 8.5l-23 19q-22 20 -40 43.5t-31 50.5t-20 55q-6 28 -6 58q0 29 6 58q8 30 19 55q14 26 31 49q17 24 39 41q19 18 45 34q13 8 25.5 14.5t25.5 11.5q26 11 53.5 17.5t56.5 9.5q14 0.5 28.25 0.5
t28.75 -0.5q29 -2 56 -6l28 -6t28 -8q7 -2 13.5 -4.5t13.5 -5.5l26 -12q13 -7 25.5 -14.5t24.5 -16.5q22 -17 44 -40q5 -6 9.5 -11.5t9.5 -12.5q8 -11 16 -25q15 -27 24 -57l6 -30q3 -17 3 -31v-30q-1 -8 -1.5 -15.5t-2.5 -15.5q-4 -29 -15 -58l-6 -14q-4 -10 -7 -14l-7 -14
l-8 -13q-17 -27 -39 -47q-5 -5 -11 -9.5t-12 -9.5t-12 -9t-13 -8q-26 -15 -54 -24q-26 -10 -55 -15q-6 -2 -12 -3l-12 -2q20 -5 39 -11t38 -15q39 -19 72 -51q16 -16 29.5 -34.5t24.5 -38.5q10 -20 17 -42.5t10 -45.5q2.25 -18 2.25 -35.5781q0 -29.2969 -6.25 -57.4219
q-5 -23 -14.5 -44t-21.5 -41q-7 -10 -13.5 -19.5t-14.5 -17.5q-8 -9 -15.5 -17t-16.5 -16q-15 -14 -35 -27t-38 -23q-39 -21 -81 -33q-20 -7 -41 -11.5t-42 -8.5t-42 -6l-42 -4q-42 -3 -85 -3q-41 0 -83 3q-85 5 -166 30q-20 7 -39.5 15t-38.5 18q-37 20 -70 47
q-17 14 -31.5 29t-26.5 32q-26 35 -41 74q-14 42 -17 83q-1 11 -1 21.75t1 21.25q2 21 6 42q9 41 29 79q10 19 22.5 36t26.5 33q32 32 66 52q19 11 38.5 19t40.5 13t42 6q5.25 0.25 10.5625 0.25q15.9375 0 32.4375 -2.25q11 -2 21 -4t20 -6q23 -8 39 -19q18 -12 33 -27
l15 -16l12 -18q5 -10 9.5 -19.5t7.5 -20.5q2 -11 4 -21.5t3 -21.5q1 -9 1.5 -18.5t-0.5 -18.5q1 1 1 2zM751 741h-3l-2 -2q-2 0 -2.5 -1t-2.5 -2l-4 -4q-2 -2 -4 -6q-6 -8 -8 -12l-7 -14q-6 -14 -11.5 -28.5t-10.5 -29.5l-5 -15l-5 -16q-2 -8 -4.5 -15t-5.5 -15l-36 -124
l-10 -32l-9 -31q-9 -31 -19 -62t-21 -62q-5 -16 -10.5 -31.5t-11.5 -30.5l-12 -31l-12 -30q-6 -16 -12.5 -31t-13.5 -30q-8 -15 -15.5 -30t-15.5 -29l-18 -28t-19 -28l-21 -27l-23 -25q-22 -23 -53 -42q-4 -2 -7.5 -3.5t-8.5 -3.5l-16 -6l-17 -3q-5 -1 -8.5 -1h-8.5
q-6 0 -6 6t6 6q15 0 30 6q8 2 14 6q5 2 13 8q13 8 24 19.5t20 23.5l18 26l15 28q15 28 27 57l24 60q0 2 1 4l9 40q2 10 3 19.5t2 20.5q1 10 1 20t-1 20q-2 21 -6 40q-3 9 -6.5 18.5t-8.5 17.5q-4 9 -11 17q-3 4 -6 7.5t-7 7.5q-7 7 -14.5 13.5t-16.5 11.5q-17 11 -35.5 18
t-38.5 10q-15 2.25 -30 2.25l-10 -0.25q-20 -1 -40 -5q-20 -5 -39 -12.5t-36 -17.5q-35 -20 -64 -51q-29 -29 -47 -65q-20 -38 -27 -77q-4 -19 -6 -40q0 -5 -0.5 -10t-0.5 -10t0.5 -10.5t0.5 -10.5q3 -40 17 -79q16 -40 39 -70q12 -17 26.5 -31t30.5 -27q32 -26 68 -44
q18 -10 37 -17.5t39 -13.5q39 -12 79 -18q11 -2 20.5 -3t20.5 -2q19 -3 41 -3q20 -1 41 -1.5q4.20001 -0.100006 8.35999 -0.100006q16.64 0 32.64 1.60001q11 0 20.5 0.5t20.5 1.5l41 5q40 6 79 16.5t76 26.5q19 8 36 17t34 20t31 22q15 12 29 26q7 6 13 13t12 15
q5 8 10 15.5t10 15.5l9 16l7 17q3 8 5.5 17t4.5 17q5.81818 27.6364 5.81818 53.686q0 9.76859 -0.818176 19.314q-1 18 -5 36t-10 36q-12 35 -35 67q-5 8 -11.5 15t-13.5 14q-7 8 -14.5 14t-15.5 12q-32 23 -71 35q-10 3 -19.5 4.5t-20.5 3.5q-5 0 -10 0.5t-10 0.5h-10
q-2 0 -5 -0.5t-5 -0.5q-9 0 -11 9v1q-2 10 9 10h1h28q7 1 13.5 1t13.5 2q28 3 53 12q51 16 92 50q39 33 63 78l5 11q4 5 5 11l5 12q1 2 1.5 5t2.5 6q4 12 6.5 24t4.5 25l3 25q0 8 1 12v13v12t-1 12t-1.5 12t-2.5 12q-11 50 -40 91q-28 41 -73 72q-44 30 -97 44
q-14 3 -26.5 5t-26.5 3q-13.5 0.5 -27 0.5l-27 -0.5q-27 -3 -54 -9q-13 -3 -25.5 -7.5t-25.5 -9.5q-12 -5 -24 -11t-24 -14q-21 -13 -42 -32q-10 -9 -19 -19t-17 -21q-15 -21 -26 -46q-5 -12 -9.5 -24.5t-6.5 -25.5t-3 -26t-1 -26q1 -26 9 -52q4 -12 8.5 -24t11.5 -23
q11 -23 30 -43q17 -20 38 -35q5 -4 10.5 -7.5t10.5 -7.5t11 -7t11 -6t10 -5l10 -4l3 10l10 31l21 62q3 8 6 15.5t5 15.5l6 16l6 15q6 15 12.5 30.5t14.5 30.5l7 15l8 15l18 29q10 13 24 27q4 3 7.5 6t8.5 5l10 3q2 0 3 0.5t2 0.5h6q9 -2 7 -10q0 -7 -7 -7v-1z" />
    <glyph glyph-name="C" unicode="C" horiz-adv-x="648" 
d="M663 314q-20 -34 -40.5 -67t-41.5 -66l-44 -64t-46 -64l-24 -30q-11 -15 -26 -30q-26 -30 -54 -57q-15 -13 -30.5 -25t-32.5 -23q-8 -6 -17 -10.5t-18 -9.5q-5 -2 -9 -4t-9 -4q-9 -4 -20 -7q-10 -3 -19.5 -5t-20.5 -3q-3 -1 -10 -1h-11q-5 0 -10.5 0.5t-10.5 1.5
q-11 1 -22 6q-5 2 -9.5 4.5t-9.5 5.5q-10 5 -18 12.5t-16 15.5q-7 8 -13 16.5t-11 18.5q-10 17 -18 38q-7 20 -11.5 40t-7.5 40q-2 10 -2.5 20t-1.5 20q-1 11 -1 20.5v20.5q0 20 1 40t3 40l5 40l7 39q7 40 18 78q11 39 24 76.5t29 74.5t34.5 72t39.5 69q11 17 22 33.5
t23 33.5l25 31q7 8 13.5 15.5t13.5 14.5q28 30 61 55q17 12 35 22.5t38 18.5q21 8 41 11q5 1 11 1.5t11 0.5h11q3 0 5.5 -0.5t5.5 -0.5q5 -1 10.5 -2t11.5 -3q11 -3 20 -9q9 -4 19 -12q4 -4 8 -7.5t7 -8.5q13 -16 21 -37q7 -18 10 -40q3 -20 3 -40q0 -10 -0.5 -20t-1.5 -20
l-6 -39q-2 -10 -4 -19.5t-4 -18.5q-3 -10 -5.5 -19.5t-5.5 -18.5l-12 -37q-7 -19 -13.5 -37t-14.5 -36q-2 -5 -4 -9t-4 -9t-4 -9t-4 -9q-5 -9 -8.5 -18t-8.5 -17q-2 -4 -5 -2q-4 2 -2 5q5 9 9 17.5t8 17.5l8 18l8 18q8 18 14.5 36t11.5 36q3 10 6 19t5 19q6 17 9 37
q2 10 3.5 19.5t3.5 18.5q2 10 2.5 19.5t1.5 18.5q0.5 10 0.5 19.75t-0.5 19.25q-1 19 -5 37q-3 17 -11 35t-19 29l-13 11q-4 2 -7.5 4t-7.5 4q-15 6 -33 6h-8q-3 0 -5 -1h-4l-17 -3q-18 -5 -32 -12q-8 -4 -15.5 -8.5t-15.5 -9.5q-15 -10 -29 -23q-14 -12 -27 -25t-26 -27
l-24 -29q-5 -7 -11 -14.5t-11 -15.5q-11 -15 -21 -30.5t-20 -32.5q-20 -33 -36.5 -67t-31.5 -69q-30 -68 -51 -143q-11 -37 -19 -73.5t-13 -74.5t-6 -75q-1 -10 -1 -19v-19q0 -9 0.5 -18.5t1.5 -18.5q1 -35 11 -72q3 -9 5.5 -17.5t6.5 -16.5q8 -17 17 -31q5 -7 11 -13
t13 -11q13 -10 31 -15q7 -3 17 -3q2 -1 8 -1h9l19 2l18 3q5 2 9 3t9 2l17 7q9 4 17.5 8t16.5 9l32 21l30 24l28 26l27 28l25 29q7 8 13 15t12 15q24 31 46 63t43 65q20 32 40 65.5t38 68.5q3 7 11 3q4.45453 -1.90909 4.45453 -5.84299q0 -2.24792 -1.45453 -5.15701z" />
    <glyph glyph-name="D" unicode="D" horiz-adv-x="1189" 
d="M513 226q5 16 10 31t10 31l16 50l16 50l-2 2q-8 4 -14.5 8t-14.5 9q-14 9 -27 19.5t-24 22.5q-25 25 -42 52q-18 26 -30 59l-9 32q-2 8 -3 16.5t-1 16.5q-1 8 -1.5 16.5t0.5 16.5q0 8 1 16.5t3 16.5q2 16 7 31.5t12 30.5t15.5 29t18.5 27t21.5 24t23.5 22q13 11 26 20
q7 5 13.5 8.5t13.5 7.5q58 32 122 41q16 2 31.5 3.5q9.29999 0.900024 19.14 0.900024q6.56 0 13.36 -0.400024q16 0 31.5 -1.5t32.5 -3.5q16 -2 31.5 -5.5t31.5 -8.5q15 -5 30.5 -10.5t29.5 -13.5q30 -15 56 -35l13 -11l13 -11l12 -12t11 -13q23 -26 39 -55q8 -14 15 -29
t13 -31q23 -65 29 -130q2.57141 -27.4286 2.57141 -55.5918q0 -37.551 -4.57141 -76.4082q-4 -32 -11 -64t-16 -64q-5 -15 -10 -30.5t-11 -30.5q-5 -15 -11.5 -30t-12.5 -29q-7 -15 -14 -29.5t-15 -29.5l-16 -28l-16 -28q-9 -14 -18 -27t-19 -26q-5 -7 -10 -13t-10 -13
l-21 -24q-22 -24 -45.5 -46t-49.5 -42q-52 -40 -110 -68q-57 -26 -121 -42q-63 -13 -127 -15q-33 0 -64 3q-32 3 -63 9q-65 14 -120 43q-56 29 -102 77q-44 47 -67 108q-5 15 -9.5 30.5t-6.5 31.5l-3 32v16v8t1 8q2 34 10 63q7 30 23 60q14 29 34 53.5t46 44.5q51 42 113 57
q16 4 31.5 6q10.3333 1.33334 21.3333 1.33334q5.5 0 11.1667 -0.333344q32 0 63 -11q16 -6 30 -13.5t27 -18.5q7 -5 12.5 -10.5l11.5 -11.5q12 -14 19 -26q15 -27 22 -61q2 -13 3 -25.5t1 -24.5q2 5 4 10.5t4 11.5zM758 741h-3l-2 -2q-2 0 -2.5 -1t-2.5 -2l-5 -4
q-2 -4 -4 -6l-7 -12l-7 -14q-7 -14 -12 -28.5t-10 -29.5l-5 -15l-5 -16q-3 -8 -5.5 -15t-4.5 -15l-18 -62l-19 -62l-9 -32l-9 -31q0 -2 -0.5 -2.5t-0.5 -1.5q-1 -2 -1 -3t-1 -2q-9 -29 -18 -57.5t-19 -57.5q-5 -16 -10.5 -31.5t-11.5 -30.5l-12 -31l-12 -30q-7 -16 -13 -31
t-14 -30q-7 -15 -14.5 -30t-16.5 -29q-8 -14 -17 -28t-19 -28l-21 -27l-23 -25q-12 -12 -25 -22.5t-28 -19.5l-16 -7l-16 -6l-17 -3q-5 -1 -9 -1h-8q-6 0 -6 6t6 6q15 0 30 6q6 1 14 6l13 8q13 8 23.5 19.5t20.5 23.5l18 26l15 28q8 14 14 28.5t13 28.5l24 60q2 7 4.5 13.5
t5.5 13.5q2 14 4 28.5t4 28.5q1 16 0.5 31t-3.5 30q-5 32 -19 56q-4 7 -8 13t-9 11q-11 13 -22 21q-24 20 -52 30q-30 10 -59 11q-16 1 -31 -1t-30 -5q-60 -15 -108 -54q-24 -20 -44 -44q-9 -12 -17.5 -24.5t-15.5 -26.5t-12 -28.5t-9 -28.5q-8 -28 -10 -61v-30l3 -31
q2 -15 6 -30t10 -29q11 -29 27.5 -54.5t37.5 -47.5q21 -23 46 -41t52 -32t56.5 -23.5t59.5 -15.5q15 -3 30 -4.5t31 -3.5q15 -1 30.5 -1.5q5.16666 -0.166672 10.2778 -0.166672q10.2222 0 20.2222 0.666672q31 1 61.5 6t59.5 13q59 17 112 47q52 30 98 71q23 20 43.5 42
t39.5 46l36 48q8 13 15.5 25.5t15.5 26.5q8 13 15 26t14 27t13 27.5t12 27.5q12 28 21 57q5 14 9.5 29t9.5 29q17 61 23 117q4 30 5 59.5q0.333374 9.83334 0.333374 19.6111q0 19.5555 -1.33337 38.8889q-5 61 -22 115q-9 28 -21 54.5t-29 50.5l-8 12t-9 12l-9 11l-10 11
q-11 11 -21.5 20.5t-23.5 17.5q-25 18 -52 30q-29 11 -58 17q-30 6 -61 6q-6 0.200012 -12 0.200012l-48 -3.20001q-63 -9 -115 -39q-54 -30 -91 -79q-17 -23 -30 -52q-6 -14 -10 -28.5t-6 -28.5q-2 -15 -2 -30t2 -29q2 -15 6 -29t9 -28q10 -26 29 -51q18 -24 40 -43
q22 -18 48 -33q6 -3 11.5 -6t11.5 -5l3 9l10 31l21 62l11 31l6 16l6 15l26 61l8 15q2 4 4 7.5t4 7.5q4 7 8.5 14t9.5 15q5 7 10.5 13.5t13.5 13.5q6 6 16 11l10 3q2 0 2.5 0.5t2.5 0.5h6q3 -1 5.5 -3.5t1.5 -6.5q0 -7 -7 -7v-1z" />
    <glyph glyph-name="E" unicode="E" horiz-adv-x="827" 
d="M679 362l-2 -5q0 -1 -0.5 -2t-0.5 -2l-3 -9q-2 -5 -2.5 -9.5t-1.5 -9.5t-1.5 -9t-0.5 -9v-8.5t1 -8.5q1 -4 1.5 -8t2.5 -7q4 -9 9 -13q4 -6 12 -9q8 -4 15 -4q4.79999 -0.899994 9.87 -0.899994q11.83 0 25.13 4.89999q19 5 34 17q8 5 15 11.5t14 13.5l6 8l6 8q3 4 5.5 8
t4.5 9q6 7 14 4q9 -5 4 -14q-21 -41 -55 -67q-20 -15 -39 -23q-5 -2 -10.5 -3.5t-11.5 -2.5q-6 -2 -12 -2h-12q-6 1 -12.5 2t-12.5 3q-12 4 -22 13q-11 10 -17 21q-3 5 -5.5 11t-4.5 12t-2.5 12t-1.5 12t-1 11.5v11.5t0.5 11.5t0.5 11.5q0 3 1 5l-3 -2q-7 -5 -13 -11
l-11 -11q-12 -12 -23 -24t-22 -25l-21 -26q-5 -7 -10 -13.5t-10 -13.5l-38 -54l-18 -28l-18 -29q-4 -7 -7.5 -13.5t-8.5 -12.5q-19 -43 -39 -80l-30 -52l35 -21l61 -36q16 -9 31 -17t31 -16q17 -8 33 -13.5t33 -10.5q33 -8 67 -9q34 0 67 9q31 7 63 23q15 8 29.5 16.5
t28.5 18.5q9 7 20.5 5t18.5 -11q7 -10 5 -21t-12 -18l-5 -3q-35 -15 -69 -27q-18 -5 -36 -9.5t-37 -6.5t-37.5 -2.5q-3.70001 -0.100006 -7.38 -0.100006q-14.72 0 -29.12 1.60001q-19 2 -37 6t-35 9q-17 6 -33.5 13.5t-32.5 15.5q-17 8 -32 17t-31 18l-61 36q-9 5 -18 9.5
t-18 9.5q-10 -14 -19.5 -28.5t-20.5 -28.5q-6 -8 -12 -15t-13 -14q-14 -15 -27 -26q-14 -12 -32 -23q-17 -11 -36 -18q-10 -3 -19.5 -5.5t-20.5 -3.5h-20l-20 3q-9 2 -18.5 5t-18.5 7l-18 9q-5 3 -9 6t-8 7q-8 7 -13 16q-6 9 -9 19q-4.08333 12.25 -4.08333 24.1597
q0 8.50694 2.08333 16.8403q3 20 14 37q11 18 24 29q14 14 31 23t34 14q20 7 37 8q5 1 9 1h9q3 1 10 1h4l5 -1q18 0 36 -2.5t36 -7.5q24 -6 47 -16l30 54q16 31 30 63l28 64l48 120l-9 5q-6 3 -11.5 6.5t-11.5 7.5q-23 14 -43 31q-41 33 -71 77q-8 11 -14 22t-12 23
q-11 22 -19 49q-7 23 -10 51q-2 14 -2.5 26.5t0.5 26.5q3 52 24 100q9 25 23 46t31 41q36 41 78 67q21 14 44 25t47 19q50 17 100 21q13 1 25.5 1.5q4.16669 0.166687 8.38892 0.166687q8.44446 0 17.1111 -0.666687q25 0 51 -3t51 -7.5t50 -9.5q13 -3 25 -6t24 -7t24 -7.5
t24 -8.5q47 -17 91.5 -34t91.5 -28q11 -2 23 -3.5t24 -3.5q11 -1 23 -1h24q24 1 48 6q25 5 47 12q9 3 13 -6q0.75 -2 0.75 -3.75q0 -5.25 -6.75 -8.25q-23 -11 -48 -18q-12 -3 -24.5 -6t-25.5 -5q-26 -5 -52 -6q-13 -2 -26 -1.5t-26 1.5q-54 3 -103 18q-12 4 -24.5 7.5
t-23.5 8.5l-47 19q-11 5 -22.5 10.5t-22.5 11.5l-44 22q-11 5 -22.5 10t-22.5 10q-11 4 -23 7.5t-23 5.5q-24 6 -49 6q-12 1 -24 0.5t-25 -1.5q-12 -2 -24 -3.5t-24 -3.5q-12 -3 -23.5 -6t-23.5 -7q-48 -17 -87 -43q-41 -28 -72 -64q-15 -18 -28 -39q-13 -22 -21 -43
q-5 -11 -8 -23t-5 -23q-2 -12 -3.5 -24t-1.5 -24q-0.571442 -6.57141 -0.571442 -13.2245q0 -16.6326 3.57144 -33.7755q3 -22 11 -46q4 -11 9 -21.5t10 -21.5q6 -11 12.5 -20.5t13.5 -18.5q30 -38 68 -65q18 -12 40 -25l21 -10q4 -2 5 -2l38 97q25 66 54 132q7 17 14 33
t15 32q8 17 16 33t18 32q10 17 19 31q6 8 12 15t13 14q3 4 6.5 7t7.5 7q8 7 17 11q9 6 19 9q6 2 10 2q2 0 3 0.5t3 0.5h5q8 -2 8 -10q0 -5 -5 -7q-1 0 -1 -1h-1l-1 -1q-2 -2 -3 -2q-4 -4 -6 -5l-10 -11q-5 -6 -9.5 -12.5t-9.5 -13.5q-8 -14 -16 -29l-16 -30t-15 -30.5
t-14 -31.5q-8 -17 -14.5 -32.5t-12.5 -32.5q-14 -32 -26 -65t-25 -66l-51 -133l-31 -77l30 43q5 7 10 13.5t10 13.5l21 27q11 13 22 25.5t22 25.5l25 23l13 11l8 6l3 2l2 2q2 0 3 1h1q6 5 17 3q10 -2 16 -9.5t4 -18.5q0 -1 -0.5 -2t-0.5 -2zM257 -17q-33 9 -68 9h-17
q-6 0 -16 -2q-9 -1 -17 -3l-16 -4q-8 -3 -15.5 -6t-14.5 -8q-8 -4 -14.5 -9t-12.5 -10q-11 -11 -20 -26q-4 -7 -6.5 -14t-3.5 -15q-0.666668 -5.33334 -0.666668 -10.2222q0 -10.2222 3.66667 -18.7778q4 -13 16 -23l13 -8q7 -4 14 -5q15 -3 31 -3q11 0 16 1h8q2 0 3.5 0.5
t3.5 0.5q8 2 15 3.5t14 4.5q14 6 26.5 15.5t24.5 20.5l12 11l11 12l21 26q8 11 16 23t16 25z" />
    <glyph glyph-name="F" unicode="F" horiz-adv-x="761" 
d="M570 368l-2 -7l-2 -7l-3 -15q-2 -7 -3 -14l-2 -14q-2 -8 -2.5 -14.5t-1.5 -14.5t-1.5 -14.5t-0.5 -13.5v-14.5t1 -13.5q1 -14 6 -24q1 -4 5 -10t7 -8q3 -3 9 -6l11 -3h12q8 2 13 4q11 4 26 12q24 16 45 39q11 11 21 22t20 23l27 36l4 6q1 2 2 3.5t2 3.5q6 8 14 3t3 -14
l-1 -1l-4 -6l-25 -30l-9 -12q-11 -12 -21 -23.5t-21 -22.5l-22 -21l-12 -11q-3 -2 -6 -5t-7 -5q-12 -9 -27 -18l-16 -6q-6 -2 -9 -2q-2 -1 -5 -1h-4q-5 -1 -9.5 -0.5t-9.5 1.5q-5 2 -9.5 3.5t-9.5 3.5q-9 6 -16 13q-3 4 -6 7.5t-5 7.5q-5 8 -8 17t-5 17t-2.5 16.5t-1.5 16.5
q-0.666656 11.3333 -0.666656 22.2222q0 5.44446 0.166656 10.7778q0.5 16 2.5 32l2 16t3 16q0 3 2 9l-4 -3q-7 -5 -13 -11l-11 -11q-12 -12 -23 -24t-22 -25l-21 -26q-5 -7 -10 -13.5t-10 -13.5l-38 -54l-18 -28l-18 -29l-34 -57q-5 -7 -8.5 -14t-7.5 -14q-9 -18 -18 -34.5
t-18 -33.5l-11 -22q-2 -3 -5 -5l-26 -40l-24 -32l-26 -30l-14 -14l-15 -14l-16 -12t-17 -11q-5 -3 -9 -5.5t-9 -4.5l-19 -7l-21 -4q-5 0 -10 -0.5q-1.66667 -0.166672 -3.33333 -0.166672l-6.66667 0.666672q-6 0 -6 6t6 6q19 0 36 6q5 2 9 3.5t8 3.5q9 5 16 10q13 9 28 24
q12 12 24 29q13 16 21 31q5 8 9.5 16.5t9.5 16.5t9 16.5t8 17.5l16 35q8 17 15 34.5t14 35.5l28 71q4 9 7 18t6 19q4 9 7 18l6 18q7 18 13 36t12 37l6 19q-5 2 -9.5 5.5t-9.5 6.5q-23 14 -43 31q-41 33 -71 77q-8 11 -14 22t-12 23q-11 22 -19 49q-7 23 -10 51
q-2 14 -2.5 26.5t0.5 26.5q3 52 24 100q9 25 23 46t31 41q36 41 78 67q21 14 44 25t47 19q50 17 100 21q13 1 25.5 1.5q4.16666 0.166687 8.38889 0.166687q8.44443 0 17.1111 -0.666687q25 0 51 -3t51 -7.5t50 -9.5q13 -3 25 -6t24 -7t24 -7.5t24 -8.5q47 -17 91.5 -34
t91.5 -28q11 -2 23 -3.5t24 -3.5q11 -1 23 -1h24q24 1 48 6q25 5 47 12q9 3 13 -6q0.75 -2 0.75 -3.75q0 -5.25 -6.75 -8.25q-23 -11 -48 -18q-12 -3 -24.5 -6t-25.5 -5q-26 -5 -52 -6q-13 -2 -26 -1.5t-26 1.5q-54 3 -103 18q-12 4 -24.5 7.5t-23.5 8.5l-47 19
q-11 5 -22.5 10.5t-22.5 11.5l-44 22q-11 5 -22.5 10t-22.5 10q-11 4 -23 7.5t-23 5.5q-24 6 -49 6q-12 1 -24 0.5t-25 -1.5q-12 -2 -24 -3.5t-24 -3.5q-12 -3 -23.5 -6t-23.5 -7q-48 -17 -87 -43q-41 -28 -72 -64q-15 -18 -28 -39q-13 -22 -21 -43q-5 -11 -8 -23t-5 -23
q-2 -12 -3.5 -24t-1.5 -24q-0.571426 -6.57141 -0.571426 -13.2245q0 -16.6326 3.57143 -33.7755q3 -22 11 -46q4 -11 9 -21.5t10 -21.5q6 -11 12.5 -20.5t13.5 -18.5q30 -38 68 -65q18 -12 40 -25l12 -6l28 82l12 37l13 37q6 18 12.5 36.5t13.5 36.5l13 37l14 36
q8 18 16 36.5t16 35.5l18 36l21 34q13 18 27 32q5 4 9 7.5t10 5.5q5 4 11 5q4 0 6 1h4q1 0 1.5 -0.5t1.5 -0.5q9 -2 7 -10q-1 -5 -8 -7h-1q-1 0 -2 -1q-2 0 -3 -1q-4 -2 -6 -4l-6 -5q-1 -3 -5 -7l-9 -15l-9 -16l-15 -35l-6 -17q-2 -5 -3.5 -9t-3.5 -9l-12 -36
q-4 -9 -6.5 -18t-5.5 -19l-12 -36l-12 -37q-6 -18 -12 -36.5t-11 -37.5l-24 -74q-11 -37 -23.5 -73.5t-25.5 -73.5l-27 -73l-13 -32l23 36l39 55q5 7 10 13.5t10 13.5l21 27q11 13 22 25.5t22 25.5l25 23l13 11l8 6l3 2l2 2h1q10 11 25 8q10 -3 14.5 -11.5t2.5 -18.5z" />
    <glyph glyph-name="G" unicode="G" horiz-adv-x="580" 
d="M528 385h-1q-1 -1 -2 -1l-3 -3l-5 -7q-4 -6 -5 -9l-5 -10q-9 -20 -15 -44q-8 -23 -14 -46.5t-13 -46.5l-14 -46l-7 -24l-6 -23l-30 -94l-17 -47l-9 -23l-10 -23q-5 -11 -10 -22.5t-10 -22.5q-11 -24 -24 -44q-7 -11 -14 -21.5t-15 -20.5l-16 -20l-18 -19q-20 -20 -41 -31
l-12 -6l-13 -4q-12 -3 -26 -3q-6 0 -6 6t6 6t11.5 1t10.5 3l10 5l10 6q19 14 32 33l12 20q7 10 11 20l10 22l9 22l17 44l17 45l7 23q2 6 4 11.5t4 11.5l15 46l29 93l16 46q2 8 4 12l-31 -57q-9 -15 -18 -29.5t-20 -28.5q-11 -15 -22 -28q-6 -6 -12 -12.5t-13 -12.5
q-15 -13 -29 -21l-16 -9q-5 -2 -8.5 -3.5t-8.5 -2.5q-5 -2 -9.5 -2.5t-9.5 -1.5q-3 -1 -9 -1h-10q-9 0 -18.5 1t-18.5 4q-18 4 -36 15q-8 5 -15.5 11t-14.5 13q-6 8 -11.5 15.5t-10.5 15.5t-9 17t-8 17q-11 34 -16 72l-2 18q0 5 -0.5 9t-0.5 9v18t1 18q1 18 2.5 36t4.5 35
q2 18 5.5 35.5t8.5 34.5l9 34l2 9l3 8l5 17q23 69 54 131q17 32 35 61.5t39 58.5q11 15 22 28.5t23 27.5l24 26q6 7 12.5 13t13.5 12q14 12 28 23t30 20q16 10 32.5 18t34.5 13q10 3 19 4.5t19 3.5q5 0 9.5 0.5t9.5 0.5l2 -1h8q2 0 4.5 -0.5t4.5 -0.5q10 -2 19.5 -4t18.5 -7
l17 -10l15 -13q13 -14 21 -32q8 -20 11 -36q3 -18 3 -36v-18t-2 -17q-4 -34 -17 -69q-10 -31 -29 -63q-35 -61 -90 -105q-14 -11 -28.5 -20t-30.5 -17q-33 -16 -66 -23q-4 0 -4 3q-2 3 2 5q9 2 17 4t16 5q8 2 15.5 5.5t15.5 7.5q31 15 57 36q27 22 48 48.5t38 56.5
q8 15 14.5 30t11.5 32q5 16 8 32t5 33q0.5 8.5 0.5 16.875t-0.5 16.625q-1 16.5 -5 32.5q-2 8 -4.5 15t-7.5 14l-8 13l-10 11q-11 9 -25 14q-7 3 -14 4t-15 2q-31 0 -59 -12q-15 -6 -28.5 -14t-26.5 -17q-14 -10 -26 -20.5t-24 -21.5l-23 -24l-21 -24q-11 -13 -21 -26
t-19 -27q-19 -28 -36 -56.5t-31 -58.5q-15 -30 -28 -60.5t-24 -62.5l-5 -16l-3 -8l-2 -8l-9 -32q-9 -31 -15 -65q-6 -31 -9 -65l-2 -32v-17v-7.5t1 -8.5q1 -16 2.5 -32t6.5 -31q4 -15 10 -29t15 -26t21 -21q11 -8 26 -15q8 -2 15.5 -3.5t15.5 -3.5h15q10 0 15 1l16 4
q10 4 14 7q14 7 28 18l24 22q6 6 11.5 12.5t10.5 13.5q11 14 20.5 28t18.5 28l33 60l30 61q4 8 7.5 15.5t8.5 15.5q0 1 1 2l8 16l6 13q0 1 1 2l2 4l7 11q3 6 6.5 11.5t7.5 10.5q5 5 9.5 10t9.5 10l13 9q6 2 8 2q2 1 5 1h4q9 -2 7 -10q0 -7 -6 -7z" />
    <glyph glyph-name="H" unicode="H" horiz-adv-x="967" 
d="M1070 835h-3l-4 -2q-4 -2 -6 -4l-6 -6l-6 -7q-2 -4 -4.5 -7.5t-5.5 -7.5q-2 -5 -4 -8.5t-4 -8.5q-5 -9 -8.5 -18t-7.5 -18l-7 -18q-2 -5 -3.5 -9.5t-3.5 -9.5l-6 -19l-7 -19l-12 -38l-13 -38l-12 -38l-24 -77l-12 -38l-12 -39l-29 -86h53.5t53.5 -2q6 0 6 -6t-6 -6
q-28 1 -55.5 1.5q-9.16669 0.166656 -18.3889 0.166656q-18.4445 0 -37.1111 -0.666656l-19 -55q-7 -19 -13.5 -38t-14.5 -38l-15 -38l-15 -38q-15 -38 -33 -75q-9 -18 -18 -36.5t-20 -36.5q-10 -17 -21 -34.5t-23 -34.5q-12 -19 -25 -34q-6 -8 -12.5 -15.5t-14.5 -15.5
q-15 -17 -30 -29q-8 -7 -16.5 -13t-17.5 -12q-20 -11 -39 -17q-5 -2 -10 -2.5t-10 -1.5t-11 -1h-11q-6 2 -5 7q0 6 6 6q2.375 -0.125 4.73438 -0.125q16.5156 0 32.2656 6.125q5 2 9 3.5t9 3.5t8.5 5t7.5 5q8 6 15.5 12t14.5 14q7 7 13 14t12 15t11.5 16.5t10.5 16.5l20 34
q5 9 9 18l8 18l17 36l31 73q7 19 14 37.5t15 37.5l13 37q4 10 7 19.5t7 18.5l26 76l11 34q-35 -1 -69.5 -3.5t-69.5 -6.5q-38 -5 -76.5 -11.5t-76.5 -14.5l-20 -5l-13 -33q-14 -36 -29 -72.5t-31 -72.5q-8 -18 -17 -36l-18 -36l-18 -35l-20 -35l-21 -34l-23 -34
q-13 -16 -27 -31t-31 -28q-8 -7 -16.5 -13t-18.5 -11q-9 -5 -19 -9t-21 -7q-10 -2 -20.5 -3.5t-21.5 0.5q-11 0 -21 3q-5 2 -10 3.5t-10 3.5q-21 10 -35 25q-14 16 -21 36q-4 10 -5.5 20t-2.5 21q-0.25 4.5 -0.25 9.25q0 14.25 2.25 30.75q2 11 4.5 20.5t5.5 19.5
q4 9 7.5 18.5t8.5 17.5q19 34 45 67q26 30 56 56q15 13 31 24t33 22q34 22 69.5 39t72.5 31q34 13 72 24q13 33 25 66.5t26 67.5l28 73l29 73q13 36 30 72q2 6 4.5 12t5.5 12q-16 -16 -36 -31l-20 -14q-5 -4 -10 -7l-10 -6q-11 -7 -21 -13t-21 -12q-10 -6 -20.5 -12
t-21.5 -11l-42 -22l-41 -23l-19 -12l-19 -12q-16 -12 -33 -29q-14 -14 -25 -33q-2 -5 -4 -9.5t-3 -9.5q-3 -9 -1 -20q0 -3 2 -9q1 -3 2 -5.5t2 -4.5q7 -9 15 -14q6 -4 9 -5l10 -3q8 -2 11 -2h11q21 1 44 13l10 5q6 4 9 7q5 3 9 6.5t9 7.5q5 5 10 0t0 -10h-1l-20 -15l-10 -6
l-11 -6q-24 -11 -48 -14q-3 0 -6 -0.5t-6 0.5q-9 0 -13 1l-13 3q-4 1 -12 5q-3 2 -5.5 4t-5.5 4q-2 2 -5 4.5t-5 4.5q-2 3 -3.5 5.5t-3.5 6.5l-6 12q-5 14 -3 28q0 7 1 13.5t3 13.5t5 13l6 12q4 5 7.5 10.5t8.5 10.5q18 21 38 34q5 4 10.5 7.5t10.5 6.5q10 7 21 12
q11 6 22 11l22 10l44 18l43 19q11 5 21 10.5t21 11.5l20 12q11 6 19 13q10 7 19 14t17 15q11 11 21.5 22t19.5 24q8 15 16.5 29.5t18.5 28.5q6 8 13 16t15 16q4 3 8.5 6.5t9.5 6.5q3 2 11 4q2 1 7 1h6q9 -2 7 -10q0 -7 -7 -7h-2q-1 0 -1 -0.5t-1 -0.5t-1.5 -0.5t-1.5 -0.5
l-5 -4l-12 -13q-5 -6 -9 -15l-9 -16l-8 -17l-8 -18q-4 -8 -7 -17t-7 -18l-27 -73l-26 -73q-22 -61 -43 -121.5t-44 -121.5q3 0 9 2q39 8 78 14.5t78 10.5q36 4 72.5 6.5t72.5 3.5l35 104l13 38l13 39l27 76q3 10 6.5 19t7.5 19l14 38l16 38t17 37l9 19l10 18q5 9 10.5 18
t11.5 18q13 19 28 33q6 7 18 14q8 4 12 5q2 0 3.5 0.5t3.5 0.5h3q3 0 3 -1h1q7.36365 -1.63635 7.36365 -7.28925q0 -7.32117 -8.36365 -9.71075zM363 224q-18 -7 -36 -15t-35 -16t-34 -17t-34 -20q-16 -11 -31.5 -22t-30.5 -23t-29 -25.5t-26 -28.5q-13 -14 -24 -30
t-19 -33q-19 -35 -25 -71q-2.25 -15 -2.25 -28.3125q0 -4.4375 0.25 -8.6875q1 -18 8 -36q6 -17 19 -30q12 -14 29 -20q8 -4 17 -5.5t18 -2.5q15 0 34 7q8 4 15 9t15 11q7 5 13 11.5t12 14.5q6 7 11.5 14t10.5 15l21 31q12 16 20 32q5 8 9.5 16.5t9.5 16.5q18 33 34.5 68
t31.5 70q15 34 28.5 67.5t27.5 68.5q-15 -5 -29.5 -10t-28.5 -10z" />
    <glyph glyph-name="I" unicode="I" horiz-adv-x="517" 
d="M18 -229q36 3 68 27q15 11 28 25t24 30q6 8 11.5 16t10.5 16l11 16l10 17l9 17l9 18l9 17q2 5 4 9t4 9q17 36 32.5 72.5t29.5 74.5t27 76t25 76q26 77 50.5 153t51.5 154l14 38q3 10 6.5 19t7.5 19l15 38l16 38q5 9 9.5 18.5t9.5 18.5q12 20 24 35q4 6 7 9
q-18 -18 -31 -37l-18 -26l-18 -26q-8 -14 -17 -27t-18 -27q-8 -14 -17.5 -27t-19.5 -26q-11 -14 -21.5 -26t-23.5 -23q-12 -11 -26 -21t-29 -18q-8 -3 -16.5 -6t-16.5 -5q-13.5 -2.25 -25.875 -2.25q-4.125 0 -8.125 0.25q-7 0 -5 6q0 4 5 6q8 2 15 3.5t14 4.5q8 2 14.5 5.5
t12.5 7.5q13 8 24.5 17.5t22.5 20.5t21 23t19 25q10 12 19 25t19 26l37 53l19 26l21 25q6 6 11.5 12t12.5 11l12 11l14 10l15 7q7 4 16 6q5 1 9.5 1.5t9.5 0.5q1 0 1.5 0.5t1.5 0.5q8 0 11 -2q2 2 2 -1q0 -1 -1 -1h-1q-8 -3 -15 -11q-3 -3 -5.5 -7t-4.5 -8q-5 -8 -8.5 -17
t-7.5 -17q-8 -18 -14 -36.5t-13 -37.5q-14 -37 -26.5 -75t-25.5 -76l-48 -154l-52 -154q-14 -38 -28.5 -76t-29.5 -76q-16 -38 -32.5 -75t-36.5 -74l-9 -18l-11 -18l-10 -18l-12 -17q-4 -9 -11 -17q-3 -5 -6 -9t-7 -8q-12 -17 -27 -33q-15 -17 -30 -29l-17 -14q-5 -3 -9 -6
t-9 -5q-21 -11 -41 -17q-5 -1 -11 -2t-11 -1h-22q-9 2 -7 10q0 7 8 7z" />
    <glyph glyph-name="J" unicode="J" horiz-adv-x="862" 
d="M284 574q22 -5 47 -7q26 0 46 4q12 2 23 5t22 7q5 2 10.5 4.5t10.5 5.5q10 4 20 11q11 6 20 12.5t19 13.5l36 30q18 16 35.5 32t34.5 33q18 17 36.5 33.5t38.5 31.5t41.5 29t44.5 25q11 5 23 10t25 9q26 8 50 11q12 2 24.5 3t25.5 1t25.5 -1t24.5 -3
q9.30768 -1.69232 9.30768 -8.39642q0 -11.6036 -11.3077 -11.6036q-2 0 -3 0.5t-2 0.5q-1 -1 -2 -1t-3 -1q-3 -1 -9 -5l-9 -8l-8 -9q-9 -11 -14 -21l-12 -23q-5 -12 -9.5 -24t-9.5 -25l-9 -25q-2 -7 -4 -13t-4 -13q-5 -14 -8 -25l-8 -26l-15 -52l-30 -104l-30 -105
q-4 -14 -7.5 -26.5t-8.5 -25.5q-4 -14 -7.5 -26.5t-8.5 -26.5q-17 -52 -35 -103.5t-39 -102.5q-11 -26 -21.5 -51t-22.5 -50q-6 -13 -12 -25.5t-13 -24.5l-26 -49q-14 -24 -28.5 -47.5t-30.5 -46.5q-17 -23 -34 -44.5t-36 -42.5q-41 -42 -84 -74q-11 -8 -22.5 -16t-23.5 -16
q-12 -7 -24.5 -13.5t-25.5 -12.5q-25 -12 -51.5 -20.5t-53.5 -14.5q-27 -5 -54.5 -7.5t-55.5 -2.5q-6 0 -6 6t6 6q53 0 106 14q26 8 50.5 17.5t47.5 23.5q12 6 23 13t22 15t21 16.5t20 17.5q38 33 72 77q34 42 62 86q14 23 27.5 45.5t25.5 46.5q13 24 24 48l12 24t11 24
q22 49 42 99q20 51 37.5 101.5t34.5 101.5q5 13 9 25.5t8 26.5l17 51l32 104l17 52l8 26l9 26q9 26 18 51.5t20 51.5l10 25l12 26q6 12 12 24.5t14 24.5q4 6 7.5 12t8.5 12q9 12 19 22l3.5 3.5l3.5 3.5q-11 -1 -22.5 -3t-22.5 -4q-11 -3 -22 -7t-22 -9q-20 -9 -41 -22
q-20 -12 -38 -26.5t-36 -30.5l-71 -64q-18 -17 -37 -33t-39 -31t-41.5 -28t-45.5 -24q-5 -3 -11 -5.5t-12 -4.5l-25 -7q-26 -8 -50 -9q-13 -1.5 -25.75 -1.5t-25.25 1.5q-13 1 -25.5 3t-24.5 4q-10 2 -8 12t12 8z" />
    <glyph glyph-name="K" unicode="K" horiz-adv-x="904" 
d="M1146 829q-7 -2 -13.5 -3t-12.5 -3q-15 -5 -25 -10q-5 -3 -10.5 -6.5t-10.5 -7.5q-9 -7 -19 -18q-9 -10 -17 -20.5t-15 -22.5q-15 -23 -27 -48q-14 -25 -26.5 -50.5t-26.5 -51.5l-14 -25q-4 -6 -7.5 -12.5t-8.5 -12.5q-8 -13 -16.5 -25t-17.5 -23q-19 -23 -41 -44.5
t-46 -38.5q-25 -17 -51.5 -30.5t-53.5 -24.5q-26 -9 -53 -16t-54 -11q2 0 3.5 -0.5t3.5 -0.5q16 -2 32 -5t32 -8q14 -4 32 -12q4 -2 7.5 -4t7.5 -4t7.5 -4.5t6.5 -4.5q15 -11 27 -24q12 -14 21 -30q9 -17 14 -32q2 -9 4 -17.5t4 -17.5q3 -17 4 -33.5t1 -33.5q-1 -17 -2 -33
t-3 -33l-7 -63q-2 -16 -4 -31t-3 -31q-1.5 -15 -1.5 -30t1.5 -30q3 -30 15 -55q14 -26 38 -44q23 -18 55 -27q28 -10 61 -13q31 -3 63 -3q3 1 5.5 -1.5t2.5 -5.5q0 -7 -7 -7h-1q-33 0 -64 3q-17 2 -32.5 4.5t-32.5 6.5q-16 5 -31.5 10.5t-29.5 14.5q-16 10 -28 20
q-15 13 -23 27q-10 13 -17 30q-8 16 -12 33q-8 35 -9 68q-1.59998 13.6 -1.59998 26.56q0 3.24 0.0999756 6.44q0.5 16 1.5 33l2 32t3 32t3 31t2 31l2 30v15t-1 15q-1 14 -2.5 28t-6.5 28t-12 25q-9 14 -18 22q-10 11 -22.5 19t-26.5 15q-28 12 -59 18q-15 2 -29.5 4
t-28.5 3q-11 -2 -21 -2t-21 -1q-11 -32 -22.5 -63t-24.5 -62q-13 -33 -26.5 -65.5t-29.5 -65.5q-8 -16 -15.5 -32t-16.5 -32l-17 -31q-5 -8 -9.5 -15.5t-9.5 -15.5l-22 -30l-3 -3l-3 -4l-6 -7l-12 -14q-26 -27 -57 -48l-16 -10t-17 -9q-8 -4 -17 -7t-19 -5t-19.5 -3.5
t-19.5 -0.5q-5 1 -9.5 1.5t-9.5 2.5q-12 3 -19 8q-9 5 -16 12.5t-12 15.5q-10 16 -12 37q-1.5 9 -1.5 18.25t1.5 18.75q1 16 8 36q2 8 5.5 16.5t7.5 16.5q7 15 17 32q5 8 9.5 15.5t9.5 14.5l21 29q43 55 92 107q11 14 23 26.5t24 25.5l47 52q48 52 93 105q23 27 44 55t41 57
q10 14 19 29t17 30q4 7 7 13.5t6 13.5l11 28l27 65q14 35 30 65l18 32q5 8 10.5 15t11.5 15q13 16 28 27q9 7 18 11q3 1 5.5 1.5t5.5 0.5h10q1 0 1 -1h1q7 -2 5 -9q-2 -5 -6 -5h-1l-1 -1h-1l-3 -2q-4 -2 -6 -4l-9 -10l-5 -7l-4 -7l-7 -14l-7.5 -15t-6.5 -15l-13 -32l-13 -32
l-12 -32l-24 -66q-23 -64 -44.5 -129t-44.5 -130q20 2 40.5 4t40.5 6q28 5 54.5 13.5t51.5 21.5q13 6 25 13t23 15t21.5 16.5t21.5 18.5q20 19 37 40q17 20 34 43q8 11 15.5 22.5t14.5 23.5l15 24q4 6 7.5 12t6.5 12q8 12 14.5 24.5t13.5 24.5l29 50q17 27 34 49
q18 24 42 45q26 21 54 31q21.4615 6.23077 42.4438 6.23077q9.32544 0 18.5562 -1.23077q7 0 7 -8q-2 -6 -7 -6zM478 486q-20 -29 -41 -57.5t-44 -55.5q-45 -55 -92.5 -106t-95.5 -103q-12 -13 -24 -25.5t-23 -26.5t-22 -27t-22 -27q-5 -8 -10 -14.5t-10 -14.5
q-10 -13 -18 -29q-5 -8 -8.5 -15.5t-7.5 -15.5l-6 -16t-5 -16q-5 -15 -7 -33q-1 -8.5 -1 -16.75t1 -16.25q3 -14 11 -29q8 -12 22 -20q13 -6 29 -6q14 0 31 5q15 4 29 14q7 5 13.5 9.5t12.5 9.5q13 11 23.5 23t21.5 26l9 14l5 6l2 4l2 4q10 15 17 29q5 8 9 14.5t8 14.5
l16 31q8 15 14.5 30.5t14.5 31.5q27 64 51 129q13 33 24.5 66t23.5 66l47 132l9 25z" />
    <glyph glyph-name="L" unicode="L" horiz-adv-x="975" 
d="M1016 671h12l12 3q12 3 22 10q21 13 33 36q12 19 17 47q2.28577 13.1429 2.28577 27.5919q0 10.8367 -1.28577 22.4081q-2 12 -6 23.5t-11 22.5q-6 10 -14 20q-9 9 -18 15q-18 14 -44 19q-12 3 -25 3q-4 1 -12 1q-3 0 -6 -0.5t-6 -0.5q-6 -1 -11.5 -2t-10.5 -3
q-14 -5 -21 -10q-11 -6 -20 -14t-17 -17t-16 -18.5t-15 -19.5q-8 -11 -14.5 -21.5t-13.5 -21.5q-14 -23 -25.5 -45.5t-22.5 -46.5t-21.5 -48t-20.5 -49q-20 -49 -38.5 -98.5t-36.5 -99.5l-19 -51l-18 -50q-5 -12 -9.5 -24.5t-9.5 -25.5q-5 -12 -10 -24.5t-10 -25.5l-20 -50
l-21 -49q-11 -25 -22 -49.5t-24 -48.5l-13.5 -27t-14.5 -26q2 -2 4.5 -3.5t5.5 -3.5q23 -14 45 -28.5t45 -28.5q45 -29 93 -51q50 -24 99 -35q26 -6 51.5 -9q15.3 -1.8 30.78 -1.8q10.32 0 20.72 0.800003q26 2 51 7.5t49 14.5q47 17 91 47q22 15 42 31t39 34q8 8 19.5 8
t19.5 -8q7.52942 -7.52941 7.52942 -18.6021q0 -12.8685 -8.52942 -21.3979l-3 -2q-23 -17 -46 -31.5t-48 -27.5t-50.5 -23.5t-52.5 -18.5t-54 -11q-14 -2 -27.5 -3t-27.5 -1q-28 0 -55 4t-53 12t-51.5 18t-49.5 22t-47.5 25t-46.5 27l-91 56l-10 6q-4 -8 -8 -14.5t-9 -14.5
q-8 -11 -15.5 -22.5t-15.5 -22.5t-17 -22t-19 -22q-17 -20 -41 -39q-22 -19 -48 -32q-25 -13 -55 -21q-8 -2 -15 -2.5t-15 -1.5h-22q-5 0 -7 1q-8 1 -14.5 1.5t-14.5 2.5q-7 2 -13.5 4t-14.5 4q-14 5 -27 12t-24 17t-20 23q-10 13 -14 26q-5 12 -7 29q-1 7.5 -1 14.75
t1 14.25q3 28 17 55q13 24 33 46q19 18 45 34q27 15 52 20q29 8 55 8q5 1 14 1q3 0 6.5 -0.5t7.5 -0.5q13 0 27 -3q14 -2 27 -5t26 -8q14 -5 26 -10.5t25 -10.5q18 -8 38 -20l26 49q11 24 21.5 48t21.5 48l20 49l19 49q5 13 9.5 25.5t9.5 24.5q5 13 9.5 25t9.5 25l36 100
q19 51 38 100.5t40 99.5q11 25 21.5 49.5t22.5 49.5q6 12 12 24.5t13 24.5t13.5 24t14.5 23q15 24 33 45q9 11 19 21.5t21 19.5t23.5 17.5t26.5 14.5q11 5 28 10q15 3 30 3q2.66669 0.666687 5.11108 0.666687q1.22223 0 2.38892 -0.166687q3.5 -0.5 7.5 -0.5t7 -0.5t7 -0.5
q14 -1 28 -6q8 -2 14.5 -4.5t13.5 -5.5q12 -5 25 -15q23 -18 37 -45q14 -26 17 -54q1.125 -10.125 1.125 -20.6719q0 -17.5781 -3.125 -36.3281q-6 -27 -20 -52q-7 -12 -17 -23q-11 -11 -23 -19q-13 -8 -26 -11q-8 -3 -14 -3q-3 -1 -8 -1h-3l-2 -1h-2q-8 0 -8 9q0 7 8 9z
M385 -15q-12 6 -24 10.5t-25 9.5q-12 4 -24.5 7t-25.5 5q-12 3 -25 3h-26q-24 -1 -50 -8q-25 -7 -47 -20q-11 -6 -21 -14t-19 -16q-19 -19 -29 -41q-5 -11 -8.5 -23t-4.5 -24q-0.75 -6 -0.75 -11.9375q0 -17.8125 6.75 -35.0625q10 -23 29 -36q9 -8 20 -12.5t23 -7.5
q16.4286 -3.57143 33.8775 -3.57143q6.9796 0 14.1225 0.571426h13q4 1 11 1l12 2t12 3q22 6 43 18q11 6 20.5 13t19.5 15q9 8 18 17t17 19q17 20 31 40.5t28 42.5l16 28z" />
    <glyph glyph-name="M" unicode="M" horiz-adv-x="1337" 
d="M679 825h-1l-1 -1h-1l-3 -2q-4 -2 -6 -4l-9 -10l-5 -7l-4 -7l-7 -14l-7.5 -15t-6.5 -15l-13 -32l-13 -32l-12 -32l-24 -66q-23 -66 -45.5 -132.5t-45.5 -132.5l-23 -63q32 56 64 109.5t67 107.5q17 28 35 55t37 54t38 53t39 52l21 25l10 13l11 12l21 25l23 24
q11 12 22.5 23t24.5 22l27 21q7 5 14.5 9t15.5 8l17 6q5 2 9 2.5t9 1.5h9.5t9.5 -1q12 -2 21 -7q6 -4 9 -7q3 -2 7 -8q4 -5 5.5 -10t3.5 -10t2.5 -9.5t1.5 -9.5q0 -5 0.5 -9t0.5 -9l-3 -35l-3 -17q-2 -7 -4 -17q-4 -17 -9 -32.5t-10 -31.5t-11 -31t-13 -31l-25 -60
q-7 -15 -13.5 -30t-14.5 -29q-7 -15 -13.5 -30t-14.5 -29l-5 -12q31 54 62.5 105.5t66.5 102.5q27 39 52 73q13 18 26.5 36t27.5 35t29.5 33.5t32.5 31.5q8 8 16.5 15t18.5 14q5 4 10 7l10 6q9 5 22 10l12 3q2 0 3.5 0.5t3.5 0.5h20q8 -2 14 -4q8 -3 13 -7q3 -3 6 -5.5
t5 -5.5q9 -12 12 -26q2 -6 3 -12.5t2 -12.5t1 -12.5v-12.5q-1 -12 -2 -23.5t-3 -22.5q-4 -23 -9.5 -45t-12.5 -44t-14 -43t-15 -42q-15 -43 -31.5 -84t-33.5 -83l-71 -163l-70 -162q-5 -10 -9 -20t-8 -21l-17 -40l-15 -41l-14 -40l-13 -40q-1 -5 -2 -9.5t-1 -9.5
q-2 -10 0 -15l2 -4l5 -3h7q4 0 9 3q5 2 9 4.5t9 5.5l16 14q8 7 15 15.5t14 16.5q7 9 13.5 18t12.5 18q13 18 25 36.5t23 37.5l22 38t22 39l42 78l39 79q5 10 9.5 20t9.5 20t9.5 20t9.5 20q4 7 10 4q7 -4 4 -10l-39 -80l-41 -79q-10 -20 -20.5 -39.5t-21.5 -39.5t-22 -38.5
t-22 -38.5q-12 -19 -23.5 -37.5t-24.5 -37.5l-27 -36q-7 -9 -14 -17.5t-15 -16.5l-16 -17q-5 -4 -9.5 -7.5t-9.5 -6.5q-6 -5 -12 -6q-6 -3 -15 -3t-16 4q-5 2 -8 5t-5 7q-5 5 -7 14q-2 3 -2 6.5t-1 6.5q-1 7 -1.5 13t-0.5 13l2 24q1 6 1.5 11.5t2.5 11.5q3 21 11 44
q3 11 6.5 21.5t7.5 21.5t8 21.5t8 21.5l16 41q17 42 34.5 82.5t35.5 81.5l72 162q5 11 9 20.5t8 20.5l18 40q8 20 16.5 41t16.5 41t15.5 40.5t15.5 41.5l13 41q3 11 6 21t5 21l4 20t4 21q1 5 1.5 9.5t0.5 9.5v9.5t-1 9.5q-2 11 -5 15q-3 7 -9 10l-7 3q-2 0 -2.5 0.5
t-1.5 0.5q-3 0 -5 1h-9l-9 -2q-10 -1 -19 -6q-11 -5 -19 -10q-9 -5 -18 -11.5t-17 -13.5t-15.5 -14.5l-15.5 -15.5t-15 -16t-15 -16q-14 -17 -28 -34.5t-27 -34.5q-14 -18 -26 -36t-25 -37q-24 -37 -47.5 -74.5t-46.5 -75.5t-44.5 -76.5t-43.5 -77.5q-32 -57 -63 -114.5
t-62 -115.5q0 -1 -0.5 -1.5t-0.5 -1.5l-25 -58l-12 -29l-10 -29q-3 -11 -12 -16t-20 -2q-10 3 -15 12t-3 19q2 9 4.5 17t5.5 16q2 8 5 16l6 16q6 16 12.5 31t12.5 30l28 60t28 59q29 59 58.5 116t58.5 116l29 57q7 15 14 29.5t14 28.5q7 15 13.5 29.5t12.5 29.5q7 14 13 29
l12 30q6 14 11.5 29t10.5 30q6 16 9 29q2 8 3.5 15t3.5 14q1 8 1.5 14.5t-0.5 13.5l-3 10l-6 8q-8 6 -23 6h-6q-3 -1 -7 -1l-14 -4q-8 -3 -14.5 -6t-13.5 -8q-7 -4 -13 -8.5t-13 -9.5l-12 -10l-12 -10l-23 -22q-23 -23 -43.5 -47.5t-40.5 -50.5q-39 -51 -75 -105l-36 -54
q-9 -14 -18 -27t-17 -27q-35 -55 -68.5 -110.5t-65.5 -112.5l-63 -113l-9 -16l-25 -56q-8 -16 -15.5 -32t-16.5 -32l-17 -31q-5 -8 -9.5 -15.5t-9.5 -15.5l-22 -30l-3 -3l-3 -4l-6 -7l-12 -14q-26 -27 -57 -48l-16 -10t-17 -9q-8 -4 -17 -7t-19 -5t-19.5 -3.5
q-5.7 -0.899994 -11.58 -0.899994q-3.92 0 -7.92 0.399994q-5 1 -9.5 1.5t-9.5 2.5q-12 3 -19 8q-9 5 -16 12.5t-12 15.5q-10 16 -12 37q-1.5 9 -1.5 18.25t1.5 18.75q1 16 8 36q2 8 5.5 16.5t7.5 16.5q7 15 17 32q5 8 9.5 15.5t9.5 14.5l21 29q43 55 92 107q11 14 23 26.5
t24 25.5l47 52q48 52 93 105q23 27 44 55t41 57q10 14 19 29t17 30q4 7 7 13.5t6 13.5l11 28l27 65q14 35 30 65l18 32q5 8 10.5 15t11.5 15q13 16 28 27q9 7 18 11q3 1 5.5 1.5t5.5 0.5h10q1 0 1 -1h1q7 -2 5 -9q-2 -5 -6 -5zM465 486q-20 -29 -41 -57.5t-44 -55.5
q-45 -55 -92.5 -106t-95.5 -103q-12 -13 -24 -25.5t-23 -26.5t-22 -27t-22 -27q-5 -8 -10 -14.5t-10 -14.5q-10 -13 -18 -29q-5 -8 -8.5 -15.5t-7.5 -15.5l-6 -16t-5 -16q-5 -15 -7 -33q-1 -8.5 -1 -16.75t1 -16.25q3 -14 11 -29q8 -12 22 -20q13 -6 29 -6q14 0 31 5
q15 4 29 14q7 5 13.5 9.5t12.5 9.5q13 11 23.5 23t21.5 26l9 14l5 6l2 4l2 4q10 15 17 29q5 8 9 14.5t8 14.5l16 31q8 15 14.5 30.5t14.5 31.5q27 64 51 129q13 33 24.5 66t23.5 66l47 132l9 25zM886 416l2 2z" />
    <glyph glyph-name="P" unicode="P" horiz-adv-x="886" 
d="M492 741h-2l-3 -2q-1 0 -2 -1t-3 -2l-4 -4l-4 -6q-6 -8 -8 -12l-7 -14q-6 -14 -11.5 -28.5t-10.5 -29.5l-5 -15l-5 -16l-9 -30l-10 -31l-27 -93l-9 -32l-10 -31q0 -1 -0.5 -1.5t-0.5 -1.5q2 -12 -6 -20q-8 -26 -16 -51t-17 -50q-5 -16 -10.5 -31.5t-11.5 -30.5
q-4 -14 -11 -31q-3 -8 -6 -15t-7 -15q-6 -16 -12.5 -31t-13.5 -30q-8 -15 -15.5 -30t-15.5 -29l-18 -28t-19 -28q-5 -7 -10 -13.5t-11 -13.5q-5 -6 -10.5 -12.5t-11.5 -12.5q-24 -24 -54 -42l-15 -7l-17 -6l-17 -3q-4 -1 -8 -1h-9q-6 0 -6 6t6 6q16 0 30 6q8 2 14 6
q5 2 13 8q13 8 24 19.5t20 23.5q5 7 9.5 13t8.5 13t8 13.5t7 14.5q15 28 27 57l24 60l23 60l10 30l11 30q5 16 10 31t10 31l23 73q-5 0 -11 0.5t-11 1.5q-36 5 -67 18q-18 8 -31 16q-8 5 -14.5 10t-13.5 10q-26 22 -45 53q-5 7 -8.5 14.5t-6.5 15.5q-4 8 -6.5 16.5
t-4.5 16.5t-3 16.5t-2 16.5q-1 5 -1 9v8v17q2 33 11 65.5t25 61.5q8 14 17 27.5t20 26.5l23 24l24 22q13 11 26.5 20t27.5 17q28 16 59 28q29 10 62 18q17 3 32.5 5t32.5 3q12.8 1.59998 25.6 1.59998l6.39999 -0.0999756q16 -0.5 33 -1.5q33 -3 64 -9q66 -14 124 -45
q14 -8 28 -17t27 -20q26 -20 49 -48q24 -27 38 -57q8 -15 14.5 -31.5t10.5 -33.5q2 -8 3.5 -17t3.5 -17q0 -5 0.5 -9t0.5 -9q1 -3 1 -9v-26q0 -4 -0.5 -8t-0.5 -9q-1 -8 -1.5 -17t-2.5 -17q-6 -36 -19 -66q-5 -15 -14 -32q-8 -15 -18 -30q-18 -29 -44 -53q-13 -12 -27 -22
t-28 -19q-15 -8 -30 -15.5t-31 -12.5q-16 -6 -31.5 -10t-32.5 -8q-31 -6 -64 -9l-32 -2l-33 -2q-10 0 -10 10q-1 4 2 7t7 3h33l31 3q16 2 31 5t30 8q59 18 107 57q23 19 42 41t33 48t23.5 53t14.5 56q2 15 3 29.5t2 29.5v14q0 10 -1 14q-1 8 -1.5 14.5t-2.5 13.5
q-5 29 -16.5 55.5t-28.5 51.5q-33 48 -84 85q-51 35 -111 52q-15 4 -30 6.5t-31 4.5t-31.5 2.5t-30.5 -1.5q-32 -2 -62.5 -8t-59.5 -17q-31 -13 -56 -27q-29 -18 -50 -36l-23 -21l-21 -23q-9 -12 -17.5 -25t-15.5 -27t-12.5 -28t-9.5 -29t-5.5 -30t-2.5 -30v-11l1 -4
q0 -10 1 -15q2 -16 6 -29q5 -17 10 -28q5 -12 15 -25q4 -6 8.5 -12t9.5 -11q10 -10 22 -19q24 -17 51 -27q14 -5 28.5 -7.5t28.5 -2.5q14 -1 29 0q1 0 2 0.5t2 0.5l1 2l10 31l11 31q9 33 21 62q2 8 5 15.5t6 15.5l5 16l6 15q6 15 12.5 30.5t14.5 30.5l7 15q2 4 4 7.5t4 7.5
l19 29q8 12 23 27q4 3 7.5 6t8.5 5l10 3q2 0 3 0.5t3 0.5h5q8 -2 8 -10q-2 -7 -7 -7z" />
    <glyph glyph-name="Q" unicode="Q" horiz-adv-x="737" 
d="M640 630q-1 -37 -6 -73t-13 -72q-8 -35 -20 -69.5t-26 -68.5q-15 -33 -32.5 -65t-37.5 -62q-22 -32 -44 -59l-25 -27q-6 -7 -12.5 -13t-13.5 -12q-26 -25 -59 -45l-11 -6l2 -9l4 -17q3 -19 9 -35q5 -18 12 -32q3 -8 7 -14.5t9 -12.5q5 -5 10.5 -9.5t12.5 -6.5q5 -2 15 -4
h7.5t8.5 1q6 0 16 4l8 3l8 4q7 3 15 9l14 10q14 12 27.5 25t25.5 27q6 7 11.5 14t11.5 15t11.5 15t10.5 15l21 31l20 31l19 33l18 32q5 8 9 16.5t8 16.5l17 34q8 14 16 34l4 8t4 9l7 17q4 10 13 6q6.23077 -2.76923 6.23077 -7.93491q0 -2.29587 -1.23077 -5.06509v-1
l-8 -17l-9 -17l-17 -34q-4 -8 -8 -16.5t-9 -16.5l-18 -33q-19 -33 -38 -65.5t-41 -63.5q-11 -16 -22 -31.5t-23 -29.5q-6 -8 -12 -15t-13 -14q-15 -16 -28 -27l-15 -12l-16 -12l-18 -9q-11 -5 -20 -8q-11 -3 -21 -3q-3.33334 -0.666664 -7.11111 -0.666664
q-1.88889 0 -3.88889 0.166664q-6 0.5 -12 1.5q-5 2 -11 3.5t-11 4.5q-5 2 -9.5 5.5t-9.5 7.5q-17 15 -27 33q-6 9 -10 18.5t-8 18.5q-8 21 -12 38q-2 4 -3 7.5t-2 8.5q-5 -2 -13 -4q-18 -6 -38 -9q-10 -1 -19.5 -1.5t-20.5 1.5q-21 2 -40 9q-21 8 -36 19q-9 5 -16.5 11.5
t-15.5 14.5q-7 8 -13 16l-12 16q-10 16 -18 35q-5 9 -8 18t-6 19q-10 35 -15 75q-2 19 -3 37.5t-1 37.5q1 38 6 75t13 73q8 37 20 72t27 70q8 17 16 33.5t17 33.5q9 16 18.5 32t20.5 31q21 31 45.5 59.5t53.5 53.5q32 26 63 44l17 9q5 2 9 4t9 4q9 4 18.5 7t19.5 6
q20 5 40 6q10 0 20 -0.5t21 -2.5q19 -3 39 -12l18 -10t17 -12q8 -6 14.5 -13t12.5 -15t11.5 -16.5t10.5 -16.5q9 -17 15 -34.5t11 -35.5t8 -36.5t5 -36.5t3 -36.5t1 -36.5zM622 630q0 18 -0.5 36t-2.5 35q-5 38 -16 69q-12 33 -31 61q-21 27 -48 45q-27 16 -57 21
q-8 0.5 -15.75 0.5t-15.25 -0.5q-8 -1 -15.5 -2t-15.5 -3t-15.5 -5t-15.5 -6l-15 -7l-14 -8q-14 -9 -28 -19t-27 -21t-24.5 -23.5t-22.5 -25.5q-11 -14 -21.5 -27.5t-20.5 -27.5q-5 -8 -9.5 -15t-9.5 -15q-5 -7 -9 -14.5t-8 -15.5q-8 -15 -15.5 -30.5t-15.5 -31.5
q-28 -67 -44 -132q-8 -35 -12.5 -69t-4.5 -69q-0.571426 -10 -0.571426 -19.8367q0 -24.5918 3.57143 -48.1633q0 -6 0.5 -12t1.5 -12l1 1l30 24q8 6 16 11.5t16 10.5q16 10 36 18q11 4 20 5q3 0 5.5 0.5t5.5 0.5q8 0 12 -1q12 -2 23 -7q5 -2 9.5 -5.5t9.5 -7.5
q16 -15 27 -35q5 -9 9 -18t7 -19l6 -19q2 -5 3 -9.5t2 -9.5l9 -37l7 -37l4 -22l3 2q29 16 58 40q7 5 13 11l13 13l24 25q12 14 22.5 28t21.5 28q41 60 68 125q28 66 45 135q4 18 7 35.5t6 34.5q2 18 3 36t2 35zM89 196q2 -8 5 -15.5t6 -15.5l15 -29q8 -14 18 -26t22 -22
q24 -19 55 -27q14.2222 -3.55556 28.4444 -3.55556l3.55556 0.0555573q16 0.5 33 3.5q3 1 6.5 1t7.5 2l-2 6t-1 6l-4 19l-7 36q-2 9 -3.5 18.5t-3.5 17.5l-3 18q-2 5 -2.5 9t-2.5 8q-2 9 -4.5 17t-5.5 16l-6 15q-3 8 -8 13q-10 13 -22 17q-7 2.5 -14.75 2.5t-16.25 -2.5
q-2 0 -8 -2l-8 -3l-17 -7q-8 -5 -15.5 -9.5t-15.5 -10.5q-7 -5 -14 -10.5t-14 -12.5q-3 -3 -9 -7q3 -14 7 -22z" />
    <glyph glyph-name="R" unicode="R" horiz-adv-x="818" 
d="M558 741h-2l-3 -2q-2 0 -2.5 -1t-2.5 -2t-2.5 -2t-2.5 -3l-4 -5l-9 -13q-2 -3 -3.5 -6l-3.5 -7q-8 -14 -14 -29l-12 -30l-5 -15l-6 -15q-3 -8 -6 -15.5t-5 -15.5l-22 -62l-22 -63l-22 -62q-11 -32 -22.5 -63t-24.5 -62q-6 -16 -12 -31.5t-13 -30.5l-14 -31
q-3 -8 -6.5 -15l-7.5 -15q-13 -29 -30 -61q-15 -31 -34 -58q-9 -14 -18.5 -28t-20.5 -28l-22 -26l-24 -25q-13 -12 -26.5 -22.5t-29.5 -18.5q-4 -2 -7.5 -4t-7.5 -4l-17 -6l-17 -3q-5 -1 -9 -1h-9q-6 0 -6 6t6 6t16 2t15 4q8 2 14 6q4 2 7 4t7 4q26 18 46 43l19 26l17 28
l30 58l27 59q6 15 12.5 30t13.5 30l12 30l12 31q6 15 12 30.5t11 31.5q9 24 18 48.5t19 49.5l-1 1l-25 15l-24 18l-23 19q-44 44 -66 98q-11 27 -15 57q-3 13 -3 29v15t1 14q1 28 11 57q5 14 10 27.5t13 25.5q14 27 33 47q9 11 19 21t21 20q23 19 47 32q12 8 25 14t26 11
q14 5 27 9.5t27 7.5q29 8 56 9q14 2 28.5 2t28.5 -1q14 0 28 -2l28 -4q29 -5 56 -14t53 -23q13 -8 25.5 -15.5t23.5 -17.5q23 -17 43 -42q5 -6 9 -12t8 -13q9 -12 15 -27q7 -14 11.5 -28.5t7.5 -29.5q2 -8 3 -15.5t1 -15.5q1 -4 1 -8v-8v-15q-2 -30 -9 -60q-3 -15 -8 -29
t-11 -28l-7 -14l-8 -13q-2 -5 -8 -13q-2 -5 -8 -13q-18 -24 -41 -44q-6 -5 -12 -9.5t-12 -9.5q-6 -4 -12.5 -8t-13.5 -7q-25 -15 -53 -24q-27 -9 -56 -15q-14 -2 -28.5 -3.5t-28.5 -3.5h-2l4 -2q28 -9 54 -27q12 -9 23.5 -20t19.5 -25q18 -26 26 -57q2 -4 2.5 -8t1.5 -8
l3 -15l2 -15q0 -10 1 -15v-31q0 -8 -0.5 -15t-1.5 -14q-1 -15 -3 -29.5t-4 -28.5q-2 -8 -3 -14.5t-2 -13.5l-5 -28q-3 -14 -6 -27.5t-5 -27.5t-3.5 -27.5t-3.5 -26.5q-1 -14 -1 -27t2 -26q1 -12 6 -26q2 -6 4.5 -12t6.5 -11q7 -12 15 -20q5 -5 10 -9t11 -8q22 -15 49 -23
q3 -1 6.5 -1.5t6.5 -2.5q4 -1 7 -1.5t7 -0.5q7 -2 13.5 -3t14.5 -2q14 -1 28 -1.5t28 -0.5q6 1 8 -7q0 -7 -8 -7q-30 0 -58 3l-28 3l-15 3l-14 3q-14 4 -28 8.5t-28 12.5q-15 8 -25 17q-12 10 -22 22q-5 7 -9 13.5t-7 13.5q-4 8 -6.5 14.5t-4.5 14.5q-5 15 -7 30.5t-3 30.5
q-2 15 -1.5 30t1.5 29q1 15 2 29.5t3 28.5l4 28l4 28l8 56l3 27v6.5t1 6.5q0 9 1 13v27t-2 26q-1 6 -1.5 12.5t-2.5 12.5l-4 12l-4 12q-3 5 -6 11t-7 11t-8 9.5t-9 9.5q-20 18 -45 30l-12 6t-13 5q-6 1 -11.5 2.5t-10.5 2.5h-3q-9 0 -11 10q0 3 1 5l3 3l2 1q1 1 3 1h1h28
q7 1 13.5 1t13.5 2q28 3 53 12q51 15 93 49q20 16 36.5 35t30.5 40l6 11l6 11q4 8 5 12q2 2 2.5 5t2.5 6q9 24 15 48q3 12 4.5 24.5t3.5 25.5v6q0 4 1 6v12q0 6 -0.5 12t-1.5 12q-6 49 -33 93q-28 44 -71 75q-42 30 -96 44q-28 7 -53 8q-13.5 0.5 -27 0.5l-27 -0.5
q-27 -3 -54 -9q-13 -3 -25.5 -7.5t-25.5 -9.5q-26 -9 -48 -24q-12 -7 -22.5 -15t-21.5 -16q-10 -9 -19.5 -18.5t-17.5 -20.5q-17 -22 -29 -44q-7 -12 -11.5 -24.5t-8.5 -25.5q-7 -26 -8 -51q0 -14 1 -26.5t4 -25.5q2 -13 6.5 -25.5t9.5 -23.5q11 -25 27 -44q15 -20 36 -37
l21 -15q9 -7 22 -13l20 -10l5 12l12 31l24 62q3 8 6 15t7 15l6 16l7 15q13 29 30 61l8 15l9 15l20 28q11 16 25 27q6 6 16 11l10 3q2 0 3 0.5t3 0.5h5l1 -1q9 -2 7 -10q-2 -5 -8 -7z" />
    <glyph glyph-name="S" unicode="S" horiz-adv-x="709" 
d="M536 562h21l21 2q11 2 20.5 4.5t20.5 6.5q41 16 70 45q15 14 26.5 31.5t19.5 37.5q4 10 6 20t4 21t2.5 21t-1.5 20q-1 5 -1.5 10t-2.5 10q-3 12 -7 19q-9 19 -24 33q-14 13 -34 22q-16 7 -39 10q-5 1 -10.5 1h-10.5h-20q-22 -2 -41 -6q-20 -4 -40 -12q-9 -4 -18 -9
t-17 -10q-9 -5 -16.5 -11t-15.5 -13q-15 -14 -27 -30q-25 -33 -38 -69q-3 -10 -6 -19t-5 -19l-4 -20q0 -2 -0.5 -4.5t-0.5 -5.5v-4q0 -1 -0.5 -2t-0.5 -3v-19.5t1 -19.5q2 -9 3.5 -18.5t4.5 -19.5q5 -19 13 -37t18 -35q5 -9 10.5 -18t11.5 -18l24 -34q13 -18 25.5 -36
t24.5 -37t23.5 -38.5t20.5 -41.5q18 -40 28 -89q5.81818 -35.6364 5.81818 -68.6281q0 -12.3719 -0.818176 -24.3719q-1 -4 -1 -12l-1 -6v-4l-1 -1v-1q-1 -6 -1.5 -11.5t-2.5 -11.5q-3 -21 -11 -44q-5 -20 -15 -44q-5 -11 -10.5 -21t-11.5 -20q-13 -21 -27 -38
q-13 -16 -33 -34q-8 -8 -17.5 -14.5t-19.5 -12.5q-23 -13 -42 -20q-11 -5 -22 -8l-22 -6q-11 -2 -22.5 -3.5t-22.5 -3.5q-11 -1 -22.5 -1h-22.5h-11q-4 1 -11 1q-5 1 -11 1t-11 2q-23 3 -44 9q-11 4 -21.5 8t-20.5 10q-21 11 -37 26q-17 15 -29 35q-13 21 -20 41l-6 22
l-4 22q-1 11 -1.5 22q-0.166666 3.66667 -0.166666 7.33333q0 7.33333 0.666666 14.6667q0 21 5 44q4 22 11 43.5t16 41.5q5 10 10 19.5t10 19.5q13 20 25 37q14 17 29 33.5t32 30.5t36.5 25.5t40.5 20.5q10 5 15 -6q3 -10 -6 -15h-1l-19 -8l-19 -9q-17 -10 -35 -23
q-15 -11 -32 -28q-8 -7 -15 -15l-14 -16l-24 -35l-20 -37q-5 -10 -8.5 -20t-7.5 -20q-3 -11 -5.5 -20.5t-4.5 -20.5t-3 -21t-2 -21v-21.5t2 -20.5q3 -21 10 -41t18 -37q23 -35 61 -54q19 -10 39 -15t41 -7q5 -1 10.5 -1h10.5h21q11 1 21 1.5t21 2.5t20.5 4.5t19.5 5.5
q19 5 38 15q36 16 66 46q29 30 46 65q5 9 9 18t8 19l12 39q2 10 4 19.5t4 20.5l3 20v10q1 3 1 10v20t-1 20t-2 19.5t-3 19.5t-4.5 19.5t-6.5 19.5q-3 9 -6.5 18.5t-8.5 18.5q-8 19 -18.5 36.5t-21.5 35.5q-11 17 -23.5 34.5t-25.5 35.5q-6 9 -12.5 18t-12.5 19
q-6 9 -12 18.5t-11 20.5q-5 10 -10 20.5t-10 21.5t-8.5 22.5t-6.5 22.5q-3 12 -5 23.5t-3 23.5t-1 24t1 24q1 2 1 6v4l1 2v1q0 5 2 11q1 10 5 23q3 12 6.5 23t8.5 22q20 45 51 79q34 35 75 56q42 21 88 27q5 1 11 1.5t11 0.5q6 1 12 1h11h11q4 -1 12 -1l22 -3q21 -4 44 -14
q22 -11 38 -27q17 -17 26 -38q2 -5 4 -10.5t4 -11.5l4 -22q0.666687 -7.33331 0.666687 -14.8889q0 -3.77777 -0.166687 -7.61108q-0.5 -11.5 -2.5 -22.5q-3 -23 -12 -44q-17 -42 -49 -74q-33 -33 -74 -49q-42 -18 -88 -18q-4 -1 -6.5 2t-3.5 7q0 10 10 10z" />
    <glyph glyph-name="T" unicode="T" horiz-adv-x="711" 
d="M103 -129q40 3 73 16q9 4 17.5 8t16.5 9q17 10 29 21q14 12 26.5 26t23.5 28l21 30l20 32q19 35 33 67q8 17 15 35l14 36q13 36 25 72.5t23 73.5q6 19 14.5 48t18 60.5t19 60.5t15.5 47q6 19 12.5 37.5t13.5 37.5q8 18 15.5 36.5t15.5 36.5q18 37 40 71q6 8 12.5 16.5
t13.5 16.5l12 13l-149 33q-38 8 -75 14.5t-75 11.5l-38 3l-37 2q-10 0 -19 -0.5t-18 -0.5l-37 -3q-17 -2 -34.5 -6t-34.5 -10q-9 -3 -17.5 -6.5t-16.5 -7.5l-16 -10l-16 -10q-6 -4 -8 2q-1.8 1.79999 -1.8 3.59998q0 1.20001 0.799999 2.40002q10 18 25 33.5t33 26.5
q9 5 18.5 10t19.5 9q20 8 40 12q11 2 20.5 3t20.5 2t21 1.5t20 0.5q40 -2 81 -6q20 -3 39 -6t39 -8q20 -4 39 -8t38 -9q38 -10 75.5 -20.5t75.5 -21.5q10 -4 23 -7l18 9q5 3 9.5 5t9.5 4l10 3l5 2l5 1q20 5 39 9.5t39 7.5q39 6 79 6q11 -1 20.5 -1t19.5 -2t20 -3.5t20 -4.5
q5 -2 9.5 -3.5t9.5 -3.5t9 -4.5t9 -5.5q11 -7 17 -16q4 -6 5 -12q1 -3.5 1 -6.75t-1 -6.25q-1 -5 -5 -13l-9 -8q-10 -8 -19 -11q-17 -8 -40 -11q-10 -2 -19.5 -2.5t-20.5 -1.5h-10l-5 -1h-5h-10t-10 1q-20 1 -39.5 3t-39.5 5t-39 6.5t-38 7.5q-9 2 -18 3.5t-17 3.5l-2 -2
q-23 -25 -42 -59q-18 -32 -32 -67q-15 -35 -28 -70.5t-24 -73.5l-65 -215q-12 -38 -25 -75t-27 -74t-31.5 -73t-38.5 -71q-5 -9 -11 -17.5t-12 -16.5q-12 -16 -26 -32q-14 -15 -30.5 -28t-33.5 -24q-18 -11 -37 -18.5t-39 -12.5q-21 -5 -40 -6q-11 -1 -20.5 -1h-19.5v1
q-7 0 -5 5q0 5 5 5zM804 803l38 -7q10 -2 19 -3t19 -2q5 0 9.5 -0.5t9.5 -0.5h9q3 -1 10 -1q9 0 18.5 0.5t18.5 1.5q10 2 19 3.5t17 5.5q4 2 8 3.5t7 3.5l5 5l3 6v5l-3 6q-5 6 -12 12q-6 4 -15 8l-17 7q-9 3 -18 4.5t-19 3.5q-9 1 -18.5 1.5t-19.5 0.5q-39 0 -75 -9
q-37 -7 -73 -23l-4 -2l-3 -1l-2 -1l-8 -4l-5 -3q20 -5 40.5 -10t41.5 -10z" />
    <glyph glyph-name="U" unicode="U" horiz-adv-x="794" 
d="M447 891l-16 -33l-17 -33l-16 -34l-16 -33q-17 -33 -32.5 -66.5t-31.5 -66.5q-32 -68 -62 -135t-59 -135l-28 -68l-13 -35l-14 -34l-25 -69q-6 -17 -12 -34.5t-11 -34.5q-13 -38 -21 -70q-5 -18 -9 -35.5t-8 -35.5l-6 -35q-1 -8 -2 -17t-1 -18q0 -17 3 -33q3 -18 11 -28
q5 -6 10 -9q6 -5 13 -6q3 0 4 -1h4q3 -1 8 -1h8.5t8.5 1q16 1 33 9q8 4 15.5 8t15.5 9q15 10 28.5 21.5t26.5 25.5q24 24 48 56q22 28 42 60q11 15 20.5 30.5t19.5 31.5q19 32 37.5 64t35.5 64q36 66 70 131.5t69 131.5q17 33 34.5 66t35.5 65q9 18 19 36t20 35l14 28
q5 11 10.5 22.5t11.5 22.5l22 44q11 23 22.5 44.5t23.5 43.5q5 10 15.5 13t19.5 -2q10 -5 13 -15q1.125 -3.75 1.125 -7.35938q0 -6.01562 -3.125 -11.6406v-1l-42 -88l-22 -45l-21 -45q-21 -45 -42 -89.5t-41 -89.5q-10 -23 -19.5 -45t-20.5 -45l-38 -90l-36 -91l-17 -46
l-16 -47q-8 -23 -15.5 -46t-14.5 -46q-3 -11 -5.5 -23t-4.5 -23q-1 -6 -1.5 -12t-0.5 -12q0 -5 0.5 -11t1.5 -11q4 -12 8 -18q4 -4 7 -5q2 -2 4.5 -2t4.5 -1h10q4 0 10 3q11 6 19 12q19 15 34 34q8 10 15 19.5t14 19.5q14 20 27 41.5t25 42.5q13 21 25 42.5t23 43.5
q12 22 23 44l22 44l11 22l11 23l20 44v1q4 7 12 4q8 -4 4 -11q-11 -23 -21.5 -45t-21.5 -45t-22.5 -44.5t-23.5 -43.5q-23 -44 -48.5 -86.5t-54.5 -83.5q-12 -19 -30 -40q-4 -5 -8 -9.5t-9 -9.5q-8 -9 -18 -18q-9 -9 -21 -15q-3 -2 -6.5 -3t-7.5 -3q-2 0 -4 -0.5t-4 -0.5
q-4 0 -7 1q-8 0 -15 3q-8 4 -13 9l-9 12l-6 13q-2 7 -3 13.5t-2 13.5l-2 26q0 14 1 26.5t2 25.5l4 25l4 25q2 13 5 25l6 24q4 13 7 25t8 24l15 47q8 24 17 47.5t18 46.5q8 20 15.5 40t15.5 40q-29 -55 -57 -109.5t-58 -108.5q-36 -66 -75 -129q-20 -32 -41 -62.5t-44 -60.5
q-12 -14 -24 -28.5t-25 -28.5l-27 -26q-14 -14 -30 -24q-16 -13 -33 -20q-17 -9 -38 -13l-20 -3h-10l-3 1h-2q-4 0 -6 1q-12 2 -21 7q-9 4 -19 14q-4 4 -7 8.5t-6 9.5l-4 10l-4 10q-3 10 -4.5 20t-2.5 20q-1.125 14.25 -1.125 28.7812q0 24.2188 3.125 49.2188q2 19 5 38
t7 37q5 19 9.5 37t9.5 36q5 19 11 36.5t12 35.5l24 71l13 35l14 35l27 69q29 70 59 137.5t62 135.5q17 34 33 67.5t33 66.5q4 8 8 16.5t9 16.5q4 8 8 16.5t9 16.5l17 33l18 33q5 10 15.5 12.5q3.5 0.833313 6.83334 0.833313q6.66666 0 12.6667 -3.33331q10 -5 13 -15
t-2 -19z" />
    <glyph glyph-name="V" unicode="V" horiz-adv-x="641" 
d="M35 -235h1q7 13 12 27q3 8 6 17t5 18q4 17 7.5 35.5t6.5 36.5l5 37l3 18q0 5 0.5 9t1.5 9l4 37l4 37l15 149l6 75q2 18 3.5 36.5t3.5 37.5q4 38 8 75t9 75l6 37q1 10 2 19t3 19l7 37l7 37q7 37 18 75q3 10 6 19t7 18l2 5l2 4q2 6 4 9q2 5 4 9t4 9l10 18t12 17l6 8t7 8
t8 7t9 7q6 4 9 5l10 5q5 2 10.5 3t11.5 2q10 0 21 -3q9 -3 18 -8q4 -2 2 -6q-2 -2 -4 -2q-5 1 -9 1.5t-9 0.5q-9 0 -16 -3q-10 -4 -14 -7q-2 -1 -6 -5l-6 -5l-9 -13l-5 -7l-4 -8q-4 -8 -7 -16l-6 -16l-6 -16q-2 -6 -2 -9l-2 -4l-1 -4l-4 -18t-4 -17q-4 -18 -7.5 -36
t-6.5 -36q-5 -37 -9.5 -73.5t-9.5 -73.5l-16 -149l-9 -75l-9 -74q-5 -38 -10 -75t-12 -74q-2 -10 -3.5 -19t-3.5 -19q-2 -9 -3.5 -18t-3.5 -19l-4 -18l-5 -19l-10 -37q-5 -18 -11 -36t-14 -36q-4 -9 -8 -17.5t-9 -17.5l-10 -15q6 2 11.5 5t11.5 6q10 6 19 14t17 16
t15.5 17.5t15.5 19.5l7 9q2 3 3.5 5.5t3.5 4.5q4 5 7 10t7 10q7 11 13.5 21t12.5 21q4 5 7 10.5t6 10.5l12 22q13 21 25 43t23 44q48 88 94.5 176.5t98.5 176.5q13 22 26 43.5t27 42.5q27 42 57 84l31 41l15 20l17 20q16 20 33.5 38.5t35.5 36.5q9 9 18.5 17.5t19.5 17.5
q10 8 19.5 16t20.5 16q21 15 43 29t45 25q24 13 47 20l24 9l25 6l25 6l25 3l26 3q6 0 12 0.5t13 0.5q6 0 6 -6q2 -6 -5 -6h-1q-7.14282 0.571411 -14.2041 0.571411q-17.6531 0 -34.7959 -3.57141l-24 -5l-24 -7l-23 -9l-23 -10q-11 -5 -21.5 -11t-20.5 -12q-42 -27 -78 -60
q-9 -8 -18 -16.5t-17 -17.5l-33 -36q-31 -36 -62 -77l-15 -19l-14 -20l-29 -41q-14 -20 -27 -41l-26 -42q-14 -21 -26.5 -42.5t-24.5 -43.5q-13 -21 -25 -42.5t-25 -43.5l-24 -44l-25 -43l-48 -88q-13 -22 -25.5 -43.5t-24.5 -44.5l-53 -86q-4 -5 -7.5 -10.5t-6.5 -10.5
l-15 -21l-30 -41q-5 -5 -8.5 -10t-8.5 -10l-8 -10t-9 -10q-15 -16 -38 -36q-21 -18 -45 -29q-6 -2 -12.5 -4.5t-13.5 -4.5q-5 0 -13 -2h-14q-8 2 -8 10q0 6 8 8z" />
    <glyph glyph-name="W" unicode="W" horiz-adv-x="1036" 
d="M458 890l-16 -32l-15 -33l-29 -64q-15 -33 -30 -65.5t-29 -65.5q-29 -66 -57.5 -131t-54.5 -131l-27 -66l-26 -66l-24 -67q-6 -17 -12 -33.5t-11 -33.5l-21 -68l-9 -33l-9 -34q-5 -17 -8.5 -34t-5.5 -34q-3 -17 -3 -34q0 -8 0.5 -16t2.5 -16q1 -3 1.5 -6.5t2.5 -6.5
q3 -6 8 -11q2 -2 4.5 -3.5t5.5 -2.5q1 0 2 -0.5t2 -0.5h1q2 0 2 -1h8q14 -1 30 5q8 3 15 7.5t15 9.5q12 8 26 22q13 12 25 25q11 13 22 27t21 29q20 29 39 59t36 62l34 63l33 63q13 25 25.5 49.5t24.5 50.5l21 57q24 62 49 123t52 121q14 30 27.5 60t27.5 59l7.5 15t6.5 15
l15 30l15 29l15 30q5 9 15 12.5t20 -1.5q9 -5 12.5 -15t-1.5 -19v-1l-13 -29l-14 -30l-14 -29l-13 -30l-53 -119q-26 -60 -51.5 -120t-49.5 -121q-12 -31 -23 -61t-22 -61t-21 -61.5t-19 -61.5l-16 -62l-7 -31l-6 -31q-1 -8 -2 -15.5t-1 -15.5q-2 -15 0 -30q1 -15 6 -27
q3 -6 7 -10q4 -6 9 -7l6 -3q1 0 1.5 -0.5t1.5 -0.5h3q8 -2 14 -2q16 2 28 7q13 6 27 15l12 9l12 11q12 11 22.5 23t20.5 25t19 26t18 27q17 25 33 56l32 57l15 29l15 29q7 15 14 29.5t15 29.5q5 9 8 17l12 33l18 47q18 47 37 92.5t39 91.5q40 91 84 180q5 11 10.5 22.5
t11.5 22.5l22 44q11 23 22.5 44.5t23.5 43.5q5 10 15.5 13t19.5 -2q10 -5 13 -15q1.125 -3.75 1.125 -7.35938q0 -6.01562 -3.125 -11.6406v-1l-42 -88l-22 -45l-21 -45l-83 -178l-39 -91q-11 -23 -20 -45t-19 -45l-36 -91l-17 -46l-16 -46q-8 -23 -15.5 -46.5t-14.5 -46.5
q-3 -11 -5.5 -23t-4.5 -23q-1 -6 -1.5 -12t-0.5 -11v-12t2 -11q1 -11 8 -17q3 -5 7 -6l9 -3h10q4 0 9 3q12 5 20 12q9 8 17.5 16.5t16.5 17.5t15 19l14 20q14 20 26.5 41t25.5 43q13 21 24.5 42.5t23.5 43.5q11 22 22 43.5t22 44.5l11 22l11 23l20 44v1q4 8 11 4q9 -4 5 -11
q-11 -23 -21.5 -45t-21.5 -45t-22.5 -44.5t-23.5 -43.5q-23 -45 -48 -87t-54 -83l-30 -40l-17 -19q-9 -11 -18 -18q-10 -8 -22 -16q-8 -4 -13 -5h-4q-1 0 -2 -1h-6q-1 0 -1.5 0.5t-1.5 0.5q-8 0 -15 3l-13 9q-6 6 -9 12l-6 14q-2 7 -3 13.5t-2 12.5q-1 7 -1.5 13.5
t-0.5 13.5q0 13 1 25.5t2 25.5q2 13 4 25.5t4 24.5q3 19 9 41q-38 -71 -81 -138q-9 -14 -18.5 -27.5t-19.5 -26.5q-10 -14 -21 -26.5t-22 -24.5l-13 -12q-3 -2 -6 -5t-7 -5q-7 -5 -14.5 -10t-15.5 -9q-17 -9 -34 -10q-5 -1 -9.5 -1h-9.5q-1 1 -3 1h-2q-2 0 -2.5 0.5
t-2.5 0.5l-10 3q-5 2 -9 4.5t-9 6.5q-7 7 -13 16q-2 5 -4 9t-4 9l-5 17q-2 9 -3 18l-2 18v35q0 16 3 34q1 8 1.5 16.5t2.5 16.5q3 17 6.5 33t7.5 33l18 67l-24 -45q-8 -16 -17 -31.5t-18 -30.5q-9 -16 -18 -31.5t-19 -30.5l-20 -30q-5 -8 -10 -15t-10 -15q-11 -15 -22 -29
l-22 -28q-12 -14 -25 -27.5t-28 -24.5q-16 -12 -32 -20q-9 -4 -18.5 -6.5t-20.5 -3.5h-10q-1 0 -1.5 0.5t-1.5 0.5h-3q-1 0 -2 0.5t-3 0.5q-6 1 -11 4q-5 1 -10 6q-8 7 -15 17q-5 8 -9 19q-4 10 -5.5 19.5t-2.5 19.5t-1 19v19q1 19 3 37.5t5 36.5l6 36l4 18t4 17
q5 18 10 35.5t10 34.5t10.5 34.5t11.5 34.5q5 17 11 34.5t12 34.5t12 33.5t13 33.5q6 17 12.5 33.5t13.5 33.5q26 68 54.5 133.5t58.5 131.5q14 33 29.5 65.5t30.5 64.5q16 32 31.5 64.5t32.5 64.5q5 10 15 13q3.75 1.125 7.5 1.125l12.5 -3.125q9 -5 12.5 -14.5t-0.5 -19.5
z" />
    <glyph glyph-name="X" unicode="X" horiz-adv-x="658" 
d="M674 839l-40 -62l-39 -62l-80 -124l-78 -124l-54 -86v-22q-1 -24 -1 -48v-48v-48.5t1 -48.5l3 -96q3 -49 9 -94l3 -24l4 -22q1 -6 1.5 -11.5t2.5 -11.5q1 -5 2 -10.5t3 -10.5l3 -9q1 -2 2 -3.5t2 -3.5l2 -3l1 -1l1 -1h1v-1h2l3 2q3 1 9 5l8 7q5 3 8 8q4 5 7.5 9.5
t6.5 9.5q4 5 7 10t7 10l12 20l12 21l21 43q6 11 11 22l10 22q11 22 20.5 44t19.5 44q5 11 9.5 22.5t9.5 22.5l18 45q9 23 18 45t17 45q3 7 11 5q7 -3 5 -11l-36 -90t-37 -90t-39 -89t-43 -88q-3 -5 -6 -10.5t-5 -10.5l-12 -22q-3 -5 -6 -10.5t-7 -10.5l-13 -21l-15 -22
l-11 -10l-7 -5q-2 -2 -9 -4h-3l-1 -1h-2q-4 0 -6 1q-4 0 -10 2q-3 2 -5 2.5t-4 2.5l-7 6l-11 12q-2 3 -3.5 6l-3.5 7q-4 6 -6.5 12t-5.5 12l-8 25q-6 24 -9 50q-4 24 -6.5 48.5t-4.5 49.5q-6 97 -6 195q0 8 -0.5 15t-0.5 15l-46 -74l-78 -125l-78 -125l-39 -63l-38 -62
q-2 -4 -6.5 -5t-7.5 1q-5.78572 3.21428 -5.78572 8.08163q0 2.70409 1.78572 5.91837l80 124l79 124l79 125l59 94q0 68 3 137q0 25 1 49t2 49l4 97l6 97q2 24 3.5 48.5t3.5 48.5q1 11 9 18q7 6.125 16.2969 6.125q1.32812 0 2.70312 -0.125q11 -1 18 -8.5t6 -18.5v-1
l-5 -96q-2 -24 -2.5 -48.5t-1.5 -48.5q-2 -24 -2.5 -48t-1.5 -48l-3 -97l-2 -45l41 64l78 125l78 124l38 63l20 31l19 32q6 8 14 3q4.9231 -3.0769 4.9231 -7.66864q0 -2.86981 -1.9231 -6.33136z" />
    <glyph glyph-name="Y" unicode="Y" horiz-adv-x="863" 
d="M981 855h-6l-5 -2l-10 -5l-9 -8l-8 -9q-4 -5 -7.5 -10.5t-6.5 -10.5q-7 -10 -12 -23q-13 -25 -21 -49l-10 -25q-2 -7 -4 -13t-4 -13l-9 -26q-5 -14 -8 -25l-17 -52l-32 -105q-8 -26 -16 -52.5t-16 -52.5l-17 -52l-17 -53q-18 -52 -37.5 -103.5t-41.5 -102.5
q-11 -26 -22.5 -51t-24.5 -50l-25 -50q-7 -12 -13.5 -24t-14.5 -24q-27 -50 -61 -94q-33 -47 -72 -87q-41 -42 -84 -74q-11 -8 -23 -16t-24 -15q-22 -14 -50 -27q-52 -23 -106 -35q-53 -10 -111 -10q-6 0 -6 6t6 6q53 0 107 14q26 8 51 17.5t48 23.5q11 7 22.5 14t22.5 15
q21 15 42 33q10 9 19.5 18t18.5 19t18 19.5t17 20.5q35 43 64 86l28 46t27 46q7 12 13 24l12 24q7 12 12.5 24t11.5 24q11 25 22 49.5t22 49.5q20 51 39.5 101.5t37.5 101.5l18 52l18 51l35 104l18 52l9 26l6 18l-21 -41q-28 -53 -55 -105t-56 -104q-14 -26 -29 -51.5
t-31 -50.5t-32.5 -49.5t-34.5 -48.5q-10 -11 -19 -22.5t-20 -22.5l-10.5 -10.5t-11.5 -10.5q-11 -11 -23 -20q-7 -5 -13.5 -8.5t-13.5 -7.5q-8 -3 -15 -5.5t-15 -4.5q-5 -1 -8.5 -1.5t-8.5 -0.5q-3 -1 -8 -1l-3 1h-6q-9 1 -18 6q-8 4 -16 12q-7 7 -10 15q-2 4 -3.5 8t-3.5 8
q-5 15 -7 33q-1.60001 12.8 -1.60001 25.28q0 3.12 0.100006 6.22q0.5 15.5 2.5 30.5q3 31 10 60.5t15 58.5q7 28 17 57q5 14 10 28.5t10 28.5q2 7 4.5 14t5.5 14q2 7 5 13.5t5 14.5q6 14 11.5 27.5t10.5 27.5q23 55 47 109t50 108q13 26 25.5 53t26.5 53l13 27q8 14 14 26
l14 26l14 26q5 10 15.5 12.5q3.5 0.833313 6.94446 0.833313q6.88892 0 13.5555 -3.33331q9 -5 12 -15t-2 -19l-13 -26l-12 -27l-26 -53q-13 -26 -25.5 -52.5t-24.5 -53.5q-26 -54 -49.5 -107t-46.5 -107l-23 -54q-2 -7 -5 -13.5t-6 -13.5l-10 -27l-21 -55l-18 -55l-17 -55
q-4 -14 -7.5 -27.5t-6.5 -27.5l-2 -14t-3 -14q-1 -7 -1.5 -13.5t-0.5 -13.5q-1 -7 -0.5 -13.5t1.5 -12.5q1 -11 8 -21q3 -4 7 -7q4 -2 10 -4q1 0 1.5 -0.5t1.5 -0.5h3q2 -1 6 -1h13q7 1 13 3t13 4q6 3 12 6.5t12 7.5t11.5 8t11.5 9l21 20q10 10 19.5 21t17.5 23
q9 11 17.5 23t16.5 24l31 50q16 25 30.5 50.5t28.5 51.5q29 52 55.5 104t54.5 104q14 26 27.5 52.5t27.5 52.5q11 20 22.5 41t23.5 41q1 2 2 3.5t2 3.5q13 28 27 50q7 12 17 23q9 12 19 22l12 10t13 8q8 5 16 6q2 0 4 0.5t4 0.5h8q8 -2 8 -10q-2 -6 -8 -8z" />
    <glyph glyph-name="Z" unicode="Z" horiz-adv-x="597" 
d="M255 756q10 14 20.5 26.5t21.5 25.5q11 12 24 23.5t28 21.5q17 12 31 17q9 4 18 6.5t18 3.5q9.5 1.5 18.75 1.5t18.25 -1.5q18 -3 35 -9q17 -7 31 -15l28 -16q7 -5 13.5 -8.5t13.5 -7.5t13.5 -7.5t13.5 -5.5q15 -7 27 -8t27 2q15 5 26 12q12 9 22 19q8 8 15 1
q2.77777 -3.88892 2.77777 -7.46912q0 -2.8642 -1.77777 -5.53088l-1 -1l-2 -3q-45 -60 -87.5 -119.5t-85.5 -119.5q-44 -61 -86.5 -122t-85.5 -124q-43 -62 -85 -123.5t-84 -124.5l-88 -131q5 5 11 8q18 13 35 21q10 4 20 7t21 4q7.66667 1 15.1111 1q14.8889 0 28.8889 -4
q11 -3 20.5 -7t18.5 -9q10 -5 18 -11l16 -12q8 -5 15.5 -11.5t15.5 -11.5q7 -6 14 -11.5t15 -10.5q15 -12 29 -16q14 -6 27 -5q11 0 25 7q12 7 26 19l12 12t11 13q8 9 19 10t20 -6q8 -8 9.5 -19t-6.5 -20q0 -1 -1 -1q-15 -17 -30 -29q-17 -14 -37 -24q-13 -5 -23 -8
q-12 -3 -24 -3q-13 0 -25 3q-6 2 -11.5 4t-10.5 4q-11 5 -19.5 11t-16.5 12q-15 11 -30 26l-28 24l-29 22q-15 10 -30 14q-14.1667 4.16667 -26.25 4.16667q-2.41667 0 -4.75 -0.166668q-8 0 -16 -2t-16 -5t-15.5 -7t-15.5 -9t-15 -10.5t-14 -11.5l-27 -25q-13 -13 -25 -27
t-24 -29q-2 -4 -6.5 -4t-7.5 2q-4.57143 3.42857 -4.57143 7.18367q0 2.81633 2.57143 5.81633v1q11 16 22.5 31t24.5 30l27 28l20 18l-78 -119l-16 12q41 63 82.5 124.5t83.5 124.5t84 124.5t84 124.5q43 62 85.5 123t86.5 123q34 48 68 94.5t69 94.5h-1q-8 -3 -17.5 -4
t-18.5 -1q-9 1 -17.5 3t-16.5 4l-16 6t-16 7l-28 15q-14 8 -28 14t-28 11q-7 2 -13.5 3t-13.5 2t-13.5 0.5t-12.5 -1.5q-28 -6 -48 -24q-11 -8 -21.5 -19t-20.5 -22l-18 -24t-17 -26q-5 -9 -16 -11.5t-20 3.5t-11.5 16.5t3.5 19.5q0 1 0.5 1t0.5 1z" />
    <glyph glyph-name="zero" unicode="0" horiz-adv-x="639" 
d="M584 366q-7 -33 -18 -67q-11 -33 -24 -66q-7 -16 -14 -31.5t-15 -31.5q-8 -15 -16 -30.5t-17 -29.5q-19 -30 -39.5 -58t-44.5 -54l-24 -25l-27 -23q-15 -11 -29 -20l-15 -10l-16 -8q-8 -5 -16.5 -8t-17.5 -6q-8 -3 -17.5 -5t-18.5 -4q-8.8 -0.800003 -16.8 -0.800003
q-12 0 -22.2 1.8q-20 3 -39 12q-16 7 -33 22q-14 12 -27 29q-5 8 -10 16.5t-9 16.5q-4 9 -7.5 18t-5.5 18q-6 17 -9.5 35.5t-5.5 36.5q-3.57143 25.7143 -3.57143 51.4286q0 10.2857 0.571428 20.5714q2 37 6 71q4 35 12 70q4 17 9 34l10 34q2 9 5 17.5t6 16.5t6 16.5
t7 16.5q13 33 29 64.5t35 61.5t40 58.5t47 54.5q25 25 54 48q8 5 15.5 10t15.5 10q17 10 33 16q9 4 18 6.5t19 4.5q15 2.25 28.3125 2.25q4.4375 0 8.6875 -0.25q18 0 38 -5q19 -6 35 -15q8 -5 15 -10.5t14 -12.5q6 -7 11.5 -13.5t10.5 -14.5q20 -33 29 -65q5 -17 8.5 -34.5
t5.5 -34.5l3 -35v-35q-1 -67 -17 -137zM566 370q4 17 7.5 33t5.5 33q5 35 6 68v34q-1 8 -1 16.5t-2 16.5q-3 37 -13 66q-5 16 -12 31t-16 29q-12 15 -22 24q-10 10 -26 18l-14 6l-15 3q-7.20001 0.799988 -13.6 0.799988q-9.60001 0 -17.4 -1.79999q-13 -1 -30 -8
q-8 -2 -14.5 -5.5t-13.5 -6.5q-13 -7 -27 -17q-7 -4 -13.5 -8.5t-12.5 -9.5l-25 -21l-23 -24q-11 -12 -21.5 -24.5t-20.5 -25.5q-10 -14 -19 -28t-17 -28q-17 -29 -32 -58t-27 -61q-4 -8 -6.5 -15.5t-5.5 -15.5l-11 -31q-5 -17 -9 -32.5t-8 -32.5q-15 -64 -18 -131
q0 -32 3 -65q3 -32 12 -62q4 -13 11 -29q3 -8 6.5 -14t7.5 -13q7 -12 17 -23q5 -5 10.5 -10t11.5 -9q13 -8 26 -12q7 -2 14 -3t15 -2q16 0 31 3q16 3 31 9q32 13 58 33q7 5 13 10t13 11l24 23q12 12 22.5 24.5t21.5 26.5q5 7 10 13.5t10 14.5l18 28q9 15 17 29.5t16 30.5
q8 15 15 30.5t13 31.5t12 31.5t11 32.5t9 33t8 33z" />
    <glyph glyph-name="one" unicode="1" horiz-adv-x="411" 
d="M72 -157q4 6 6.5 13t4.5 15q3 8 5 15t4 15q5 16 8.5 31t7.5 31l29 125l30 125q8 31 15.5 62t15.5 63t16.5 62.5t17.5 62.5q9 31 19 62t21 61q2 8 5 15.5t6 15.5l12 31l13 30l15 30q0 1 1 2q-3 -4 -5.5 -7.5t-4.5 -7.5l-8 -13l-9 -14l-8 -13l-8 -14l-16 -27
q-4 -7 -7.5 -13.5t-8.5 -13.5q-4 -7 -8 -13.5t-9 -13.5q-4 -7 -8 -13t-9 -13l-19 -26q-21 -27 -45 -47q-6 -5 -12.5 -10t-14.5 -9q-15 -10 -30 -14q-6 -2 -8 4q0 4 3 7q6 5 12 9.5t11 9.5l22 21l39 47q19 24 36 50t35 52q7 13 17 26l9 13l9 13l9 13q4 7 10 13q5 7 10 13
l10 12l22 24l12 10t13 10q15 10 30 14q2 0 3 1l10 3q4 0.666687 7.44446 0.666687q6.88889 0 11.5555 -2.66669h2q0 -2 -1 -2h-1q-4 -2 -7 -4.5t-5 -4.5q-6 -4 -9 -11q-8 -14 -14 -26l-23 -57q-7 -16 -11 -29q-7 -16 -11 -29q-3 -8 -5.5 -15t-4.5 -15q-3 -8 -5.5 -15
t-4.5 -15q-10 -31 -19 -61t-17 -61l-36 -124l-35 -123q-8 -31 -17 -62l-18 -62q-10 -31 -20 -61.5t-21 -61.5q-5 -15 -11 -30.5t-13 -30.5l-15 -29l-9 -15l-10 -14q-2 -2 -6 -2.5q-0.800003 -0.100006 -1.52 -0.100006q-2.88 0 -4.48 1.60001q-3.125 3.125 -3.125 6.64062
q0 2.10938 1.125 4.35938z" />
    <glyph glyph-name="nine" unicode="9" horiz-adv-x="609" 
d="M668 694l-1 -1h-3q-1 0 -1.5 -0.5t-1.5 -0.5l-6 -3l-6 -5q-2 -1 -6 -5l-9 -12l-9 -15q-4 -8 -7.5 -15.5t-6.5 -15.5l-7 -17l-6 -16l-6 -17l-5 -17l-12 -34l-5 -17l-6 -18l-11 -34l-23 -70q-3 -8 -6 -17t-7 -17l-12 -35q-14 -35 -28 -68.5t-31 -67.5q-8 -17 -17 -33
t-19 -32q-8 -16 -20 -32l-21 -31q-11 -16 -23 -30.5t-25 -28.5t-27 -27t-29 -25q-15 -11 -31 -21.5t-33 -19.5q-8 -5 -17 -8.5t-17 -7.5q-9 -4 -18 -7l-18 -6q-36 -11 -73 -15q-26.25 -4.5 -54.75 -4.5q-9.5 0 -19.25 0.5q-6 0 -6 6t6 6q36 0 71.5 8t67.5 22q8 4 15.5 7.5
t15.5 8.5t15 9.5t14 9.5q14 10 27.5 21.5t26.5 23.5q25 25 46 52q11 14 21.5 27.5t20.5 28.5l19 30l18 30q8 16 16 31.5t16 32.5q14 29 27 59t26 61q-27 -39 -58 -70l-19 -18q-5 -5 -10 -8.5t-10 -7.5q-20 -17 -44 -29q-11 -8 -24 -12q-12 -6 -26 -9q-7 -2 -14 -3t-14 -1
q-13 -1 -30 2q-32 6 -55 28q-12 9 -20 22q-10 15 -15 26q-11 26 -16 55q-2 14 -3.5 27t-1.5 27t1 27t3 27q3 26 9 52q6 27 15 51q3 13 9 25q2 6 4.5 12t5.5 12q11 25 23.5 47.5t27.5 45.5q28 42 68 81q10 9 20 17.5t21 16.5l23 15l25 11q7 3 13.5 4.5t13.5 3.5t13.5 3
t14.5 1h13.5t14.5 -1q3 -1 6.5 -1t7.5 -2l13 -3q12 -4 25 -12q11 -7 21 -17t17.5 -21.5t12.5 -23.5t8.5 -24.5t6.5 -25.5l3 -26q1 -6 1 -12.5v-13.5v-22.5t-2 -22.5l14 29l9 17l9 17l10 16t11 16t13 15t16 13q2 2 4.5 3t4.5 3l10 5l11 2h11q9 -2 7 -10q0 -7 -7 -7zM518 523
q6 24 9 48q2 13 3 25t1 24v13t-1 12l-3 24q-2 12 -5.5 24t-8.5 23q-11 22 -27 38q-5 4 -9.5 7.5t-9.5 5.5q-10 7 -21 8q-8.84616 1.9231 -17.3965 1.9231q-13.6805 0 -26.6035 -4.9231q-6 -2 -11.5 -4t-10.5 -4l-20 -11l-19 -12l-19 -14q-9 -7 -18 -15t-17 -16
q-34 -36 -59 -75q-26 -39 -46 -85l-9 -22q-2 -6 -4 -11.5t-4 -11.5q-4 -11 -7.5 -22.5t-5.5 -23.5q-12 -47 -12 -94q0 -23 3 -45q5 -24 13 -42q5 -11 10 -19q2 -4 5 -8t7 -8q3 -4 6.5 -7t7.5 -6q7 -6 17 -9q5 -2 10 -3l10 -2t10.5 -1.5q1.83333 -0.166672 3.72223 -0.166672
q3.77777 0 7.77777 0.666672q11 0 23 3q5 1 11 3t11 4q11 4 21.5 10t20.5 13l20 15l18 16q37 35 63 76q8 11 14 21.5t12 21.5t11.5 22t10.5 22q5 12 9 23.5t8 23.5q5 12 8 23.5t6 24.5z" />
    <glyph glyph-name="two" unicode="2" horiz-adv-x="620" 
d="M269 188q-16 -6.39999 -33.28 -6.39999q-4.32001 0 -8.72 0.399994q-24 2 -44 13q-19 10 -34 30q-14 20 -21 40q-8 23 -11 42q-3 21 -3 42t2.5 41.5t7.5 40.5t10.5 39t13.5 39q8 19 16 37t19 35q20 36 44 67q13 16 26 31t28 29t31.5 26t34.5 22q20 12 37 17
q10 4 19.5 6.5t20.5 4.5q5 1 10.5 1.5t10.5 0.5q3.33334 0.666687 6.88889 0.666687q1.77777 0 3.61111 -0.166687q5.5 -0.5 10.5 -1.5q22 -3 40 -15q18 -10 31 -27q14 -17 23 -35q4 -9 7.5 -18.5t6.5 -19.5t4.5 -19.5t3.5 -20.5q3 -20 3.5 -40q0.0999756 -4 0.0999756 -8
q0 -16 -1.59998 -32q-3 -39 -14 -79q-3 -10 -6 -19.5t-7 -18.5q-3 -10 -6 -19t-7 -18q-14 -37 -31 -72t-36 -70l-20 -34l-21 -33q-11 -17 -22 -32.5t-23 -31.5t-24.5 -31t-25.5 -30q-14 -14 -28 -27.5t-28 -27.5q-15 -13 -30.5 -25t-31.5 -23q-13 -8 -25 -16.5t-26 -16.5
q12 -2 24 -6l19 -6l18 -7q19 -7 36.5 -14t34.5 -12t34 -8.5q13.2222 -2.72223 26.4445 -2.72223l7.55554 0.222229q16 0 34 5l16 6l17 8q8 5 12 -4q3 -4 -1 -10q-13 -14 -33 -26l-19 -9l-21 -6q-11 -2 -21.5 -2.5t-21.5 -0.5q-11 1 -21 3t-21 4q-10 2 -19.5 5t-19.5 6l-18 6
t-18 7l-36 12q-19 7 -34 11q-17 6 -33 9l-26 -13l-18 -7q-3 -2 -9 -4l-10 -4q-5 -2 -10 -2.5t-10 -1.5t-12 0q-4 0 -6 2q-2 0 -4 2q-3 1 -4 4q-2 4 -2 6q0 3 1 5q0 2 1 3.5t2 3.5l8 9q5 4 9.5 6.5t9.5 4.5l9 5q2 0 2.5 0.5t2.5 0.5l5 2q3 2 9 4l10 3q23 7 42 8h19.5t19.5 -1
q16 10 30 21t28 23q15 12 28.5 25t26.5 27q14 14 26 28.5t24 29.5q6 8 12 15t11 15l23 30q22 32 41 64t37 66q34 67 63 138l14 35l12 36q5 17 10 35t8 37q4 18 6 36q1.33331 12 1.33331 24.4445q0 6.22223 -0.333313 12.5555q0 18 -3 36q-2 9 -4.5 18t-5.5 17q-8 18 -19 31
q-11 14 -26 23q-13 8 -33 11h-17l-17 -3q-17 -4 -33 -14q-8 -4 -15.5 -9t-15.5 -11q-29 -21 -53 -50q-12 -14 -23.5 -28t-22.5 -29t-20 -31t-18 -33q-8 -17 -15.5 -33.5t-13.5 -33.5q-14 -35 -21 -70q-8 -34 -10 -71q-0.5 -9 -0.5 -17.75t0.5 -17.25q2 -19 6 -33
q8 -35 30 -54q3 -3 6 -5t7 -4q7 -5 15 -6q6 -2 8 -2q6 -2 9 -2q5 -1 18 -1q9 0 9 -10q-2 -7 -7 -8zM77 -103q-2 0 -4.5 -0.5t-4.5 -0.5t-4.5 -0.5t-4.5 -0.5h-2l-2 -1q-2 0 -2.5 -0.5t-2.5 -0.5l-8 -3q-8 -3 -15 -8q-3 -1 -6 -4h1q2 -1 8 -1q4 0 8 1t9 2l18 6q5 2 9 3.5
t9 3.5l8 4h-14zM19 -121l1 -1z" />
    <glyph glyph-name="three" unicode="3" horiz-adv-x="648" 
d="M257 454q-9 1 -18 6q-5 2 -9 4.5t-8 5.5q-17 12 -28 30q-10 16 -16 39q-3.57143 14.2857 -3.57143 28.5714q0 5.71429 0.571426 11.4286q0 20 6 40q3 10 6.5 19t7.5 18q18 35 47 63q27 26 65 43q34 16 72 21q9 2 18.5 2.5t18.5 1.5h19q5 -1 9 -1h9q19 -2 37 -6
q20 -5 36 -13q8 -4 16.5 -9t16.5 -12q15 -12 27 -30q5 -8 10 -17t8 -19q4 -9 6 -19l4 -20q2.25 -15 2.25 -29.7188q0 -4.90625 -0.25 -9.78125q-1 -19.5 -6 -39.5q-8 -40 -27 -72q-17 -33 -46 -62q-28 -28 -59 -47q-30 -20 -68 -31q-12 -5 -22 -6q8 -3 15 -7t15 -9
q9 -6 16.5 -14t14.5 -16q7 -9 12 -18.5t10 -19.5q16 -39 21 -84q1.92307 -16.5385 1.92307 -33.0769q0 -26.4615 -4.92307 -52.9231q-9 -44 -28 -81q-20 -39 -48 -72q-29 -33 -65 -56q-38 -24 -78 -34q-11 -2 -20.5 -4t-20.5 -3q-3 0 -5.5 -0.5t-5.5 -0.5h-31l-20 2t-21 3
q-10 2 -20 5t-20 8q-19 7 -37 22q-18 13 -30 33q-7 9 -11.5 19t-8.5 21t-6 21.5t-4 21.5q-1 11 -1 21.9375q0 32.8125 9 65.0625q11 42 35 79q11 18 25.5 33.5t31.5 29.5q18 15 36 23l9 5l10 4q11 5 20 6q6 2 8 -5q0 -6 -4 -7l-17 -9q-2 -2 -4 -2.5t-4 -2.5l-7 -6
q-13 -11 -27 -26q-11 -14 -22 -31q-5 -8 -9 -16.5t-8 -17.5q-8 -17 -13.5 -34.5t-10.5 -34.5q-4 -18 -6.5 -36t-2.5 -36q-0.25 -4 -0.25 -8.25q0 -12.75 2.25 -27.75q3 -19 9 -34l8 -16q4 -8 11 -14q13 -14 28 -24q18 -10 35 -14q9 -2 18.5 -3t19.5 -2h19q4 1 10 1l10 2
q20 3 36 10q17 7 34 18q17 12 29 24q14 13 25 27.5t21 30.5q19 31 33 66q14 36 24 70l4 18l4 18q2 5 2.5 9t1.5 9l2 9q0 6 1 10q1 9 1.5 18t0.5 19q0 20 -4 37q-3 17 -12 34t-23 29q-14 13 -32 17q-16.2857 5.14285 -31.8367 5.14285q-2.59183 0 -5.16327 -0.142853h-3
q-9 2 -7 10q2 9 10 7q6 0 9 -1h13t12 2q18 3 33 10q31 13 57 38q24 24 41 53q17 28 30 59q13 29 21 61q4 16 6.5 31.5t2.5 31.5q1 8 0.5 15.5t-1.5 15.5q-1 15 -8 30q-4 14 -15 28q-11 12 -24 21q-15 10 -30 14q-15 5 -33 7h-35q-18 -2 -34 -6q-15 -4 -31 -12q-4 -2 -7.5 -4
t-7.5 -4t-7.5 -4.5t-6.5 -5.5q-14 -9 -25.5 -20.5t-21.5 -24.5q-20 -26 -33 -55q-7 -13 -12 -29q-2 -8 -4 -15t-4 -15t-3 -15.5t-1 -15.5q-2 -15 3 -30q5 -17 14 -27q3 -4 12 -11l6 -4l4 -2l2 -1q1 -1 2 -1q7 -2 3 -9q-2 -6 -8 -4z" />
    <glyph glyph-name="four" unicode="4" horiz-adv-x="603" 
d="M597 252q-27 -29 -62 -42l-19 -6q-7 -2 -19 -4q-5 -1 -9.5 -1.5t-9.5 -0.5t-9.5 -0.5t-9.5 -0.5q-5 1 -9.5 1h-9.5l-18 2l-10 2h-5l-1 -3q-8 -31 -17 -62l-18 -62q-10 -31 -20 -61.5t-21 -61.5q-5 -15 -11 -30.5t-13 -30.5l-15 -29l-9 -15l-10 -14q-2 -2 -6 -2.5
q-0.799988 -0.100006 -1.51999 -0.100006q-2.88 0 -4.48001 1.60001q-5 5 -2 11q4 6 6.5 13t4.5 15q3 8 5 15t4 15q5 16 8.5 31t7.5 31l29 125l30 125q-2 0 -3 1l-35 7l-67 15q-9 2 -17.5 3t-17.5 2q-5 1 -8.5 1.5t-8.5 0.5t-9 0.5t-9 -0.5q-8 0 -17 -0.5t-18 -1.5
q-8 -2 -17 -4t-17 -4t-16.5 -5t-16.5 -7q-8 -3 -16 -7t-16 -9l-1 -1l-23 -11q-6 -4 -8 3q-0.666667 1.66667 -0.666667 3q0 2.66667 2.66667 4l21 15l10 9l9 9l19 18l18 19l69 79q17 21 33.5 41.5t33.5 40.5l68 82l69 80q36 41 73 79l38 37l20 18l21 17q10 8 22 16l11 7
q4 3 12 7q1 0 3 2h1l1 1l10 6q5 2 9 4t9 3q4 0.666687 7.44446 0.666687q6.88892 0 11.5555 -2.66669h2q0 -2 -1 -2h-1q-4 -2 -7 -4.5t-6 -4.5q-5 -5 -8 -11q-8 -14 -14 -26l-23 -57q-7 -16 -11 -29q-7 -16 -11 -29q-3 -8 -5.5 -15t-4.5 -15q-3 -8 -5.5 -15t-4.5 -15
q-10 -31 -19 -61t-17 -61l-36 -124l-24 -83h2l8 -2l17 -3l17 -2q10.5 -0.899994 20.64 -0.899994q23.66 0 45.36 4.89999q8 2 15.5 4.5t15.5 5.5q18 8 31 16q5 4 9 -2q3 -4 -1 -8zM384 338q8 32 16.5 62.5t17.5 62.5q9 31 19 62t21 61q2 8 5 15.5t6 15.5l12 31l13 30l15 30
q3 6 6.5 12t7.5 12q-18 -17 -34.5 -35.5t-33.5 -38.5t-34 -40.5t-34 -40.5t-33.5 -41t-33.5 -41q-33 -42 -67 -82.5t-70 -80.5q-18 -20 -36.5 -39t-38.5 -37q-7 -7 -14 -13t-15 -12q7 3 13.5 5.5t13.5 4.5q9 3 17.5 6t17.5 5l36 8l18 3l18 2q10 1 19 1.5t18 0.5
q6.33334 0.333344 12.6111 0.333344q12.5555 0 24.8889 -1.33334q18.5 -2 36.5 -6q8 -2 17 -4l18 -4q1 0 1.5 -0.5t1.5 -0.5q5 22 10.5 43.5t11.5 43.5z" />
    <glyph glyph-name="five" unicode="5" horiz-adv-x="583" 
d="M608 725q-3 -5 -6 -10.5t-7 -10.5q-5 -5 -9.5 -9t-10.5 -8q-10 -7 -26 -12q-7 -2 -14 -2h-14q-15 1 -27 6q-6 2 -12 4.5t-11 5.5q-23 11 -40 22l-35 20q-19 11 -36 15q-9 3 -19 3q-5 0 -10 -0.5t-10 -1.5l-10 -3l-10 -3l-10 -5l-7 -5q-5 -20 -9.5 -38.5t-9.5 -37.5
q-5 -20 -10.5 -39t-11.5 -39q-11 -39 -24 -78l-15 -38l-9 -20l-1 -1l15 5q11 4 21.5 7t21.5 6t22 5.5t23 4.5l11 2q3 0 6 0.5t5 0.5q4 1 12 1h1l2 1h9l25 -3q13 -3 25 -9q24 -12 41 -32q9 -11 15 -21q3 -6 6 -11.5t5 -11.5q5 -12 8 -24t5 -24
q3.55554 -22.2222 3.55554 -43.6543q0 -2.67902 -0.055542 -5.34567q-0.5 -24 -3.5 -47q-6 -49 -22 -92l-8 -22t-9 -22t-10 -21l-10 -20q-25 -44 -52 -78q-15 -18 -31.5 -35t-35.5 -31q-20 -16 -39 -26q-19 -11 -45 -19q-21 -7 -48 -7h-12t-13 2q-6 2 -12 3.5t-11 3.5
q-13 6 -22 13l-18 16q-8 9 -14 19t-11 21q-5 12 -8 22q-2 6 -3 11.5t-2 11.5q-5 25 -5 45v22.5t2 23.5q2 23 6 44q9 45 25 87t38 82q4 8 12 4q7 -5 4 -13h-1q-5 -9 -10.5 -18.5t-10.5 -19.5t-9.5 -20t-8.5 -20q-8 -20 -14.5 -41.5t-10.5 -42.5q-2 -11 -3.5 -22t-3.5 -22
q-1 -11 -1 -21.75t1 -21.25q0 -20 5 -43q4 -20 14 -41q9 -19 23 -34q15 -14 34 -21q12.75 -4.5 28.3125 -4.5q5.1875 0 10.6875 0.5q17 3 39 11q18 7 35 20q16 11 33 26q8 8 15 15.5t14 15.5q15 17 26 33q25 32 44 72q5 10 9 19.5t8 19.5q5 10 8 20t7 20q12 41 18 82
q3.60001 25.8 3.60001 50.16q0 16.24 -1.60001 31.84q0 10 -3 19l-4 19l-6 18q-2 5 -4 9t-5 8q-5 8 -10 15.5t-13 13.5q-12 11 -34 16q-2 0 -3 0.5t-2 0.5h-5q-2 1 -5 1h-27q-22 -1 -43 -6q-24 -5 -43 -13l-20 -8l-10 -5l-4 -2l-1 -1q-7 -6 -16 -6t-16 6q-8 6 -9.5 16
t5.5 18q0 1 2 3l5 5q1 3 5 7l9 16q5 8 9 17t9 18q9 18 17 36l16 36q8 19 15 37.5t14 37.5q8 19 15 37.5t14 37.5v1q0 2 2 2q6 3 10 7l10 6q3 3 9 7l11 6q10 6 23 9q13 5 25 5q3 1 6.5 1h6.5h6.5t6.5 -1q3 0 6 -0.5t7 -1.5q2 0 3 -0.5t3 -0.5l6 -2q12 -4 23 -9t21 -10l37 -23
q18 -11 34 -15q7 -3 16 -3q4 0 7.5 0.5t8.5 1.5q5 2 9 3.5t9 3.5t9 5t9 6q7 5 11 -2q1.79999 -2.40002 1.79999 -4.79999q0 -1.59998 -0.799988 -3.20001z" />
    <glyph glyph-name="six" unicode="6" horiz-adv-x="612" 
d="M108 268q7 11 13 22t14 22q4 5 7 10.5t8 10.5l15 20q8 10 16.5 19.5t17.5 18.5l19 18q5 5 10 8.5t10 8.5l21 15l23 13l12 6t13 5l6 2t7 2l6 2t7 1q7 2 13.5 2.5t14.5 1.5q14 0 28 -3q8 -2 14.5 -4.5t13.5 -6.5q7 -3 13 -7t12 -9q5 -5 10 -10.5t9 -11.5q10 -13 15 -25
q12 -24 19 -53l2 -13l2 -14q0 -3 0.5 -6.5t0.5 -6.5q0 -4 0.5 -7.5t0.5 -6.5v-13.5t-1 -13.5q0 -7 -0.5 -13.5t-1.5 -13.5q-3 -26 -9 -52t-14.5 -51t-19.5 -49l-12 -24t-13 -23q-6 -11 -13 -22t-15 -22q-31 -45 -69 -80l-21 -17l-21 -15q-11 -8 -23 -14t-24 -11
q-15 -6 -26 -9q-7 -2 -13.5 -3t-13.5 -2t-13.5 -1.5q-2.16667 -0.166672 -4.38889 -0.166672q-4.44444 0 -9.11111 0.666672l-14 2t-13 3q-12 4 -26 11q-11 7 -21 17t-17.5 21.5t-12.5 23.5l-7 16q-6 18 -9 38q-2 9 -3 18.5t-2 19.5l-2 38q0 38 4 75.5t11 75.5q7 37 16 74
t22 73q12 36 26.5 71t32.5 69q36 67 86 128q13 14 26.5 28t27.5 27q14 14 29.5 25t32.5 22q33 21 69 36q37 15 73 24q19 5 37.5 8t37.5 5q29.6 3.20001 59.84 3.20001q7.56 0 15.16 -0.200012q6 0 6 -6t-6 -6q-37 0 -73 -7t-70 -20q-32 -13 -65 -32q-31 -19 -58 -41
q-14 -11 -27 -23t-26 -25q-26 -25 -49 -52q-23 -28 -43 -57.5t-39 -60.5q-35 -62 -63 -131q-7 -17 -13 -34.5t-12 -34.5q-1 -2 -1 -3t-1 -2q2 2 2.5 4t2.5 4zM76 -72q9 -22 26 -39q9 -8 19 -13.5t21 -7.5q9.42857 -2.57143 19.2245 -2.57143q1.63266 0 3.27551 0.0714264
q11.5 0.5 22.5 2.5q22 4 44 17q11 5 20 12t19 15l17 15l17 18q8 8 15.5 17.5t15.5 19.5q8 9 14.5 19t12.5 20q13 21 24 42l11 22l9 22q20 46 30 91q6 23 9.5 47t3.5 47v23q0 3 -0.5 6t-0.5 6q0 2 -0.5 5t-0.5 6q-3 22 -11 43q-3 11 -9 20l-12 17q-7 8 -15.5 14t-18.5 9
q-14.7778 5.44446 -33.1852 5.44446q-5.25925 0 -10.8148 -0.444458l-11 -2l-12 -3q-10 -3 -22 -8q-5 -2 -10.5 -5t-10.5 -6t-10.5 -6t-10.5 -7q-9 -5 -19 -15q-11 -8 -19 -16q-18 -17 -33 -36q-5 -5 -8.5 -10t-7.5 -10t-7 -10t-7 -10q-7 -11 -13.5 -21.5t-11.5 -21.5
q-6 -11 -11.5 -22t-10.5 -22q-10 -21 -18 -47q-3 -8 -6 -16.5t-5 -17.5q0 -3 -0.5 -5.5t-0.5 -5.5q-2 -9 -3 -18l-2 -18l-3 -37q-1 -9 -1 -18v-18t0.5 -18t1.5 -18q1 -18 6 -36l3 -9q0 -1 2 -5z" />
    <glyph glyph-name="seven" unicode="7" horiz-adv-x="620" 
d="M107 733q25 27 62 42q11 4 19 5q7 2 19 4q5 1 9.5 1.5t9.5 0.5q5 1 9.5 1h9.5h9.5t9.5 -1q5 0 9 -0.5t9 -1.5q2 0 4.5 -0.5t4.5 -0.5q3 0 5.5 -0.5t4.5 -0.5q5 -1 9 -1.5t9 -2.5q8 -2 17 -3.5t18 -3.5l35 -7q17 -4 34 -7.5t34 -5.5q17 -3 34 -5
q11.3333 -1.33331 22.6667 -1.33331l11.3333 0.333313q18 0 35 2.5t34 7.5q36 9 66 25h1q9 7 19 10q4 3 11 3q3 0 5 1q1 0 1.5 -0.5t1.5 -0.5h3q9 -2 7 -10q0 -5 -7 -7h-2q-1 0 -2 -1q-2 0 -3 -1l-6 -3l-6 -5l-6 -5l-11 -13l-10 -14q-9 -14 -19 -31q-2 -4 -4 -7.5t-4 -8.5
l-9 -16l-16 -32l-16 -33l-16 -33l-15 -34l-31 -67l-15 -34l-16 -33q-15 -34 -31 -67.5t-33 -66.5l-35 -66l-18 -33l-19 -33q-10 -16 -19.5 -32t-20.5 -32q-21 -32 -44 -61q-21 -28 -50 -57q-6 -7 -13 -13.5t-14 -13.5q-7 -6 -14 -12.5t-15 -11.5q-15 -12 -31.5 -22
t-34.5 -18q-5 -2 -9 -3.5t-9 -3.5l-19 -5q-5 -1 -9.5 -1.5t-9.5 -0.5q-5 -1 -9.5 -1h-9.5q-6 1 -6 7t6 6q2.66667 -0.166672 5.41667 -0.166672q13.75 0 29.5833 4.16667q5 1 8.5 2t8.5 3l16 8q16 8 30 19t27 24l12.5 12.5t11.5 13.5l23 29q11 14 20.5 29t19.5 31t19 31.5
t18 31.5l36 64l17 32l16 33l33 66l64 132l16 34l17 33l33 66l18 34l8 16l10 16q9 17 18.5 33t20.5 32q2 4 5 7.5t5 8.5l12 15q5 8 11.5 15t12.5 15l1 1q-8 -4 -16.5 -7.5t-16.5 -6.5q-19 -7 -34 -11l-36 -8q-10 -2 -19 -2.5t-18 -1.5q-10 -1 -19 -1.5t-18 -0.5q-38 2 -74 9
q-8 2 -17 4l-18 4l-34 8q-9 2 -17.5 3.5t-16.5 3.5q-5 2 -9 2t-8 1q-5 1 -8.5 1.5t-8.5 0.5q-12 1.45453 -24 1.45453l-42 -4.45453q-8 -2 -15.5 -4.5t-15.5 -6.5q-5 -2 -8.5 -3.5t-7.5 -3.5l-7 -5l-8 -4q-5 -4 -9 2q-3 4 1 8z" />
    <glyph glyph-name="eight" unicode="8" horiz-adv-x="645" 
d="M271 348q-5 2 -10 4.5t-10 6.5q-18 12 -32 32q-7 9 -11.5 19t-8.5 21t-6 21.5t-4 21.5q-1.8 12 -1.8 25.44q0 8.95999 0.800003 18.56q1 41 17 83q14 41 38 76q12 17 26 33t31 29q15 12 35 24q9 5 19 9t20 7q19 5 41 7q3 0 5.5 0.5t5.5 0.5q7 0 10 -1h10.5t10.5 -1
q10 -2 20 -3.5t21 -4.5q10 -3 19.5 -7.5t19.5 -9.5q9 -6 17.5 -13t16.5 -15q13 -15 25 -38q5 -11 8 -21.5t5 -21.5t3 -22t1 -22q-1 -23 -5.5 -44.5t-12.5 -41.5q-17 -43 -43 -74q-29 -33 -63 -57q-35 -25 -74 -38q-9 -3 -18 -4.5t-17 -3.5q23 -6 42 -22q18 -15 32 -37
q7 -11 11.5 -21.5t9.5 -22.5q7 -22 12 -47q0 -3 0.5 -6t0.5 -6l2 -12q0 -6 0.5 -12t0.5 -12q0 -24 -4 -48t-12 -47q-15 -46 -42 -86q-15 -20 -31 -37q-8 -9 -17 -16.5t-19 -15.5q-38 -30 -84 -44q-11 -4 -22.5 -6.5t-23.5 -4.5q-18.75 -2.25 -35.25 -2.25
q-5.5 0 -10.75 0.25q-12 1 -23.5 2.5t-22.5 5.5q-11 3 -22 8.5t-21 12.5q-19 16 -32 36q-12 19 -20 44q-4 11 -6 23l-4 24t-2 23.5v23.5q3 48 18 93q16 47 42 85q28 42 64 71q36 30 82 47l22 7q2 0 8 2q-2 0 -2 1zM336 338h-1l-22 -3q-9 -1 -20 -5q-5 -2 -10 -3.5t-10 -3.5
l-20 -9q-36 -21 -65 -53q-26 -31 -49 -67q-11 -18 -19.5 -37t-16.5 -39q-15 -38 -24 -80q-2 -11 -3 -21t-1 -21q-0.25 -4.75 -0.25 -9.6875q0 -14.8125 2.25 -31.3125q3 -20 12 -40q9 -18 24 -33q16 -14 36 -20q18 -7 41 -7q11 0 21.5 1t21.5 4q11 2 20.5 5.5t19.5 8.5
q19 9 35 23q8 7 15.5 14t14.5 15q14 15 25 33q12 18 21 36q9 19 17 37.5t14 38.5q13 38 21 80q2 5 2.5 10t1.5 10q0 3 0.5 5.5t0.5 5.5q0 2 0.5 5t0.5 5q1 11 1 21t-2 20q-2 22 -9 40t-22 35q-16 16 -34 23q-8 3 -17.5 4.5t-18.5 2.5h-4zM346 350q7 1 13.5 1.5t12.5 2.5
q10 2 19 5.5t18 7.5q18 10 32 21q8 5 14.5 11.5l13.5 13.5q13 14 23 29.5t19 32.5q17 30 30 67q6 17 10 34.5t7 34.5q1 9 1.5 17.5t0.5 17.5t-0.5 17.5t-2.5 16.5q-3 18 -12 33q-8 16 -22 27q-15 13 -32 19q-16 7 -36 9q-5 1 -9.5 1h-9.5h-19q-10 -2 -19 -3.5t-18 -5.5
q-17 -6 -32 -18q-8 -5 -15 -11t-13 -13q-25 -28 -42 -62q-8 -17 -14 -34.5t-11 -35.5q-5 -17 -8 -35.5t-5 -36.5q-1 -9 -1 -18v-18q0 -19 3 -35q3 -17 9 -34q8 -16 18 -29q12 -13 29 -20l17 -6q5 -1 9.5 -1.5t9.5 -0.5q1 -1 3 -1t4.5 -0.5t4.5 -0.5z" />
    <glyph glyph-name="period" unicode="." horiz-adv-x="167" 
d="M71 35q0 -14 -10.5 -24.5t-24.5 -10.5t-24.5 10.5t-10.5 24.5t10.5 24.5t24.5 10.5t24.5 -10.5t10.5 -24.5z" />
    <glyph glyph-name="comma" unicode="," horiz-adv-x="166" 
d="M71 35v-3q0 -9 -6.5 -24.5t-18 -32t-28.5 -32.5t-39 -25q-5.6 -2 -9.44 -2q-5.76 0 -7.56 4.5q-0.5625 1.40625 -0.5625 2.75977q0 5.86523 10.5625 10.7402q18 8 27 20t11.5 23.5t1 21t-2.5 14.5q-8 10 -8 22q0 14 10.5 24.5t24.5 10.5t24 -10.5t11 -24.5z" />
    <glyph glyph-name="quotesingle" unicode="'" horiz-adv-x="6" 
d="M51 659v-3q1.14286 -5.14288 1.14286 -12.5714q0 -5.57141 -0.642857 -12.4286q-1.5 -16 -8 -35.5t-18.5 -39.5t-31 -35q-6.62069 -4.41382 -11.1106 -4.41382q-3.64804 0 -5.88942 2.91382q-1.5625 2.03125 -1.5625 4.30664q0 5.00586 7.5625 11.1934q15 13 20.5 26.5
t4.5 25.5t-4.5 21t-6.5 13q-9 5 -14 19q-4 14 3 26.5t21 16.5q5.09091 1.45453 9.98347 1.45453q8.56198 0 16.5165 -4.45453q12.5 -7 17.5 -21z" />
    <glyph glyph-name="quotedbl" unicode="&#x22;" horiz-adv-x="242" 
d="M131 659v-3q2 -9 0.5 -25t-8 -35.5t-18.5 -39.5t-31 -35q-6.62069 -4.41382 -11.1106 -4.41382q-3.64804 0 -5.88942 2.91382q-1.5625 2.03125 -1.5625 4.30664q0 5.00586 7.5625 11.1934q15 13 20.5 26.5t4.5 25.5t-4.5 21t-6.5 13q-9 5 -14 19q-4 14 3 26.5t21 16.5
q5.09091 1.45453 9.98347 1.45453q8.56198 0 16.5165 -4.45453q12.5 -7 17.5 -21zM231 659v-3q1.14285 -5.14288 1.14285 -12.5714q0 -5.57141 -0.642853 -12.4286q-1.5 -16 -8 -35.5t-18.5 -39.5t-31 -35q-6.6207 -4.41382 -11.1106 -4.41382q-3.64804 0 -5.88942 2.91382
q-1.5625 2.03125 -1.5625 4.30664q0 5.00586 7.5625 11.1934q15 13 20.5 26.5t4.5 25.5t-4.5 21t-6.5 13q-9 5 -14 19q-4 14 3 26.5t21 16.5q5.09091 1.45453 9.98347 1.45453q8.56198 0 16.5165 -4.45453q12.5 -7 17.5 -21z" />
    <glyph glyph-name="quotedblright" unicode="&#x201d;" horiz-adv-x="245" 
d="M131 659v-3q2 -9 0.5 -25t-8 -35.5t-18.5 -39.5t-31 -35q-6.62069 -4.41382 -11.1106 -4.41382q-3.64804 0 -5.88942 2.91382q-1.5625 2.03125 -1.5625 4.30664q0 5.00586 7.5625 11.1934q15 13 20.5 26.5t4.5 25.5t-4.5 21t-6.5 13q-9 5 -14 19q-4 14 3 26.5t21 16.5
q5.09091 1.45453 9.98347 1.45453q8.56198 0 16.5165 -4.45453q12.5 -7 17.5 -21zM231 659v-3q1.14285 -5.14288 1.14285 -12.5714q0 -5.57141 -0.642853 -12.4286q-1.5 -16 -8 -35.5t-18.5 -39.5t-31 -35q-6.6207 -4.41382 -11.1106 -4.41382q-3.64804 0 -5.88942 2.91382
q-1.5625 2.03125 -1.5625 4.30664q0 5.00586 7.5625 11.1934q15 13 20.5 26.5t4.5 25.5t-4.5 21t-6.5 13q-9 5 -14 19q-4 14 3 26.5t21 16.5q5.09091 1.45453 9.98347 1.45453q8.56198 0 16.5165 -4.45453q12.5 -7 17.5 -21z" />
    <glyph glyph-name="quotedblleft" unicode="&#x201c;" horiz-adv-x="238" 
d="M155 559v3q-2 9 -0.5 25t8 35.5t18.5 39.5t31 35q6.6207 4.41382 11.1106 4.41382q3.64804 0 5.88942 -2.91382q1.5625 -2.03125 1.5625 -4.30664q0 -5.00586 -7.5625 -11.1934q-15 -13 -20.5 -26.5t-4.5 -25.5t4.5 -21t6.5 -13q9 -5 14 -19q4 -14 -3 -26.5t-21 -16.5
q-5.09091 -1.45453 -9.98347 -1.45453q-8.56198 0 -16.5165 4.45453q-12.5 7 -17.5 21zM55 559v3q-1.14286 5.14288 -1.14286 12.5714q0 5.57141 0.642857 12.4286q1.5 16 8 35.5t18.5 39.5t31 35q6.62069 4.41382 11.1106 4.41382q3.64804 0 5.88942 -2.91382
q1.5625 -2.03125 1.5625 -4.30664q0 -5.00586 -7.5625 -11.1934q-15 -13 -20.5 -26.5t-4.5 -25.5t4.5 -21t6.5 -13q9 -5 14 -19q4 -14 -3 -26.5t-21 -16.5q-5.09091 -1.45453 -9.98347 -1.45453q-8.56198 0 -16.5165 4.45453q-12.5 7 -17.5 21z" />
    <glyph glyph-name="quoteleft" unicode="&#x2018;" horiz-adv-x="143" 
d="M55 559v3q-1.14286 5.14288 -1.14286 12.5714q0 5.57141 0.642857 12.4286q1.5 16 8 35.5t18.5 39.5t31 35q6.62069 4.41382 11.1106 4.41382q3.64804 0 5.88942 -2.91382q1.5625 -2.03125 1.5625 -4.30664q0 -5.00586 -7.5625 -11.1934q-15 -13 -20.5 -26.5t-4.5 -25.5
t4.5 -21t6.5 -13q9 -5 14 -19q4 -14 -3 -26.5t-21 -16.5q-5.09091 -1.45453 -9.98347 -1.45453q-8.56198 0 -16.5165 4.45453q-12.5 7 -17.5 21z" />
    <glyph glyph-name="quoteright" unicode="&#x2019;" horiz-adv-x="6" 
d="M51 659v-3q1.14286 -5.14288 1.14286 -12.5714q0 -5.57141 -0.642857 -12.4286q-1.5 -16 -8 -35.5t-18.5 -39.5t-31 -35q-6.62069 -4.41382 -11.1106 -4.41382q-3.64804 0 -5.88942 2.91382q-1.5625 2.03125 -1.5625 4.30664q0 5.00586 7.5625 11.1934q15 13 20.5 26.5
t4.5 25.5t-4.5 21t-6.5 13q-9 5 -14 19q-4 14 3 26.5t21 16.5q5.09091 1.45453 9.98347 1.45453q8.56198 0 16.5165 -4.45453q12.5 -7 17.5 -21z" />
    <glyph glyph-name="dieresis" unicode="&#xa8;" horiz-adv-x="292" 
d="M125 697q0 -14 -10.5 -24.5t-24.5 -10.5t-24.5 10.5t-10.5 24.5t10.5 24.5t24.5 10.5t24.5 -10.5t10.5 -24.5zM245 697q0 -14 -10.5 -24.5t-24.5 -10.5t-24.5 10.5t-10.5 24.5t10.5 24.5t24.5 10.5t24.5 -10.5t10.5 -24.5z" />
    <glyph glyph-name="OE" unicode="&#x152;" horiz-adv-x="1014" 
d="M868 362l-2 -5q0 -1 -0.5 -2t-0.5 -2l-3 -9q-2 -5 -2.5 -9.5t-1.5 -9.5t-1.5 -9t-0.5 -9v-8.5t1 -8.5q1 -4 1.5 -8t2.5 -7q4 -9 9 -13q4 -6 12 -9q8 -4 15 -4q4.79999 -0.899994 9.87 -0.899994q11.83 0 25.13 4.89999q19 5 34 17q8 5 15 11.5t14 13.5l6 8l6 8q3 4 5.5 8
t4.5 9q6 7 14 4q9 -5 4 -14q-21 -41 -55 -67q-20 -15 -39 -23q-5 -2 -10.5 -3.5t-11.5 -2.5q-6 -2 -12 -2h-12q-6 1 -12.5 2t-12.5 3q-12 4 -22 13q-11 10 -17 21q-3 5 -5.5 11t-4.5 12t-2.5 12t-1.5 12t-1 11.5v11.5t0.5 11.5t0.5 11.5q0 3 1 5l-3 -2q-7 -5 -13 -11
l-11 -11q-12 -12 -23 -24t-22 -25l-21 -26q-5 -7 -10 -13.5t-10 -13.5l-38 -54l-18 -28l-18 -29l-34 -57l-32 -58l-16 -30l-13 -25q25 -3 52 -14t50 -24t40.5 -24.5t25.5 -15.5q17 -8 33 -13.5t33 -10.5q33 -8 67 -9q34 0 67 9q31 7 63 23q15 8 29.5 16.5t28.5 18.5
q9 7 20.5 5t18.5 -11q7 -10 5 -21t-12 -18l-5 -3q-35 -15 -69 -27q-18 -5 -36 -9.5t-37 -6.5t-37.5 -2.5q-3.70001 -0.100006 -7.38 -0.100006q-14.72 0 -29.12 1.60001q-19 2 -37 6t-35 9q-17 6 -33.5 13.5t-32.5 15.5q-17 8 -32.5 16.5t-30.5 18.5q-26 18 -54 26
t-54.5 9.5q-9.9375 0.5625 -19.4531 0.5625q-15.8594 0 -30.5469 -1.5625q-23.5 -2.5 -41.5 -5.5l-22 -19q-36 -26 -73 -45q-10 -5 -19.5 -9t-20.5 -7q-5 -2 -10.5 -3t-10.5 -3q-2 -1 -6 -1l-2 -1h-3q-2 -1 -6 -1q-1 -1 -5 -1q-11 -1.5 -22.5 -1.5t-23.5 1.5q-25 3 -45 12
q-11 5 -21 11t-19 14q-10 7 -18 15.5t-15 17.5q-14 18 -24 39q-5 10 -9 20.5t-8 21.5q-13 42 -18 86q-3 21 -3.5 42.5t-0.5 43.5q1 22 3 43t5 42q3 22 6.5 42.5t8.5 41.5q10 40 24 82q6 18 14 40l15 39q17 40 37 77.5t43 73.5q45 70 106 133q16 15 32 29t34 27l36 24
q10 5 19.5 9.5t20.5 9.5q22 8 43 12q5 2 11 2.5t11 1.5h9l1 1h12q20 0 45 -5q8 -2 15 -4.5t14 -5.5q20 13 40.5 22t42.5 17q50 17 100 21q13 1 25.5 1.5q4.16669 0.166687 8.38892 0.166687q8.44446 0 17.1111 -0.666687q25 0 51 -3t51 -7.5t50 -9.5q13 -3 25 -6t24 -7
t24 -7.5t24 -8.5q47 -17 91.5 -34t91.5 -28q11 -2 23 -3.5t24 -3.5q11 -1 23 -1h24q24 1 48 6q25 5 47 12q9 3 13 -6q0.75 -2 0.75 -3.75q0 -5.25 -6.75 -8.25q-23 -11 -48 -18q-12 -3 -24.5 -6t-25.5 -5q-26 -5 -52 -6q-13 -2 -26 -1.5t-26 1.5q-54 3 -103 18
q-12 4 -24.5 7.5t-23.5 8.5l-47 19q-11 5 -22.5 10.5t-22.5 11.5l-44 22q-11 5 -22.5 10t-22.5 10q-11 4 -23 7.5t-23 5.5q-24 6 -49 6q-12 1 -24 0.5t-25 -1.5q-12 -2 -24 -3.5t-24 -3.5q-12 -3 -23.5 -6t-23.5 -7q-18 -7 -35 -14.5t-34 -17.5q17 -10 29 -21q8 -8 15 -16
t13 -17q13 -17 22 -37t15 -40q7 -20 11 -40.5t6 -41.5q2 -11 2.5 -21t1.5 -21v-42q0 -9 -0.5 -18t-1.5 -18l15 34q7 17 14 33t15 32q8 17 16 33t18 32q10 17 19 31q6 8 12 15t13 14q3 4 6.5 7t7.5 7q8 7 17 11q9 6 19 9q6 2 10 2q2 0 3 0.5t3 0.5h5q8 -2 8 -10q0 -5 -5 -7
q-1 0 -1 -1h-1l-1 -1q-2 -2 -3 -2q-4 -4 -6 -5l-10 -11q-5 -6 -9.5 -12.5t-9.5 -13.5q-8 -14 -16 -29l-16 -30t-15 -30.5t-14 -31.5q-8 -17 -14.5 -32.5t-12.5 -32.5q-14 -32 -26 -65t-25 -66l-51 -133l-31 -77l30 43q5 7 10 13.5t10 13.5l21 27q11 13 22 25.5t22 25.5
l25 23l13 11l8 6l3 2l2 2q2 0 3 1h1q6 5 17 3q10 -2 16 -9.5t4 -18.5q0 -1 -0.5 -2t-0.5 -2zM638 297l51 132l15 37l2 16q3 20 5 40.5t3 41.5v41l-3 40q-4 39 -17 80q-7 19 -15.5 37t-20.5 34q-6 8 -12.5 15t-14.5 13q-15 13 -33 21q-9 4 -18 6q-5 2 -9 2.5t-9 1.5
q-8.79999 0.799988 -16.64 0.799988q-11.76 0 -21.36 -1.79999q-2 -1 -5 -1q-2 0 -2.5 -0.5t-2.5 -0.5h-2v-1h-2q-2 0 -3 -0.5t-2 -0.5l-18 -6q-18 -6 -36 -15q-8 -5 -16.5 -9.5t-16.5 -9.5q-16 -10 -32 -23q-16 -12 -30.5 -25t-28.5 -27q-28 -29 -52 -61
q-12 -16 -23.5 -32.5t-22.5 -33.5q-43 -71 -74 -143l-15 -38q-4 -9 -7 -18.5t-6 -19.5q-7 -19 -12 -38t-10 -39q-10 -39 -15.5 -79t-6.5 -80q-0.199997 -7.8 -0.199997 -15.64q0 -31.36 3.2 -63.36q2 -19 6 -38t10 -37q2 -9 5.5 -18t7.5 -17l18 -33q5 -8 11 -14.5t12 -12.5
q14 -14 29 -22q8 -4 16 -7.5t17 -5.5q16 -4 37 -4h14q2 1 5 1l19 3q10 2 19 4.5t19 6.5q36 15 69 40l16 12t16 13q16 13 30 27q31 31 55 62l24 32l9 14q10 21 23 52t25.5 63t23 59.5t16.5 42.5z" />
    <glyph glyph-name="dotaccent" unicode="&#x2d9;" horiz-adv-x="157" 
d="M113 710q0 -14 -10.5 -24.5t-24.5 -10.5t-24.5 10.5t-10.5 24.5t10.5 24.5t24.5 10.5t24.5 -10.5t10.5 -24.5z" />
    <glyph glyph-name="ring" unicode="&#x2da;" horiz-adv-x="297" 
d="M76 743q0 32 22.5 54.5t54.5 22.5t54.5 -22.5t22.5 -54.5t-22.5 -54.5t-54.5 -22.5t-54.5 22.5t-22.5 54.5zM97 743q0 -23 16.5 -39.5t39.5 -16.5t39.5 16.5t16.5 39.5t-16.5 39.5t-39.5 16.5t-39.5 -16.5t-16.5 -39.5z" />
    <glyph glyph-name="aring" unicode="&#xe5;" horiz-adv-x="465" 
d="M356 462l-25 -53q-7 -13 -13 -26t-12 -27q-12 -26 -24 -52.5t-23 -53.5q-12 -27 -21 -54q-5 -14 -10 -27t-9 -27q-2 -7 -4 -13.5t-4 -13.5l-7 -27q-2 -7 -3 -13t-2 -13l-2 -13v-12l2 -11q2 -2 2.5 -4t2.5 -4t4 -3t5 -3q2 0 2.5 -0.5t2.5 -0.5q1 0 1.5 -0.5t1.5 -0.5h9
l5 2q4 1 12 5q11 7 22 18q11 9 20 20q5 5 9.5 11t9.5 11l36 47q17 24 33 48.5t31 49.5l30 51l29 51q4 8 11 3q4.92307 -2.46155 4.92307 -6.05917q0 -2.24854 -1.92307 -4.94083q-7 -13 -14 -25.5t-15 -25.5t-15.5 -25.5t-15.5 -25.5t-15.5 -25.5t-15.5 -24.5l-33 -49
q-17 -25 -35.5 -48t-41.5 -44q-3 -4 -11 -10l-6 -5l-7 -5q-7 -5 -14 -8l-8 -3q-6 -2 -9 -2h-9q-2 0 -4.5 0.5t-4.5 0.5q-5 1 -9 3t-9 4l-3.5 3.5l-3.5 3.5l-3.5 3.5l-3.5 3.5q-5 7 -8 17q-4 8 -5.5 16.5t-2.5 16.5t-1 16.5v16.5q1 11 3 22l4 22q-21 -35 -42 -62l-24 -31
q-4 -3 -7 -7l-3.5 -3.5l-3.5 -3.5q-3 -4 -6.5 -7t-7.5 -6q-7 -7 -16 -13l-16 -11q-9 -5 -18.5 -9t-20.5 -6q-2 -1 -6 -1v-1h-6h-6.5t-6.5 1q-8 3 -13 7q-8 6 -11 10q-8 11 -12 22l-4 11l-2 11q-2 11 -2.5 21.5q-0.166664 3.5 -0.166664 7.05556q0 7.11111 0.666664 14.4444
q0 5 0.5 10t1.5 10l3 20q4 20 9 39t10 39q6 19 12.5 37t14.5 37q2 5 4 9t4 9l3 9l4 9l17 35q5 9 9.5 18t9.5 17q5 9 10 17.5t10 16.5l23 34q7 8 14 15.5t15 14.5l18 12q5 3 9.5 6t9.5 5t11 3.5t12 3.5q13 2 24 -1q8 -2 11 -4q1 0 1 -0.5t1 -0.5h1l1 -1q1 -1 2 -1l5 -4
q5 -3 8 -8q2 -2 3.5 -4.5t2.5 -5.5q6 -9 9 -19q4 -11 5 -20q2 -5 2.5 -9.5t1.5 -9.5l2 -20v-20.5t-1 -19.5v-3q2 6 5 11.5t6 11.5l26 53q4 7 7.5 13t6.5 13l8 13q3 8 7 13q5 10 15.5 12.5t20.5 -3.5q8 -5 11.5 -14.5t-1.5 -18.5zM207 290q5 18 8.5 36t5.5 37q2 9 2 18.5
v18.5q0 18 -3 36l-5 18q-2 4 -3.5 7.5t-3.5 7.5l-5 7q-2 1 -2.5 2t-2.5 3q-1 0 -1.5 0.5t-1.5 0.5l-1 1h-1l-1 1q-2 0 -3.5 0.5t-3.5 0.5q-14 2 -27 -10q-10 -9 -22 -26l-10 -14t-10 -15l-18 -31q-5 -8 -9 -16.5t-8 -16.5q-8 -14 -16 -34l-14 -34l-4 -9l-3 -9l-7 -17
q-7 -18 -13 -35.5t-12 -35.5q-13 -37 -20 -70q-2 -5 -2.5 -9t-1.5 -9l-3 -18l-6 -34v-8q0 -2 -0.5 -3.5t-0.5 -3.5q0 -6 2 -14q0 -1 2 -5q0 -1 3 -4q2 -2 5 -2q1 0 1 -1h6h9t9 2q9 2 16 6q5 2 8.5 4.5t7.5 4.5t7.5 5t7.5 6l14 13l13 13q6 8 12 15t11 15q11 15 20.5 31.5
t18.5 33.5l16 34q2 5 3.5 9t3.5 9l4 8t4 9q7 18 13.5 35.5t11.5 35.5zM249 743q0 32 22.5 54.5t54.5 22.5t54.5 -22.5t22.5 -54.5t-22.5 -54.5t-54.5 -22.5t-54.5 22.5t-22.5 54.5zM270 743q0 -23 16.5 -39.5t39.5 -16.5t39.5 16.5t16.5 39.5t-16.5 39.5t-39.5 16.5
t-39.5 -16.5t-16.5 -39.5z" />
    <glyph glyph-name="acute" unicode="&#xb4;" horiz-adv-x="245" 
d="M32 664l11 5l10 5q5 2 10.5 5t10.5 6q10 5 20 11t19 13q10 7 19 14t17 15q18 16 31 32q7 8 17.5 9.5q1.85294 0.264709 3.65916 0.264709q8.42906 0 15.8408 -5.76471q9.76471 -9.76471 9.76471 -22.1592q0 -8.42908 -5.76471 -15.8408l-4 -3l-1 -1q-21 -18 -42 -29
q-11 -7 -22 -12.5t-22 -10.5q-12 -5 -23.5 -9t-23.5 -8q-5 -2 -11 -3.5t-12 -3.5l-24 -6q-1.4 -0.400024 -2.6 -0.400024q-4.8 0 -6.4 6.40002q0 6 5 8z" />
    <glyph glyph-name="breve" unicode="&#x2d8;" horiz-adv-x="364" 
d="M65 728l2 -1l2 -2l4 -2q2 -1 3.5 -2t3.5 -2l14 -9q8 -4 15 -7t15 -6q15 -5 31 -7.5t32 -2.5t31.5 2.5t31.5 7.5l32 12l8 4l7 3l16 8h1q6 4 9 -3q1 -2 1 -3.75t-1 -3.25q-3 -4 -6 -7.5t-7 -7.5l-6 -7l-8 -6q-12 -12 -32 -22t-37 -14q-10 -2 -19.5 -3.5t-20.5 -1.5
q-4 -0.400024 -8 -0.400024l-12 0.900024q-10 1.5 -20 3.5q-22 5 -38 13q-9 5 -17 10.5t-16 11.5q-4 4 -7 7.5t-7 6.5l-6 8l-3 4l-2 4q-1.92308 3.46155 -1.92308 6.33136q0 4.59174 4.92308 7.66864q3 1.5 5.75 1.5t5.25 -1.5z" />
    <glyph glyph-name="grave" unicode="`" horiz-adv-x="289" 
d="M240 650q-8 2 -13 2l-12 3q-7 2 -13 3.5t-12 3.5q-13 4 -25.5 8t-24.5 9t-24 10.5t-24 12.5t-23.5 14t-22.5 16q-10.7647 8.37256 -10.7647 21.1592q0 8.42908 5.76471 15.8408q7 8 17.5 10q2.33333 0.444458 4.59259 0.444458q7.90741 0 14.9074 -5.44446q1 -1 2 -1.5
t2 -2.5q14 -15 34 -32q9 -8 19 -15l20 -14q11 -7 21.5 -13t21.5 -11q6 -3 11.5 -6t11.5 -5l11 -5q8 -4 12 -5q3 -1 4.5 -4q0.642853 -1.28571 0.642853 -2.38776q0 -1.46936 -1.14285 -2.61224q-1.55556 -5.44446 -5.53087 -5.44446q-1.1358 0 -2.46913 0.444458z" />
    <glyph glyph-name="ogonek" unicode="&#x2db;" horiz-adv-x="187" 
d="M157 4l-1 -1h-1l-2 -1l-4 -3q-5 -2 -8 -5l-16 -12q-17 -13 -29 -27q-15 -16 -24 -31l-6 -8l-4 -9q-5 -9 -8 -17l-2 -8t-1 -7q0 -4 1 -6q0 -1 2 -5l4 -4h1l1 -1h1l1 -1h2l8 -2q2 0 4 0.5t4 0.5q5 2 9 3.5t8 4.5q9 4 17 11q4 4 7.5 7t7.5 8l7 7l3 5l2 2l1 2q4 6 12 2
q5 -5 2 -12l-2 -2l-1 -2l-4 -5q-4 -6 -7 -9l-15 -17q-5 -4 -9 -8t-9 -7q-8 -7 -22 -12q-5 -2 -13 -4q-3 0 -6.5 -0.5q-1.16666 -0.166672 -2.38889 -0.166672q-2.44444 0 -5.11111 0.666672h-4l-1 1h-2l-2 1h-2q-1 0 -1.5 0.5t-1.5 0.5q-8 3 -14 9q-3 3 -5.5 6t-4.5 7t-3 8
t-2 7q-0.799999 6.8 -0.799999 12.64q0 8.76 1.8 15.36q1 7 3 13l4 12q2 2 2.5 5t2.5 6l6 11q11 20 28 38q15 18 35 32q10 8 20 14q2 2 5 2.5t6 2.5l5 3l3 1h1l2 1q3.69231 1.38462 7.1716 1.38462q4.05917 0 7.8284 -1.88462q7 -3.5 10 -11.5
q1.63637 -3.81818 1.63637 -7.4876q0 -3.05785 -1.13637 -6.0124q-2.5 -6.5 -9.5 -10.5z" />
    <glyph glyph-name="cedilla" unicode="&#xb8;" horiz-adv-x="243" 
d="M147 9l-6 -14l-6 -15l-6 -14q-1 -1 -1 -3l5 -1l20 -3q5 -2 11 -3.5t11 -4.5q12 -7 19 -17q9 -12 10 -25v-14q-2 -8 -4 -14q-4 -12 -14 -23q-8 -8 -20 -15q-9 -5 -22 -7q-6 -2 -11.5 -2h-10.5q-3 0 -5.5 0.5t-4.5 0.5h-3q-1 1 -2 1h-3l-2 1q-4 0 -10 2q-3 0 -9 2
q-5 2 -9 3t-9 3t-9 3.5t-9 3.5l-8 4q-2 2 -4 2.5t-4 2.5t-4 2.5t-4 2.5l-8 7q-2.5 3.5 -2.5 6.5t2.5 5.5q5 5 11 0l6 -5l7 -3q4 -2 7.5 -3t8.5 -3q6 -2 16 -4l16 -2q19 0 31 4q5 1 13 5q3 2 5.5 3.5t4.5 3.5q5 5 6 8q2 2 2.5 3.5t1.5 3.5v4q1 1 1 4q0 2 0.5 4t0.5 4
q0 7 -2 12q-2 6 -8 11q-5 6 -13 8q-7 3 -16 1q-7 0 -9 7q0 3 1 4v1q2 6 2 8l3 7l6 15l6 14l6 15q2.76923 6.23077 7.93491 6.23077q2.29585 0 5.06509 -1.23077q9 -4 5 -13z" />
    <glyph glyph-name="hungarumlaut" unicode="&#x2dd;" horiz-adv-x="475" 
d="M32 664l11 5l10 5q5 2 10.5 5t10.5 6q10 5 20 11t19 13q10 7 19 14t17 15q18 16 31 32q7 8 17.5 9.5q1.85294 0.264709 3.65916 0.264709q8.42906 0 15.8408 -5.76471q8 -8 9.5 -18.5t-5.5 -19.5l-4 -3l-1 -1q-21 -18 -42 -29q-11 -7 -22 -12.5t-22 -10.5
q-12 -5 -23.5 -9t-23.5 -8q-5 -2 -11 -3.5t-12 -3.5l-24 -6q-1.4 -0.400024 -2.6 -0.400024q-4.8 0 -6.4 6.40002q0 6 5 8zM241 664l11 5l10 5q5 2 10.5 5t10.5 6q10 5 20 11t19 13q10 7 19 14t17 15q18 16 31 32q7 8 17.5 9.5q1.85294 0.264709 3.65918 0.264709
q8.42908 0 15.8408 -5.76471q9.76471 -9.76471 9.76471 -22.1592q0 -8.42908 -5.76471 -15.8408l-4 -3l-1 -1q-21 -18 -42 -29q-11 -7 -22 -12.5t-22 -10.5q-12 -5 -23.5 -9t-23.5 -8q-5 -2 -11 -3.5t-12 -3.5l-24 -6q-1.39999 -0.400024 -2.60001 -0.400024
q-4.8 0 -6.39999 6.40002q0 6 5 8z" />
    <glyph glyph-name="ccedilla" unicode="&#xe7;" horiz-adv-x="387" 
d="M407 315q-46 -77 -99 -146q-14 -17 -27.5 -34t-29.5 -33t-32.5 -30.5t-34.5 -28.5q-17 -12 -37 -25l-20 -10t-21 -10t-22.5 -8t-22.5 -5q-2 0 -8 -2q-1 -2 -2 -4.5t-2 -5.5l-6 -15l-6 -14q-1 -1 -1 -3l5 -1l20 -3q5 -2 11 -3.5t11 -4.5q12 -7 19 -17q9 -12 10 -25v-14
q-2 -8 -4 -14q-4 -12 -14 -23q-8 -8 -20 -15q-9 -5 -22 -7q-6 -2 -11.5 -2h-10.5q-3 0 -5.5 0.5t-4.5 0.5h-3q-1 1 -2 1h-3l-2 1q-4 0 -10 2q-3 0 -9 2q-5 2 -9 3t-9 3t-9 3.5t-9 3.5l-8 4q-2 2 -4 2.5t-4 2.5t-4 2.5t-4 2.5l-8 7q-2.5 3.5 -2.5 6.5t2.5 5.5q5 5 11 0l6 -5
l7 -3q4 -2 7.5 -3t8.5 -3q6 -2 16 -4l16 -2q19 0 31 4q5 1 13 5q3 2 5.5 3.5t4.5 3.5q5 5 6 8q2 2 2.5 3.5t1.5 3.5v4q1 1 1 4q0 2 0.5 4t0.5 4q0 7 -2 12q-2 6 -8 11q-5 6 -13 8q-7 3 -16 1q-7 0 -9 7q0 3 1 4v1q2 6 2 8l3 7l6 15l6 14l1 3l-12 3q-7 1 -14 5q-3 2 -6.5 4.5
t-5.5 4.5q-8 6 -11 10q-8 10 -15 23q-6 12 -9 24.5t-5 24.5q-3 24 -3 48q1 12 1.5 24t2.5 23q8 49 22 90q8 22 17 43t20 41q5 10 11 19.5t12 19.5l27 38l15 18l17 17l17 15l20 15l21 12q6 2 12 4.5t12 4.5q7 2 13 3t14 1h5l1 -1h4q2 0 3 -1q4 0 7 -1t7 -2q8 -4 12 -7
q3 -2 6 -4.5t5 -4.5l9 -11q4 -8 5 -12q2 -4 4 -12l2 -12q1 -12 0 -23q0 -6 -0.5 -11.5t-1.5 -11.5l-5 -22q-3 -11 -6.5 -21t-7.5 -21l-18 -41q-2 -5 -4.5 -9.5t-5.5 -9.5l-10 -20q-1 -3 -5 -1q-3 1 -1 5l10 19l9 20q5 10 8.5 19.5t7.5 20.5q3 11 5.5 21t4.5 21q4 19 4 42
l-3 20l-3 10l-4 8q-5 9 -11 13q-6 3 -15 5h-13v-1h-3q-7 -1 -16 -5q-18 -8 -32 -21l-14 -13l-14 -15q-3 -4 -6 -7.5t-7 -7.5l-12 -17q-6 -8 -12 -16.5t-11 -17.5q-9 -16 -19 -37q-10 -19 -17.5 -38t-14.5 -39q-13 -38 -21 -80q-2 -10 -3 -20l-2 -20q0 -11 -0.5 -20.5
t1.5 -19.5q0 -5 0.5 -9t1.5 -9q2 -5 2.5 -9t2.5 -8l6 -15q2 -4 4.5 -6.5t4.5 -5.5q4 -4 12 -7q4 -2 8 -2q2 0 4.5 -0.5t4.5 -0.5q5.75 -0.5 11.1875 -0.5q16.3125 0 29.8125 4.5q20 5 39 14q10 5 19 10.5t18 11.5q18 12 33 27l31 30q30 31 57 66l51 70l46 74q3 7 11 3
q4.45456 -1.90909 4.45456 -5.84299q0 -2.24792 -1.45456 -5.15701z" />
    </font>
</defs>
</svg>
